<?xml version="1.0" encoding="UTF-8"?> <svg xmlns="http://www.w3.org/2000/svg" width="319" height="117" viewBox="0 0 319 117" fill="none"> <g clip-path="url(#clip0_2541_6)"> <path d="M4.1 0.9L8.3 4.4V20.1H30.9L34 24L30.9 27.7H8.3V42.7L4.1 46.2L0 42.7V4.4L4.1 0.9ZM16.3 40.5H33.6L36.5 44.2L33.4 48.1H16.3L13.5 44.5L16.3 40.5ZM16.9 0H33.4L36.5 3.9L33.4 7.6H17.1L13.8 4L16.9 0ZM108.7 7.5L112.4 11.5L108.7 15.5H52.9L49.3 11.5L52.9 7.5H108.7ZM46.4 24L49.9 21L53.4 24V28.4C53.4 35.8 55.4 41.8 64.3 41.8H66C74 41.8 78.4 36.4 78.4 28.1V23.9L81.8 20.9L85.3 23.8V28.4C85.3 35.9 87.5 41.4 96.1 41.4H97.6C106 41.4 107.5 35 107.6 28V23.5L111 20.7L114.6 23.6V28.1C114.5 37.8 111.9 48.8 98 48.8H96.5C88.2 48.8 83.7 45.1 82 40.5C79.9 45.2 74.3 49.3 66.8 49.3H65C50.7 49.3 46.8 40.6 46.7 28.5V24H46.4ZM74.9 96.1L72.9 90.7L78.1 89.2L96.3 97.5V80.5L100 77.4L103.8 80.5V101.1L110.6 104.2L112.5 109.2L107.2 111.1L74.9 96.1ZM107.3 59.8L112.3 62.1L110.7 67.2L65.9 87.9L60.5 85.8L62.7 80.6L107.3 59.8ZM42.6 88.1L47 91.7C46.6 104.4 35.8 111 22.9 111H21.6C15.2 111 7.8 108.6 3 104L3.5 99L8.2 98.4C11.7 101.4 16.6 103.5 21.1 103.5H22.5C31.2 103.5 37.8 99.9 38.5 91.4L42.6 88.1ZM38.6 79.9C38.2 71.1 31.6 67.7 22.6 67.7H21.2C15.8 67.7 11.7 69.8 8.3 72.8L3.6 72.2L3 67C7.8 62.3 14.5 60.1 21.4 60.1H22.8C35.7 60.1 46.6 66.7 47 79.5L42.6 83L38.6 79.9Z" fill="white"></path> <path d="M156.2 15.1H145.8C146 17.1 147.4 18.6 149.5 18.6C150.8 18.6 151.9 18.1 152.6 17.1L155.9 17.2C154.7 19.8 152.3 21.2 149.5 21.2C145.6 21.2 142.7 18.3 142.7 14.2C142.7 10.2 145.5 7.3 149.4 7.3C153 7.3 156.2 9.7 156.2 15.1ZM145.8 13H152.9C152.8 11.3 151.4 9.8 149.5 9.8C147.5 9.8 146.2 11.1 145.8 13Z" fill="white"></path> <path d="M166.9 11.2C165.9 10.2 164.4 9.8 163.5 9.8C162.4 9.8 161.8 10.4 161.8 11C161.8 11.7 162.1 12.1 163 12.4L165.3 13.2C167.8 14 168.8 15.4 168.8 17C168.8 19.1 167.2 21.1 163.9 21.1C161.7 21.1 159.6 20.2 158.3 19L160 16.8C161 17.8 162.5 18.5 163.8 18.5C165 18.5 165.7 18 165.7 17.2C165.7 16.4 165.3 16 163.8 15.5L161.6 14.7C159.8 14.1 158.7 12.7 158.7 11C158.7 9.1 160.4 7.1 163.5 7.1C165 7.1 167.1 7.7 168.5 9L166.9 11.2Z" fill="white"></path> <path d="M178.2 18.6C179.7 18.6 180.9 17.9 181.6 16.7L184 18C182.9 20 180.6 21.2 178.1 21.2C174.2 21.2 171.1 18.3 171.1 14.3C171.1 10.2 174.2 7.3 178.1 7.3C180.6 7.3 182.9 8.5 184 10.5L181.5 11.8C180.8 10.6 179.7 9.9 178.1 9.9C175.7 9.9 174.1 11.8 174.1 14.3C174.1 16.8 175.8 18.6 178.2 18.6Z" fill="white"></path> <path d="M193.2 7.3C197.1 7.3 200.2 10.2 200.2 14.2C200.2 18.2 197 21.2 193.2 21.2C189.3 21.2 186.2 18.3 186.2 14.2C186.2 10.2 189.3 7.3 193.2 7.3ZM193.2 9.8C190.8 9.8 189.1 11.7 189.1 14.2C189.1 16.7 190.8 18.6 193.2 18.6C195.6 18.6 197.3 16.7 197.3 14.2C197.3 11.7 195.6 9.8 193.2 9.8Z" fill="white"></path> <path d="M206.6 0.400002H203.7V20.9H206.6V0.400002Z" fill="white"></path> <path d="M218.4 12C218.4 10.6 217.3 9.9 215.7 9.9C214.3 9.9 213 10.5 212 11.3L210.6 9.1C211.7 8.1 213.6 7.3 215.9 7.3C219.4 7.3 221.4 9.2 221.4 12V20.8H218.5V19.4C217.7 20.6 216.1 21.1 214.7 21.1C211.7 21.1 209.9 19.4 209.9 16.9C209.9 14.3 211.7 12.9 214.7 12.9H217.5C218.2 12.9 218.4 12.6 218.4 12.1V12V12ZM218.4 16V14.9C218.1 15.1 217.7 15.2 217 15.2H215.2C213.7 15.2 212.9 15.9 212.9 17C212.9 18 213.7 19 215.2 19C216.9 18.9 218.4 18 218.4 16Z" fill="white"></path> <path d="M146.5 50.7H143.6V30.2H146.5V39.4C147.2 38.1 149 37.1 151 37.1C154.8 37.1 157.6 40 157.6 44C157.6 48 154.8 51 150.9 51C149 51 147.2 50.1 146.5 48.8V50.7ZM146.4 44.1C146.4 46.6 148.1 48.5 150.5 48.5C152.9 48.5 154.6 46.6 154.6 44.1C154.6 41.6 152.9 39.7 150.5 39.7C148.1 39.7 146.4 41.6 146.4 44.1Z" fill="white"></path> <path d="M168.5 40.1H167C165.1 40.1 163.9 41.2 163.9 44.2V50.7H161V37.5H163.8V39.6C164.3 38.1 165.6 37.3 167.5 37.3C167.8 37.3 168.2 37.3 168.5 37.4V40.1Z" fill="white"></path> <path d="M174.9 50.7H172V39.9H170V37.5H174.9V50.7ZM173.3 30.7C174.4 30.7 175.4 31.6 175.4 32.8C175.4 33.9 174.5 34.8 173.3 34.8C172.2 34.8 171.3 33.9 171.3 32.8C171.3 31.6 172.2 30.7 173.3 30.7Z" fill="white"></path> <path d="M182.9 32.2V37.5H186V39.9H182.9V47.3C182.9 48.2 183.6 48.4 184.2 48.4C185.2 48.4 186 48.3 186 48.3V50.7C186 50.7 184.6 50.8 183.5 50.8C181.9 50.8 180 50.5 180 47.9V39.9H177.8V37.5H180V32.2H182.9Z" fill="white"></path> <path d="M196.8 41.8C196.8 40.4 195.7 39.7 194.1 39.7C192.7 39.7 191.4 40.3 190.4 41.1L189 38.9C190.1 37.9 192 37.1 194.3 37.1C197.8 37.1 199.8 39 199.8 41.8V50.6H196.9V49.2C196.1 50.4 194.5 50.9 193.1 50.9C190.1 50.9 188.3 49.2 188.3 46.7C188.3 44.1 190.1 42.7 193.1 42.7H195.9C196.6 42.7 196.8 42.4 196.8 41.9V41.8V41.8ZM192.7 30.2H196.1L198.9 35.1H195.9L194.4 32.4L192.9 35.1H189.9L192.7 30.2ZM196.8 45.9V44.8C196.5 45 196.1 45.1 195.4 45.1H193.6C192.1 45.1 191.3 45.8 191.3 46.9C191.3 47.9 192.1 48.9 193.6 48.9C195.3 48.8 196.8 47.9 196.8 45.9Z" fill="white"></path> <path d="M206.7 38.3C206.7 38.7 206.7 38.9 206.7 39.2C207.8 37.9 209.3 37.2 211 37.2C214.1 37.2 215.9 39.1 215.9 42.1V50.7H213V42.5C213 40.6 211.9 39.8 210.4 39.8C209.1 39.8 207.9 40.4 206.8 41.7V50.7H203.9V37.5H206.7V38.3V38.3Z" fill="white"></path> <path d="M223.5 50.7H220.6V39.9H218.6V37.5H223.5V50.7ZM221.8 30.7C222.9 30.7 223.9 31.6 223.9 32.8C223.9 33.9 223 34.8 221.8 34.8C220.7 34.8 219.8 33.9 219.8 32.8C219.8 31.6 220.7 30.7 221.8 30.7Z" fill="white"></path> <path d="M233.8 48.5C235.3 48.5 236.5 47.8 237.2 46.6L239.7 47.9C238.6 49.9 236.3 51.1 233.8 51.1C229.9 51.1 226.8 48.2 226.8 44.2C226.8 40.1 229.9 37.2 233.8 37.2C236.3 37.2 238.6 38.4 239.7 40.4L237.2 41.7C236.5 40.5 235.4 39.8 233.8 39.8C231.4 39.8 229.8 41.7 229.8 44.2C229.8 46.7 231.4 48.5 233.8 48.5Z" fill="white"></path> <path d="M250.3 41.8C250.3 40.4 249.2 39.7 247.6 39.7C246.2 39.7 244.9 40.3 243.9 41.1L242.5 38.9C243.6 37.9 245.5 37.1 247.8 37.1C251.3 37.1 253.3 39 253.3 41.8V50.6H250.4V49.2C249.6 50.4 248 50.9 246.6 50.9C243.6 50.9 241.8 49.2 241.8 46.7C241.8 44.1 243.6 42.7 246.6 42.7H249.4C250.1 42.7 250.3 42.4 250.3 41.9V41.8V41.8ZM250.3 45.9V44.8C250 45 249.6 45.1 248.9 45.1H247.1C245.6 45.1 244.8 45.8 244.8 46.9C244.8 47.9 245.6 48.9 247.1 48.9C248.8 48.8 250.3 47.9 250.3 45.9Z" fill="white"></path> <path d="M274.4 48.8C273.7 50.1 271.9 51.1 270 51.1C266.2 51.1 263.4 48.2 263.4 44.1C263.4 40.1 266.1 37.2 270 37.2C272 37.2 273.8 38.2 274.5 39.5C274.5 38.6 274.5 37.5 274.5 36.5V30.3H277.4V50.8H274.5V48.8H274.4ZM266.4 44.1C266.4 46.6 268.1 48.5 270.5 48.5C272.9 48.5 274.6 46.6 274.6 44.1C274.6 41.6 272.9 39.7 270.5 39.7C268 39.7 266.4 41.6 266.4 44.1Z" fill="white"></path> <path d="M294.2 45H283.8C284 47 285.4 48.5 287.5 48.5C288.8 48.5 289.9 48 290.6 47L293.9 47.1C292.7 49.7 290.3 51.1 287.5 51.1C283.6 51.1 280.7 48.2 280.7 44.1C280.7 40.1 283.5 37.2 287.4 37.2C291 37.2 294.2 39.5 294.2 45ZM283.8 42.9H290.9C290.8 41.2 289.4 39.7 287.5 39.7C285.5 39.7 284.2 41 283.8 42.9Z" fill="white"></path> <path d="M151.1 71.7C151.1 70.3 150 69.6 148.4 69.6C147 69.6 145.7 70.2 144.7 71L143.3 68.8C144.4 67.8 146.3 67 148.6 67C152.1 67 154.1 68.9 154.1 71.7V80.5H151.2V79.1C150.4 80.3 148.8 80.8 147.4 80.8C144.4 80.8 142.6 79.1 142.6 76.6C142.6 74 144.4 72.6 147.4 72.6H150.2C150.9 72.6 151.1 72.3 151.1 71.8V71.7V71.7ZM151.1 75.7V74.6C150.8 74.8 150.4 74.9 149.7 74.9H147.9C146.4 74.9 145.6 75.6 145.6 76.7C145.6 77.7 146.4 78.7 147.9 78.7C149.5 78.6 151.1 77.8 151.1 75.7Z" fill="white"></path> <path d="M165.6 70H164.1C162.2 70 161 71.1 161 74.1V80.6H158.1V67.4H160.9V69.5C161.4 68 162.7 67.2 164.6 67.2C164.9 67.2 165.3 67.2 165.6 67.3V70Z" fill="white"></path> <path d="M172.3 62.1V67.4H175.4V69.8H172.3V77.2C172.3 78.1 173 78.3 173.6 78.3C174.6 78.3 175.4 78.2 175.4 78.2V80.6C175.4 80.6 174 80.7 172.9 80.7C171.3 80.7 169.4 80.4 169.4 77.8V69.8H167.2V67.4H169.4V62.1H172.3V62.1Z" fill="white"></path> <path d="M191.3 74.9H180.9C181.1 76.9 182.5 78.4 184.6 78.4C185.9 78.4 187 77.9 187.7 76.9L191 77C189.8 79.6 187.4 81 184.6 81C180.7 81 177.8 78.1 177.8 74C177.8 70 180.6 67.1 184.5 67.1C188.1 67 191.3 69.4 191.3 74.9ZM180.9 72.7H188C187.9 71 186.5 69.5 184.6 69.5C182.6 69.6 181.3 70.9 180.9 72.7Z" fill="white"></path> <path d="M202 71C201 70 199.5 69.6 198.6 69.6C197.5 69.6 196.9 70.2 196.9 70.8C196.9 71.5 197.2 71.9 198.1 72.2L200.4 73C202.9 73.8 203.9 75.2 203.9 76.8C203.9 78.9 202.3 80.9 199 80.9C196.8 80.9 194.7 80 193.4 78.8L195.1 76.6C196.1 77.6 197.6 78.3 198.9 78.3C200.1 78.3 200.8 77.8 200.8 77C200.8 76.2 200.4 75.8 198.9 75.3L196.7 74.5C194.9 73.9 193.8 72.5 193.8 70.8C193.8 68.9 195.5 66.9 198.6 66.9C200.1 66.9 202.2 67.5 203.6 68.8L202 71Z" fill="white"></path> <path d="M220.1 78.4C221.6 78.4 222.8 77.7 223.5 76.5L226 77.8C224.9 79.8 222.6 81 220.1 81C216.2 81 213.1 78.1 213.1 74.1C213.1 70 216.2 67.1 220.1 67.1C222.6 67.1 224.9 68.3 226 70.3L223.5 71.6C222.8 70.4 221.7 69.7 220.1 69.7C217.7 69.7 216.1 71.6 216.1 74.1C216.1 76.6 217.7 78.4 220.1 78.4Z" fill="white"></path> <path d="M236.7 70H235.2C233.3 70 232.1 71.1 232.1 74.1V80.6H229.2V67.4H232V69.5C232.5 68 233.8 67.2 235.7 67.2C236 67.2 236.4 67.2 236.7 67.3V70Z" fill="white"></path> <path d="M243.2 80.6H240.3V69.8H238.3V67.4H243.2V80.6ZM241.6 60.6C242.7 60.6 243.7 61.5 243.7 62.7C243.7 63.8 242.8 64.7 241.6 64.7C240.5 64.7 239.6 63.8 239.6 62.7C239.5 61.5 240.4 60.6 241.6 60.6Z" fill="white"></path> <path d="M254.9 71.7C254.9 70.3 253.8 69.6 252.2 69.6C250.8 69.6 249.5 70.2 248.5 71L247.1 68.8C248.2 67.8 250.1 67 252.4 67C255.9 67 257.9 68.9 257.9 71.7V80.5H255V79.1C254.2 80.3 252.6 80.8 251.2 80.8C248.2 80.8 246.4 79.1 246.4 76.6C246.4 74 248.2 72.6 251.2 72.6H254C254.7 72.6 254.9 72.3 254.9 71.8V71.7V71.7ZM254.9 75.7V74.6C254.6 74.8 254.2 74.9 253.5 74.9H251.7C250.2 74.9 249.4 75.6 249.4 76.7C249.4 77.7 250.2 78.7 251.7 78.7C253.4 78.6 254.9 77.8 254.9 75.7Z" fill="white"></path> <path d="M265.7 62.1V67.4H268.8V69.8H265.7V77.2C265.7 78.1 266.4 78.3 267 78.3C268 78.3 268.8 78.2 268.8 78.2V80.6C268.8 80.6 267.4 80.7 266.3 80.7C264.7 80.7 262.8 80.4 262.8 77.8V69.8H260.6V67.4H262.8V62.1H265.7V62.1Z" fill="white"></path> <path d="M275.6 80.6H272.7V69.8H270.7V67.4H275.6V80.6ZM273.9 60.6C275 60.6 276 61.5 276 62.7C276 63.8 275.1 64.7 273.9 64.7C272.8 64.7 271.9 63.8 271.9 62.7C271.9 61.5 272.8 60.6 273.9 60.6Z" fill="white"></path> <path d="M285.1 77.8L288.7 67.4H291.8L286.9 80.6H283.2L278.6 67.4H281.8L285.1 77.8Z" fill="white"></path> <path d="M301.8 71.7C301.8 70.3 300.7 69.6 299.1 69.6C297.7 69.6 296.4 70.2 295.4 71L294 68.8C295.1 67.8 297 67 299.3 67C302.8 67 304.8 68.9 304.8 71.7V80.5H301.9V79.1C301.1 80.3 299.5 80.8 298.1 80.8C295.1 80.8 293.3 79.1 293.3 76.6C293.3 74 295.1 72.6 298.1 72.6H300.9C301.6 72.6 301.8 72.3 301.8 71.8V71.7V71.7ZM301.8 75.7V74.6C301.5 74.8 301.1 74.9 300.4 74.9H298.6C297.1 74.9 296.3 75.6 296.3 76.7C296.3 77.7 297.1 78.7 298.6 78.7C300.3 78.6 301.8 77.8 301.8 75.7Z" fill="white"></path> <path d="M316.4 71C315.4 70 313.9 69.6 313 69.6C311.9 69.6 311.3 70.2 311.3 70.8C311.3 71.5 311.6 71.9 312.5 72.2L314.8 73C317.3 73.8 318.3 75.2 318.3 76.8C318.3 78.9 316.7 80.9 313.4 80.9C311.2 80.9 309.1 80 307.8 78.8L309.5 76.6C310.5 77.6 312 78.3 313.3 78.3C314.5 78.3 315.2 77.8 315.2 77C315.2 76.2 314.8 75.8 313.3 75.3L311.1 74.5C309.3 73.9 308.2 72.5 308.2 70.8C308.2 68.9 309.9 66.9 313 66.9C314.5 66.9 316.6 67.5 318 68.8L316.4 71Z" fill="white"></path> <path d="M160.5 110.4H156.6L154.4 108C153.1 109.8 151.3 110.7 148.8 110.7C145.2 110.7 142.8 108.1 142.8 105.1C142.8 102.7 144.1 100.8 146.3 99C144.9 97.3 144.5 96.1 144.5 94.7C144.5 91.3 147.2 89.6 150 89.6C152.6 89.6 155.1 91.1 155.1 94.2C155.1 95 154.9 95.9 154.4 96.7L151.9 96.2C152.2 95.5 152.4 94.9 152.4 94.5C152.4 93.1 151.4 92.2 150.1 92.2C148.5 92.2 147.6 93.3 147.6 94.7C147.6 95.8 148.1 96.8 149.4 98.2C151.2 100.2 153.9 103.2 154.3 103.5C155.1 102.1 155.8 100.5 156.2 99.4H159.5C158.6 101.7 157.4 103.9 156.4 105.6L160.8 110.2V110.4H160.5ZM148 101.1C146.5 102.7 145.9 103.7 145.9 105.2C145.9 107 147.4 108.2 149 108.2C150.3 108.2 151.7 107.5 152.5 106.1L148 101.1Z" fill="white"></path> <path d="M173.9 92V97.3H177V99.7H173.9V107.1C173.9 108 174.6 108.2 175.2 108.2C176.2 108.2 177 108.1 177 108.1V110.5C177 110.5 175.6 110.6 174.5 110.6C172.9 110.6 171 110.3 171 107.7V99.7H168.8V97.3H171V92H173.9Z" fill="white"></path> <path d="M192.9 104.8H182.5C182.7 106.8 184.1 108.3 186.2 108.3C187.5 108.3 188.6 107.8 189.3 106.8L192.6 106.9C191.4 109.5 189 110.9 186.2 110.9C182.3 110.9 179.4 108 179.4 103.9C179.4 99.9 182.2 97 186.1 97C189.7 96.9 192.9 99.3 192.9 104.8ZM182.5 102.6H189.6C189.5 100.9 188.1 99.4 186.2 99.4C184.2 99.5 182.9 100.7 182.5 102.6Z" fill="white"></path> <path d="M202.2 108.3C203.7 108.3 204.9 107.6 205.6 106.4L208.1 107.7C207 109.7 204.7 110.9 202.2 110.9C198.3 110.9 195.2 108 195.2 104C195.2 99.9 198.3 97 202.2 97C204.7 97 207 98.2 208.1 100.2L205.6 101.5C204.9 100.3 203.8 99.6 202.2 99.6C199.8 99.6 198.2 101.5 198.2 104C198.2 106.5 199.8 108.3 202.2 108.3Z" fill="white"></path> <path d="M214.1 98C214.1 98.4 214.1 98.6 214.1 98.9C215.2 97.6 216.7 96.9 218.4 96.9C221.5 96.9 223.3 98.8 223.3 101.8V110.4H220.4V102.2C220.4 100.3 219.3 99.5 217.8 99.5C216.5 99.5 215.3 100.1 214.2 101.4V110.4H211.3V97.3H214.1V98V98Z" fill="white"></path> <path d="M233.5 96.9C237.4 96.9 240.5 99.8 240.5 103.8C240.5 107.8 237.3 110.8 233.5 110.8C229.6 110.8 226.5 107.9 226.5 103.8C226.5 99.7 229.6 96.9 233.5 96.9ZM233.5 99.5C231.1 99.5 229.4 101.4 229.4 103.9C229.4 106.4 231.1 108.3 233.5 108.3C235.9 108.3 237.6 106.4 237.6 103.9C237.5 101.3 235.9 99.5 233.5 99.5Z" fill="white"></path> <path d="M246.9 90H244V110.5H246.9V90Z" fill="white"></path> <path d="M257.3 96.9C261.2 96.9 264.3 99.8 264.3 103.8C264.3 107.8 261.1 110.8 257.3 110.8C253.4 110.8 250.3 107.9 250.3 103.8C250.3 99.7 253.4 96.9 257.3 96.9ZM257.3 99.5C254.9 99.5 253.2 101.4 253.2 103.9C253.2 106.4 254.9 108.3 257.3 108.3C259.7 108.3 261.4 106.4 261.4 103.9C261.4 101.3 259.7 99.5 257.3 99.5Z" fill="white"></path> <path d="M280.8 97.3V111.5C280.8 113.5 279.8 115.5 276.6 115.5H271.1V113.1H276.2C277 113.1 277.9 112.9 277.9 111.7V108.5C277.2 109.8 275.4 110.7 273.5 110.7C269.7 110.7 266.9 107.8 266.9 103.8C266.9 99.7 269.6 96.9 273.5 96.9C275.4 96.9 277.2 97.9 278 99.2C278 98.9 278 98.6 278 98.2V97.3H280.8V97.3ZM273.9 108.3C276.3 108.3 278 106.4 278 103.9C278 101.4 276.3 99.5 273.9 99.5C271.5 99.5 269.8 101.4 269.8 103.9C269.8 106.4 271.5 108.3 273.9 108.3Z" fill="white"></path> <path d="M288.6 110.4H285.7V99.7H283.7V97.3H288.6V110.4ZM286.9 90.5C288 90.5 289 91.4 289 92.6C289 93.7 288.1 94.6 286.9 94.6C285.8 94.6 284.9 93.7 284.9 92.6C284.9 91.4 285.8 90.5 286.9 90.5Z" fill="white"></path> <path d="M300.3 101.6C300.3 100.2 299.2 99.5 297.6 99.5C296.2 99.5 294.9 100.1 293.9 100.9L292.5 98.7C293.6 97.7 295.5 96.9 297.8 96.9C301.3 96.9 303.3 98.8 303.3 101.6V110.4H300.4V109C299.6 110.2 298 110.7 296.6 110.7C293.6 110.7 291.8 109 291.8 106.5C291.8 103.9 293.6 102.5 296.6 102.5H299.4C300.1 102.5 300.3 102.2 300.3 101.7V101.6V101.6ZM300.3 105.6V104.5C300 104.7 299.6 104.8 298.9 104.8H297.1C295.6 104.8 294.8 105.5 294.8 106.6C294.8 107.6 295.6 108.6 297.1 108.6C298.8 108.5 300.3 107.7 300.3 105.6Z" fill="white"></path> </g> <defs> <clipPath id="clip0_2541_6"> <rect width="318.2" height="116.2" fill="white"></rect> </clipPath> </defs> </svg> 