<?xml version="1.0" encoding="UTF-8"?> <svg xmlns="http://www.w3.org/2000/svg" id="Layer_1" height="512" viewBox="0 0 50 50" width="512"> <g> <g> <g> <g> <path d="m38.85831 35.4942-3.82-2.2199-.0553-19.5236 3.8199 2.2199z" fill="#ee5550"></path> </g> <g> <path d="m38.80291 15.9706-3.8199-2.2199 4.2217-2.4374 3.82 2.2199z" fill="#f17572"></path> </g> <g> <path d="m43.02471 13.5332.0553 19.5236-4.2217 2.4374-.0554-19.5236z" fill="#cb4844"></path> </g> </g> <g> <g> <path d="m33.01012 38.8706-3.82-2.2199-.04491-15.8389 3.82 2.2199z" fill="#f9c83a"></path> </g> <g> <path d="m32.96521 23.0317-3.82-2.2199 4.2218-2.4374 3.82 2.2199z" fill="#fed44c"></path> </g> <g> <path d="m37.18701 20.5943.0449 15.8389-4.22179 2.4374-.04491-15.8389z" fill="#f1bb34"></path> </g> </g> <g> <g> <path d="m27.16191 42.2471-3.8199-2.21991-.0345-12.16069 3.82 2.2199z" fill="#7eb442"></path> </g> <g> <path d="m27.12751 30.0864-3.82-2.2199 4.2218-2.4375 3.8199 2.2199z" fill="#97c269"></path> </g> <g> <path d="m31.34921 27.6489.0345 12.1607-4.2218 2.4375-.0344-12.1607z" fill="#6b993f"></path> </g> </g> <g> <g> <path d="m21.31381 45.6235-3.82-2.21991-.024-8.47599 3.8199 2.2199z" fill="#4bb5e7"></path> </g> <g> <path d="m21.28971 37.1475-3.8199-2.2199 4.2217-2.4375 3.82 2.22z" fill="#61c4f0"></path> </g> <g> <path d="m25.51151 34.7101.024 8.476-4.2217 2.4374-.0241-8.476z" fill="#269dd6"></path> </g> </g> <g> <g> <path d="m15.46561 49-3.82-2.22001-.0136-4.79779 3.82 2.2199z" fill="#cfd8dd"></path> </g> <g> <path d="m15.45201 44.2021-3.82-2.2199 4.2218-2.4374 3.8199 2.2199z" fill="#dde4e7"></path> </g> <g> <path d="m19.67371 41.7647.0136 4.7978-4.2217 2.4375-.0136-4.7979z" fill="#b0b8bc"></path> </g> </g> </g> <g> <g> <g> <path d="m37.46641 9.37-3.82-2.2199.4866.2043 3.8199 2.2199z" fill="#878d90"></path> </g> <g> <path d="m12.98601 41.0006-3.81989-2.2199.29179-.8227 3.82 2.2199z" fill="#8189c3"></path> </g> <path d="m37.46801 9.3739c-6.27 11.9405-21.9101 29.5103-24.0301 30.7403-.07.04-.12.06-.1599.06l-3.82-2.2202c.0399 0 .0899-.02.1599-.0601 2.12-1.2299 17.76-18.7998 24.0301-30.7397z" fill="#616ab1"></path> <g> <path d="m37.46641 9.37.4865.2043c-5.7055 10.8778-21.5892 29.5496-24.6091 31.2931-.1533.0885-.2746.1367-.3578.1332l.2919-.8227c.0389-.0057.0916-.0282.1567-.0658 2.1193-1.2236 17.7683-18.799 24.0318-30.7421z" fill="#525ba8"></path> </g> </g> </g> <g> <g> <g> <path d="m38.68231 1 .5266.105 1.4003 9.8577-.5266-.1051z" fill="#525ba8"></path> </g> <g> <path d="m38.68231 1 1.4003 9.8576-9.1299-5.2711z" fill="#616ab1"></path> </g> </g> </g> <g> <g> <g> <g> <g> <g> <g> <path d="m10.46281 31.1021 2.4724 1.4393c.5516.3211 1.2086.4565 1.9408.3913.4663-.0401.9628-.1655 1.4844-.3812.2808-.1154.56671-.2557.8575-.4263 3.325-1.9157 6.018-6.5847 6.008-10.3961 0 0 0 0 0-.0049v-.1354c-.0201-.8977-.1905-1.66-.4814-2.2817-.13039-.2709-.2809-.5167-.45639-.7322-.23571-.2909-.51151-.5319-.82241-.7124l-2.4724-1.4342c.3109.1805.5867.4163.8224.7121.1756.2106.326.4565.45141.7273.29579.6217.46639 1.3892.48139 2.2817 0 .0451.005.0904.005.1406.01 3.8163-2.683 8.4802-6.0079 10.4009-.2909.1656-.5818.3059-.8626.4215-.5166.2154-1.013.3408-1.4794.3859-.7322.0654-1.3892-.0752-1.9408-.3962z" fill="#fed44c"></path> </g> <g> <path d="m10.46151 31.1045 2.4742 1.4378c-1.0819-.6286-1.75359-1.9637-1.759-3.8591l-2.4742-1.4378c.0054 1.8954.6772 3.2304 1.759 3.8591z" fill="#f9c83a"></path> </g> <g> <path d="m21.46601 17.8647-2.4742-1.4379c-1.0962-.637-2.61369-.5486-4.2861.417l2.4741 1.4379c1.6725-.9656 3.19-1.0541 4.2862-.417z" fill="#f9c83a"></path> </g> <g> <path d="m17.17981 18.2817-2.4741-1.4379c-3.3204 1.9171-6.014 6.5824-6.0032 10.4016l2.4742 1.4378c-.0108-3.8191 2.6828-8.4845 6.0031-10.4015z" fill="#f9c83a"></path> </g> <g> <path d="m16.59621 17.8352c-3.3204 1.917-6.014 6.5824-6.00309 10.4015.01079 3.8154 2.722 5.3603 6.04239 3.4433 3.3235-1.9189 6.0171-6.5843 6.0063-10.3996-.0108-3.8192-2.722-5.3641-6.0456-3.4452z" fill="#e2ac2f"></path> </g> <g> <path d="m25.00571 20.6991c.014 4.9521-3.4711 10.9848-7.7808 13.473-4.30979 2.4882-7.8144.4911-7.8285-4.461-.014-4.9524 3.4679-10.987 7.7776-13.4752 4.3098-2.4883 7.8177-.4892 7.8317 4.4632zm-7.78659 11.4274c3.32359-1.9189 6.01719-6.5842 6.00629-10.3996-.0108-3.8192-2.722-5.3641-6.0456-3.4452-3.3203 1.917-6.0139 6.5824-6.0031 10.4015.0108 3.8154 2.722 5.3603 6.04241 3.4433" fill="#f9c83a"></path> </g> </g> </g> </g> <g> <path d="m6.92001 28.2734c.01 2.4624.8776 4.1924 2.2768 5.0049l2.4774 1.4394c-1.4042-.8177-2.2718-2.5477-2.2768-5.005-.0151-4.9547 3.4653-10.9879 7.7782-13.4753 2.16651-1.2538 4.1324-1.3691 5.5516-.5466l-2.4724-1.4344c-1.4192-.8275-3.3851-.7121-5.5566.5416-4.3079 2.4874-7.7883 8.5206-7.7782 13.4754z" fill="#fed44c"></path> </g> </g> <path d="m12.35831 31.8294-.1414.4768.2925-.4022.5233.9643-.1711-1.0837.4768.1413-.4022-.2925.9642-.5232-1.0837.1711.14141-.4768-.29251.4022-.5233-.9642.1712 1.0836-.4769-.1413.4023.2924-.9643.5234z" fill="#fff"></path> </g> <g> <g> <g> <path d="m17.12681 30.0355-.5095-.2961-.0023-.7956.5096.2962z" fill="#f9c83a"></path> </g> <g> <path d="m17.72841 27.7384-.5096-.2961c.3022-.2117.542-.451.7169-.7195l.5096.2961c-.1749.2685-.4147.5078-.7169.7195z" fill="#fed44c"></path> </g> <g> <path d="m18.00861 25.4636.50951.2961c.12659.0736.19019.2318.19079.4749.0008.2545-.0863.5147-.2636.7843l-.5096-.2961c.1773-.2697.26441-.5298.2637-.7844-.0007-.243-.06429-.4013-.1908-.4748z" fill="#fed44c"></path> </g> <g> <path d="m18.92571 24.052.5095.2961c-.0275-.016-.0564-.0301-.0867-.0422l-.5096-.2961c.0303.0121.05921.0261.0868.0422z" fill="#f9c83a"></path> </g> <g> <path d="m17.12121 28.0545-.5095-.2962-.006-2.1085.5096.2961z" fill="#f9c83a"></path> </g> <g> <path d="m17.74671 24.4364-.5095-.2961c.7253-.2222 1.2592-.2648 1.6017-.1305l.5096.2961c-.3425-.1343-.8765-.0917-1.6018.1305z" fill="#f9c83a"></path> </g> <g> <path d="m17.71901 24.4524-.5095-.2961.0277-.016.5095.2961z" fill="#f9c83a"></path> </g> <g> <path d="m14.79471 29.3977-.50959-.2961.68739-1.3454.50961.2961z" fill="#f9c83a"></path> </g> <g> <path d="m15.48212 28.0523-.50961-.2961c.5324.224 1.078.2251 1.6392.0021l.5095.2962c-.56109.2229-1.1067.2219-1.63909-.0022z" fill="#fed44c"></path> </g> <g> <path d="m16.39251 24.6153-.5096-.2962c.125.0686.3655.0653.719-.0086l.5096.2961c-.3536.0739-.594.0773-.719.0087z" fill="#f9c83a"></path> </g> <g> <path d="m16.38612 24.6117-.50961-.2962.0064.0036.5096.2962z" fill="#f9c83a"></path> </g> <g> <path d="m17.11151 24.6066-.5096-.2961-.0054-1.8804.50961.2961z" fill="#f9c83a"></path> </g> <g> <path d="m17.70991 21.2221-.5096-.2962c.6926-.3415 1.3512-.448 1.9711-.3198l.5096.2961c-.61989-.1282-1.2785-.0216-1.9711.3199z" fill="#fed44c"></path> </g> <g> <path d="m17.10281 21.5619-.5096-.2961-.0015-.5438.5096.2961z" fill="#f9c83a"></path> </g> <g> <path d="m17.10131 21.0181-.5096-.2961.607-.3505.5096.2962z" fill="#fed44c"></path> </g> <g> <path d="m15.45851 26.0346-.5096-.2961c-.2736-.1591-.4113-.5213-.4129-1.0907-.0018-.6259.1884-1.2483.56811-1.8688.382-.6191.87759-1.123 1.48909-1.5132l.5096.2961c-.6115.3902-1.1071.8942-1.4892 1.5132-.3797.6205-.5698 1.2429-.568 1.8688.0016.5694.1392.9317.4129 1.0907z" fill="#fed44c"></path> </g> <g> <path d="m19.34851 24.3059c.3425.137.5124.5251.5142 1.1589.0018.6339-.19059 1.2629-.5819 1.8873-.3889.6257-.9053 1.1417-1.5492 1.5479l.0023.7851-.6071.3504-.0022-.7955c-.86349.3975-1.64249.4515-2.3299.1577l.68741-1.3454c.53239.2241 1.078.2251 1.63909.0022l-.0059-2.1086c-.7138.2155-1.23619.2594-1.5671.1317-.3333-.129-.5008-.5052-.5026-1.1337-.0018-.6259.1883-1.2483.568-1.8688.3821-.619.8777-1.123 1.4892-1.5132l-.0015-.5438.607-.3504.0016.5544c.6926-.3415 1.35121-.4481 1.9711-.3199l-.6134 1.3557c-.4164-.0997-.8694-.0506-1.3544.1497l.0058 2.0448.0277-.016c.7253-.2222 1.2593-.2648 1.6018-.1305zm-.9032 2.713c.1773-.2696.2644-.5298.2636-.7843-.0007-.2547-.0705-.4163-.2094-.4849-.1389-.0685-.3978-.0571-.7767.0288l.0056 1.9599c.3022-.2117.542-.451.7169-.7195m-1.3338-2.4123-.00539-1.8804c-.28381.193-.50511.4165-.66621.6742-.1611.2551-.239.5045-.2383.746.0007.2439.06351.399.1909.4689.125.0686.3654.0652.719-.0087" fill="#f1bb34"></path> </g> </g> </g> </g> </g> </svg> 