<?xml version="1.0" encoding="UTF-8"?> <svg xmlns="http://www.w3.org/2000/svg" width="512" height="512" viewBox="0 0 512 512" fill="none"> <path d="M71.322 69.8837L71.4245 23.8037C71.4245 22.0637 72.0389 20.7337 73.0626 20.2187C73.1651 20.1187 73.2676 20.1187 73.3695 20.1187L83.2001 14.2787C84.2245 13.6637 85.6576 13.7687 87.1939 14.6887L127.335 37.8337C130.406 39.5737 132.865 43.8737 132.865 47.4587L132.762 93.5387C132.66 95.2787 132.045 96.5087 131.123 97.1237L121.088 102.959L120.986 103.064C119.962 103.574 118.528 103.574 116.992 102.654L76.8514 79.5087C73.7795 77.6637 71.322 73.3637 71.322 69.8837V69.8837Z" fill="#E4E8F4"></path> <path d="M40.4995 203.414L40.602 157.234C40.602 155.489 41.2164 154.264 42.2401 153.749C42.3426 153.649 42.4451 153.649 42.5476 153.649L52.3776 147.809C53.5045 147.194 54.8351 147.299 56.3714 148.219L96.512 171.364C99.5845 173.104 102.145 177.404 102.042 180.989L101.94 227.069C101.94 228.809 101.325 230.039 100.301 230.654L90.4708 236.284C89.4464 237.104 87.8083 237.204 86.1695 236.184L46.1314 213.039C42.957 211.194 40.4995 206.894 40.4995 203.414V203.414Z" fill="#E4E8F4"></path> <path d="M120.064 182.934L120.166 136.854C120.166 135.009 120.883 133.784 121.908 133.269C121.908 133.269 121.908 133.269 122.009 133.169L131.943 127.329C132.966 126.819 134.4 126.819 135.936 127.739L176.077 150.884C179.149 152.724 181.606 157.024 181.606 160.509L181.504 206.589C181.504 208.434 180.889 209.659 179.866 210.174L170.035 215.904C169.933 216.009 169.831 216.114 169.728 216.114C168.704 216.724 167.271 216.624 165.734 215.704L125.594 192.559C122.522 190.819 120.064 186.519 120.064 182.934V182.934Z" fill="#E4E8F4"></path> <path d="M495.769 267.619L495.668 313.699C495.565 315.439 494.951 316.669 494.029 317.284L483.789 323.224C483.891 323.119 483.994 323.119 483.994 323.014C483.891 323.119 483.789 323.119 483.584 323.224L483.379 379.234C483.379 380.874 482.765 381.999 481.843 382.614L475.494 386.299C476.006 385.994 476.314 385.584 476.621 384.969C475.802 386.299 474.471 386.814 472.628 385.994C473.856 386.814 474.471 387.734 474.573 388.759L474.471 403.399C474.471 404.529 473.754 405.654 472.423 406.474L369.203 466.479L294.554 500.374C291.686 501.909 286.976 501.909 284.109 500.374L18.4832 346.979C16.9476 346.159 16.2307 345.034 16.2307 343.904L16.3332 338.994C16.3332 338.994 16.3332 338.889 16.3332 338.784H16.4351C16.4351 337.659 17.152 336.634 18.4832 335.919L196.352 232.494C199.014 230.959 203.418 230.959 206.285 232.394C203.418 230.654 201.063 226.659 201.165 223.279L201.677 17.6587C201.677 15.8137 202.496 14.5887 203.623 14.1787L209.459 10.7987C210.381 10.2887 211.712 10.3887 213.146 11.1037L379.648 107.259L379.751 83.9137C379.751 82.0687 380.365 80.8387 381.389 80.3287C381.491 80.2237 381.594 80.2237 381.696 80.2237L391.526 74.3887C392.551 73.8787 393.984 73.8787 395.52 74.7987L435.661 97.9437C438.733 99.7837 441.191 104.084 441.191 107.569L441.088 142.689L478.669 164.399C481.639 166.139 483.994 170.234 483.994 173.614L483.789 254.304L490.138 257.994C493.209 259.734 495.769 264.034 495.769 267.619V267.619Z" fill="#E4E8F4"></path> <path d="M474.596 388.709L474.506 403.436C474.506 404.516 473.783 405.694 472.428 406.505L369.202 466.48L294.573 500.323C291.683 501.95 286.986 501.95 284.096 500.323L18.4427 346.947C16.9977 346.136 16.2749 345.051 16.2749 343.877L16.3653 338.667C16.3653 339.752 17.0881 340.925 18.5331 341.741L284.096 495.117C286.986 496.74 291.773 496.74 294.573 495.117L472.428 391.783C473.873 390.967 474.596 389.794 474.596 388.709V388.709Z" fill="#CAD0DD"></path> <path d="M472.411 385.899C475.294 387.564 475.309 390.295 472.446 391.959L294.598 495.312C291.732 496.978 287.018 496.978 284.134 495.313L18.5019 341.951C15.6184 340.286 15.6039 337.555 18.47 335.889L196.317 232.536C199.18 230.872 203.895 230.872 206.778 232.536L472.411 385.899Z" fill="#E4E8F4"></path> <path d="M483.958 173.565L483.416 379.24C483.416 380.868 482.784 382.041 481.881 382.583L475.467 386.288C476.461 385.746 477.002 384.568 477.002 382.945L477.635 177.27C477.635 173.926 475.286 169.864 472.396 168.144L206.834 14.8613C205.388 13.9571 204.034 13.9571 203.04 14.4996L209.453 10.7948C210.356 10.2567 211.711 10.3449 213.157 11.1564L478.719 164.444C481.609 166.16 483.958 170.226 483.958 173.565V173.565Z" fill="#E4E8F4"></path> <path d="M472.538 167.957C475.422 169.622 477.779 173.702 477.769 177.017L477.186 382.714C477.177 386.025 474.804 387.378 471.921 385.713L206.346 232.383C203.405 230.685 201.106 226.636 201.115 223.324L201.698 17.6272C201.708 14.3123 204.022 12.9297 206.964 14.6278L472.538 167.957ZM473.956 380.849L474.539 175.152C474.543 173.894 473.681 172.334 472.528 171.668L206.953 18.3381C205.8 17.6723 204.874 18.2001 204.87 19.4585L204.287 225.155C204.283 226.479 205.203 228.007 206.357 228.673L471.931 382.003C473.085 382.669 473.953 382.172 473.956 380.849Z" fill="#E4E8F4"></path> <path d="M472.54 171.625L206.978 18.3421C205.803 17.707 204.9 18.1613 204.9 19.4227L204.268 225.191C204.268 226.457 205.171 227.991 206.345 228.715L471.907 381.998C473.081 382.633 473.985 382.179 473.985 380.825L474.527 175.149C474.527 173.883 473.714 172.348 472.54 171.625V171.625ZM464.681 269.631L464.41 360.951L213.932 216.339L214.474 33.7877L464.952 178.4L464.681 269.631Z" fill="#5B5E71"></path> <path d="M214.474 33.7877L213.932 216.339L464.41 360.951L464.952 178.4L214.474 33.7877Z" fill="#748BFD"></path> <path d="M218.272 248.094C219.438 248.77 219.388 249.829 218.281 250.469L212.752 253.668C211.592 254.339 209.818 254.336 208.652 253.66L196.77 246.769C195.604 246.092 195.6 245.065 196.761 244.394L202.289 241.195C203.396 240.555 205.223 240.527 206.389 241.203L218.272 248.094Z" fill="#5B5E71"></path> <path d="M207.05 254.586C208.216 255.263 208.163 256.323 207.059 256.961L195.172 263.839C194.065 264.479 192.237 264.507 191.071 263.831L179.189 256.94C178.023 256.264 178.073 255.205 179.18 254.565L191.068 247.687C192.171 247.049 194.002 247.019 195.168 247.695L207.05 254.586Z" fill="#5B5E71"></path> <path d="M290.401 289.924C291.512 290.568 291.517 291.658 290.41 292.299L284.882 295.497C283.721 296.169 281.892 296.133 280.781 295.489L268.843 288.566C267.733 287.922 267.729 286.895 268.89 286.223L274.418 283.025C275.525 282.384 277.352 282.356 278.463 283L290.401 289.924Z" fill="#5B5E71"></path> <path d="M272.355 279.458C273.521 280.135 273.47 281.193 272.363 281.833L266.835 285.032C265.674 285.703 263.901 285.7 262.735 285.024L250.852 278.133C249.686 277.457 249.683 276.429 250.844 275.758L256.372 272.559C257.479 271.919 259.306 271.891 260.472 272.567L272.355 279.458Z" fill="#5B5E71"></path> <path d="M259.301 284.888C260.467 285.564 260.413 286.624 259.309 287.263L247.422 294.141C246.315 294.781 244.488 294.809 243.322 294.133L231.439 287.242C230.273 286.565 230.323 285.507 231.43 284.866L243.318 277.989C244.422 277.35 246.252 277.321 247.418 277.997L259.301 284.888Z" fill="#5B5E71"></path> <path d="M308.447 300.389C309.558 301.033 309.563 302.124 308.456 302.764L302.927 305.963C301.767 306.634 299.938 306.599 298.827 305.955L286.889 299.032C285.779 298.388 285.719 297.328 286.88 296.656L292.409 293.458C293.515 292.818 295.398 292.822 296.509 293.466L308.447 300.389Z" fill="#5B5E71"></path> <path d="M328.986 325.301C330.097 325.945 330.099 327.037 328.995 327.676L317.108 334.553C316.001 335.194 314.118 335.189 313.007 334.545L301.069 327.622C299.959 326.978 299.954 325.887 301.061 325.247L312.948 318.37C314.052 317.731 315.938 317.733 317.048 318.377L328.986 325.301Z" fill="#5B5E71"></path> <path d="M362.53 331.753C363.64 332.397 363.645 333.488 362.538 334.128L357.01 337.327C355.849 337.998 354.021 337.963 352.91 337.319L340.972 330.396C339.861 329.752 339.802 328.692 340.963 328.021L346.491 324.822C347.598 324.182 349.481 324.186 350.592 324.83L362.53 331.753Z" fill="#5B5E71"></path> <path d="M346.422 335.412C347.532 336.056 347.479 337.116 346.375 337.755L334.487 344.632C333.381 345.273 331.553 345.301 330.443 344.657L318.505 337.733C317.338 337.057 317.389 335.999 318.496 335.358L330.383 328.481C331.487 327.842 333.318 327.812 334.484 328.489L346.422 335.412Z" fill="#5B5E71"></path> <path d="M198.627 269.495C199.737 270.139 199.742 271.23 198.635 271.87L186.748 278.748C185.644 279.386 183.758 279.384 182.648 278.74L162.103 266.825C160.937 266.149 160.99 265.089 162.094 264.45L173.982 257.573C175.089 256.932 176.916 256.904 178.082 257.58L198.627 269.495Z" fill="#5B5E71"></path> <path d="M215.729 279.413C216.84 280.057 216.845 281.148 215.738 281.788L203.85 288.666C202.746 289.304 200.861 289.302 199.75 288.658L187.812 281.734C186.701 281.09 186.699 279.998 187.803 279.359L199.691 272.482C200.798 271.842 202.68 271.846 203.791 272.49L215.729 279.413Z" fill="#5B5E71"></path> <path d="M232.775 289.299C233.886 289.943 233.891 291.034 232.784 291.674L220.897 298.551C219.793 299.19 217.907 299.188 216.796 298.544L204.914 291.652C203.748 290.976 203.801 289.916 204.905 289.277L216.793 282.4C217.899 281.759 219.727 281.732 220.893 282.408L232.775 289.299Z" fill="#5B5E71"></path> <path d="M202.922 291.776C204.032 292.42 203.979 293.48 202.875 294.119L190.987 300.996C189.88 301.637 188.107 301.633 186.997 300.989L175.058 294.066C173.948 293.422 173.889 292.363 174.996 291.722L186.883 284.845C187.987 284.206 189.873 284.209 190.983 284.853L202.922 291.776Z" fill="#5B5E71"></path> <path d="M276.736 294.999C277.847 295.643 277.849 296.736 276.745 297.374L264.857 304.252C263.751 304.892 261.868 304.888 260.757 304.244L248.819 297.321C247.708 296.677 247.703 295.586 248.81 294.946L260.698 288.068C261.802 287.429 263.687 287.432 264.798 288.076L276.736 294.999Z" fill="#5B5E71"></path> <path d="M176.452 296.219C177.562 296.863 177.512 297.921 176.405 298.562L164.574 305.406C163.414 306.078 161.64 306.075 160.53 305.431L128.658 286.947C127.547 286.303 127.488 285.244 128.649 284.572L140.479 277.727C141.586 277.087 143.469 277.091 144.58 277.735L176.452 296.219Z" fill="#5B5E71"></path> <path d="M250.211 299.41C251.321 300.054 251.326 301.145 250.22 301.785L238.332 308.663C237.228 309.301 235.342 309.299 234.232 308.655L222.294 301.732C221.183 301.087 221.181 299.995 222.285 299.357L234.173 292.479C235.279 291.839 237.162 291.843 238.273 292.487L250.211 299.41Z" fill="#5B5E71"></path> <path d="M219.968 301.662C221.079 302.306 221.081 303.398 219.977 304.037L208.089 310.914C206.982 311.555 205.154 311.519 204.043 310.875L192.105 303.952C190.994 303.308 190.935 302.248 192.042 301.608L203.93 294.731C205.034 294.092 206.919 294.094 208.03 294.738L219.968 301.662Z" fill="#5B5E71"></path> <path d="M294.172 305.11C295.282 305.754 295.229 306.815 294.125 307.453L282.237 314.331C281.13 314.971 279.303 314.999 278.193 314.355L266.254 307.432C265.144 306.788 265.139 305.697 266.246 305.057L278.133 298.179C279.237 297.541 281.123 297.543 282.233 298.187L294.172 305.11Z" fill="#5B5E71"></path> <path d="M194.997 306.331C196.163 307.007 196.11 308.068 195.006 308.706L183.119 315.584C182.012 316.224 180.184 316.252 179.018 315.576L167.136 308.685C166.025 308.041 166.02 306.95 167.127 306.31L179.014 299.432C180.118 298.793 182.004 298.796 183.115 299.44L194.997 306.331Z" fill="#5B5E71"></path> <path d="M267.591 309.489C268.757 310.165 268.706 311.224 267.599 311.864L255.712 318.742C254.608 319.38 252.778 319.41 251.612 318.734L239.729 311.843C238.619 311.199 238.616 310.106 239.72 309.468L251.608 302.59C252.715 301.95 254.598 301.954 255.708 302.598L267.591 309.489Z" fill="#5B5E71"></path> <path d="M237.403 311.773C238.514 312.417 238.516 313.509 237.412 314.148L225.525 321.026C224.418 321.666 222.589 321.63 221.478 320.986L209.54 314.063C208.43 313.419 208.371 312.36 209.477 311.719L221.365 304.842C222.469 304.203 224.355 304.206 225.465 304.85L237.403 311.773Z" fill="#5B5E71"></path> <path d="M173.03 314.602C174.141 315.246 174.2 316.305 173.039 316.977L159.715 324.686C158.608 325.326 156.725 325.322 155.614 324.678L143.732 317.787C142.566 317.11 142.616 316.052 143.723 315.412L157.047 307.703C158.208 307.031 159.982 307.034 161.148 307.711L173.03 314.602Z" fill="#5B5E71"></path> <path d="M212.433 316.442C213.599 317.119 213.545 318.179 212.441 318.817L200.554 325.695C199.447 326.335 197.62 326.363 196.454 325.687L184.571 318.796C183.405 318.12 183.455 317.061 184.562 316.421L196.45 309.543C197.554 308.905 199.384 308.875 200.55 309.551L212.433 316.442Z" fill="#5B5E71"></path> <path d="M285.026 319.601C286.192 320.277 286.141 321.335 285.035 321.975L273.147 328.853C272.043 329.492 270.213 329.521 269.047 328.845L257.164 321.954C255.998 321.278 256.052 320.218 257.156 319.579L269.043 312.702C270.15 312.061 271.977 312.033 273.143 312.709L285.026 319.601Z" fill="#5B5E71"></path> <path d="M254.783 321.852C255.949 322.528 255.896 323.588 254.792 324.227L242.904 331.105C241.797 331.745 240.024 331.742 238.858 331.065L226.975 324.174C225.809 323.498 225.806 322.471 226.913 321.831L238.8 314.953C239.904 314.314 241.734 314.285 242.9 314.961L254.783 321.852Z" fill="#5B5E71"></path> <path d="M229.868 326.554C230.978 327.198 230.98 328.29 229.876 328.929L217.989 335.806C216.882 336.447 214.999 336.442 213.889 335.798L201.951 328.875C200.84 328.231 200.835 327.14 201.942 326.5L213.829 319.622C214.933 318.984 216.819 318.986 217.93 319.63L229.868 326.554Z" fill="#5B5E71"></path> <path d="M194.186 326.871C195.296 327.515 195.3 328.542 194.139 329.213L180.814 336.922C179.708 337.563 177.88 337.591 176.77 336.947L161.056 327.834C159.945 327.19 159.94 326.099 161.047 325.459L174.372 317.75C175.532 317.078 177.361 317.114 178.472 317.758L194.186 326.871Z" fill="#5B5E71"></path> <path d="M302.461 329.712C303.572 330.356 303.577 331.446 302.47 332.087L290.582 338.964C289.479 339.603 287.593 339.6 286.482 338.956L274.544 332.033C273.434 331.389 273.431 330.297 274.535 329.658L286.423 322.78C287.53 322.14 289.413 322.144 290.523 322.788L302.461 329.712Z" fill="#5B5E71"></path> <path d="M272.219 331.963C273.329 332.607 273.331 333.7 272.227 334.338L260.34 341.216C259.233 341.856 257.404 341.821 256.294 341.177L244.356 334.254C243.245 333.609 243.186 332.55 244.293 331.91L256.18 325.032C257.284 324.393 259.17 324.396 260.281 325.04L272.219 331.963Z" fill="#5B5E71"></path> <path d="M247.303 336.665C248.414 337.309 248.416 338.401 247.312 339.04L235.424 345.918C234.318 346.558 232.435 346.554 231.324 345.91L219.386 338.986C218.275 338.342 218.27 337.252 219.377 336.611L231.265 329.734C232.369 329.095 234.254 329.098 235.365 329.742L247.303 336.665Z" fill="#5B5E71"></path> <path d="M380.576 342.219C381.686 342.863 381.692 343.954 380.585 344.594L375.056 347.792C373.896 348.464 372.067 348.428 370.956 347.784L359.018 340.861C357.907 340.217 357.848 339.158 359.009 338.486L364.537 335.288C365.644 334.647 367.527 334.652 368.638 335.296L380.576 342.219Z" fill="#5B5E71"></path> <path d="M319.896 339.823C321.007 340.467 320.957 341.525 319.85 342.166L307.962 349.043C306.858 349.682 305.028 349.712 303.917 349.068L291.979 342.144C290.813 341.468 290.867 340.408 291.97 339.769L303.858 332.892C304.965 332.251 306.792 332.223 307.958 332.9L319.896 339.823Z" fill="#5B5E71"></path> <path d="M289.598 342.042C290.764 342.719 290.711 343.779 289.607 344.417L277.72 351.295C276.613 351.935 274.839 351.932 273.673 351.256L261.791 344.365C260.68 343.721 260.621 342.661 261.728 342.021L273.616 335.143C274.719 334.505 276.605 334.507 277.716 335.151L289.598 342.042Z" fill="#5B5E71"></path> <path d="M363.802 345.491C364.968 346.167 364.914 347.227 363.81 347.866L351.923 354.744C350.816 355.384 348.989 355.412 347.823 354.736L335.94 347.845C334.774 347.168 334.824 346.11 335.931 345.47L347.819 338.592C348.923 337.953 350.753 337.924 351.919 338.6L363.802 345.491Z" fill="#5B5E71"></path> <path d="M264.683 346.744C265.849 347.42 265.795 348.48 264.691 349.119L252.804 355.997C251.697 356.637 249.87 356.665 248.704 355.989L236.821 349.098C235.655 348.421 235.706 347.363 236.812 346.723L248.7 339.845C249.804 339.206 251.634 339.177 252.8 339.853L264.683 346.744Z" fill="#5B5E71"></path> <path d="M398.566 352.652C399.733 353.328 399.682 354.387 398.575 355.027L393.047 358.226C391.886 358.897 390.113 358.894 388.947 358.218L377.064 351.327C375.898 350.65 375.894 349.623 377.055 348.952L382.584 345.753C383.69 345.113 385.518 345.085 386.684 345.761L398.566 352.652Z" fill="#5B5E71"></path> <path d="M337.276 349.902C338.387 350.546 338.392 351.637 337.285 352.277L325.398 359.155C324.294 359.793 322.408 359.791 321.297 359.147L309.415 352.256C308.249 351.579 308.302 350.519 309.406 349.881L321.294 343.003C322.4 342.363 324.228 342.335 325.394 343.011L337.276 349.902Z" fill="#5B5E71"></path> <path d="M307.034 352.154C308.2 352.83 308.146 353.89 307.042 354.529L295.155 361.406C294.048 362.046 292.275 362.043 291.109 361.367L279.226 354.476C278.06 353.8 278.056 352.773 279.163 352.132L291.051 345.255C292.155 344.616 293.985 344.586 295.151 345.262L307.034 352.154Z" fill="#5B5E71"></path> <path d="M381.237 355.602C382.347 356.246 382.35 357.339 381.246 357.977L369.358 364.855C368.251 365.495 366.368 365.491 365.258 364.847L353.32 357.924C352.209 357.28 352.204 356.189 353.311 355.549L365.199 348.671C366.302 348.032 368.188 348.035 369.299 348.679L381.237 355.602Z" fill="#5B5E71"></path> <path d="M282.118 356.855C283.229 357.499 283.231 358.592 282.127 359.23L270.24 366.108C269.133 366.748 267.25 366.744 266.139 366.1L254.201 359.177C253.091 358.533 253.141 357.474 254.248 356.834L266.135 349.956C267.239 349.318 269.07 349.288 270.18 349.932L282.118 356.855Z" fill="#5B5E71"></path> <path d="M416.613 363.118C417.723 363.762 417.728 364.852 416.621 365.493L411.093 368.691C409.932 369.363 408.103 369.327 406.993 368.683L395.055 361.76C393.944 361.116 393.94 360.089 395.101 359.417L400.63 356.219C401.736 355.578 403.564 355.55 404.674 356.194L416.613 363.118Z" fill="#5B5E71"></path> <path d="M354.711 360.013C355.822 360.657 355.827 361.748 354.72 362.388L342.833 369.266C341.729 369.904 339.843 369.902 338.732 369.258L326.794 362.335C325.684 361.691 325.682 360.598 326.785 359.96L338.673 353.082C339.78 352.442 341.663 352.446 342.773 353.09L354.711 360.013Z" fill="#5B5E71"></path> <path d="M324.469 362.265C325.579 362.909 325.582 364.001 324.478 364.64L312.59 371.517C311.483 372.158 309.654 372.122 308.544 371.478L296.606 364.555C295.495 363.911 295.436 362.852 296.543 362.211L308.43 355.334C309.534 354.695 311.42 354.698 312.531 355.342L324.469 362.265Z" fill="#5B5E71"></path> <path d="M398.617 365.681C399.783 366.358 399.729 367.418 398.625 368.056L386.738 374.934C385.631 375.574 383.804 375.602 382.638 374.926L370.755 368.035C369.645 367.391 369.64 366.3 370.746 365.66L382.634 358.782C383.738 358.144 385.624 358.146 386.734 358.79L398.617 365.681Z" fill="#5B5E71"></path> <path d="M299.553 366.966C300.664 367.61 300.61 368.671 299.507 369.309L287.619 376.187C286.512 376.827 284.685 376.855 283.574 376.211L271.636 369.288C270.526 368.644 270.521 367.553 271.627 366.913L283.515 360.035C284.619 359.396 286.505 359.399 287.615 360.043L299.553 366.966Z" fill="#5B5E71"></path> <path d="M434.659 373.583C435.769 374.227 435.774 375.318 434.667 375.958L429.139 379.156C427.978 379.828 426.15 379.793 425.039 379.149L413.101 372.225C411.99 371.581 411.931 370.522 413.092 369.85L418.62 366.652C419.727 366.011 421.61 366.016 422.721 366.66L434.659 373.583Z" fill="#5B5E71"></path> <path d="M372.092 370.092C373.258 370.769 373.207 371.827 372.1 372.467L360.213 379.345C359.109 379.983 357.279 380.013 356.112 379.337L344.23 372.446C343.119 371.802 343.117 370.71 344.221 370.071L356.109 363.193C357.215 362.553 359.098 362.557 360.209 363.201L372.092 370.092Z" fill="#5B5E71"></path> <path d="M341.904 372.376C343.015 373.02 343.017 374.112 341.913 374.751L330.025 381.629C328.919 382.269 327.09 382.234 325.979 381.59L314.041 374.666C312.931 374.022 312.871 372.963 313.978 372.322L325.866 365.445C326.97 364.806 328.856 364.809 329.966 365.453L341.904 372.376Z" fill="#5B5E71"></path> <path d="M415.719 375.599C416.829 376.243 416.831 377.336 415.728 377.974L403.84 384.852C402.733 385.492 400.85 385.488 399.74 384.844L387.802 377.921C386.691 377.277 386.686 376.186 387.793 375.546L399.681 368.668C400.784 368.03 402.67 368.032 403.781 368.676L415.719 375.599Z" fill="#5B5E71"></path> <path d="M281.14 377.298C282.251 377.942 282.31 379.001 281.149 379.673L267.824 387.382C266.717 388.022 264.835 388.018 263.724 387.374L182.6 340.328C181.49 339.684 181.484 338.593 182.591 337.953L195.916 330.244C197.076 329.572 198.905 329.608 200.016 330.252L281.14 377.298Z" fill="#5B5E71"></path> <path d="M389.527 380.204C390.693 380.88 390.642 381.938 389.535 382.579L377.648 389.456C376.544 390.095 374.714 390.124 373.548 389.448L361.609 382.525C360.499 381.881 360.552 380.821 361.656 380.182L373.544 373.305C374.651 372.664 376.478 372.636 377.588 373.28L389.527 380.204Z" fill="#5B5E71"></path> <path d="M359.284 382.455C360.45 383.131 360.397 384.191 359.293 384.83L347.405 391.708C346.298 392.348 344.525 392.345 343.359 391.669L331.476 384.777C330.31 384.101 330.307 383.074 331.414 382.434L343.301 375.556C344.405 374.917 346.235 374.888 347.402 375.564L359.284 382.455Z" fill="#5B5E71"></path> <path d="M334.369 387.157C335.479 387.801 335.481 388.893 334.377 389.532L322.49 396.409C321.383 397.05 319.5 397.046 318.39 396.402L306.451 389.478C305.341 388.834 305.336 387.744 306.443 387.103L318.33 380.226C319.434 379.587 321.32 379.589 322.43 380.234L334.369 387.157Z" fill="#5B5E71"></path> <path d="M406.962 390.315C408.073 390.959 408.077 392.049 406.971 392.69L395.083 399.567C393.979 400.206 392.094 400.204 390.983 399.559L379.045 392.636C377.934 391.992 377.932 390.9 379.036 390.261L390.924 383.383C392.03 382.743 393.913 382.747 395.024 383.391L406.962 390.315Z" fill="#5B5E71"></path> <path d="M441.483 390.541C442.594 391.185 442.54 392.245 441.436 392.884L429.549 399.761C428.442 400.402 426.615 400.43 425.504 399.786L404.904 387.839C403.794 387.195 403.788 386.104 404.895 385.464L416.783 378.586C417.887 377.948 419.773 377.95 420.883 378.594L441.483 390.541Z" fill="#5B5E71"></path> <path d="M302.462 389.663C303.573 390.307 303.632 391.367 302.471 392.038L289.147 399.747C288.04 400.388 286.157 400.383 285.046 399.739L269.388 390.659C268.222 389.982 268.272 388.924 269.379 388.283L282.704 380.575C283.864 379.903 285.638 379.906 286.804 380.583L302.462 389.663Z" fill="#5B5E71"></path> <path d="M376.719 392.566C377.83 393.21 377.832 394.303 376.728 394.941L364.841 401.819C363.734 402.459 361.905 402.424 360.794 401.78L348.856 394.857C347.746 394.213 347.687 393.153 348.793 392.513L360.681 385.635C361.785 384.996 363.671 384.999 364.781 385.643L376.719 392.566Z" fill="#5B5E71"></path> <path d="M351.748 397.236C352.914 397.912 352.861 398.972 351.757 399.611L339.869 406.488C338.762 407.129 336.935 407.157 335.769 406.48L323.886 399.589C322.72 398.913 322.771 397.855 323.878 397.214L335.765 390.337C336.869 389.698 338.699 389.668 339.866 390.345L351.748 397.236Z" fill="#5B5E71"></path> <path d="M424.397 400.426C425.508 401.07 425.457 402.128 424.35 402.769L412.463 409.646C411.359 410.285 409.529 410.315 408.418 409.671L396.48 402.747C395.314 402.071 395.367 401.011 396.471 400.372L408.359 393.495C409.466 392.854 411.293 392.826 412.459 393.503L424.397 400.426Z" fill="#5B5E71"></path> <path d="M320.73 400.258C321.897 400.934 321.9 401.961 320.739 402.633L307.415 410.342C306.308 410.982 304.481 411.01 303.315 410.334L291.099 403.249C289.988 402.605 289.983 401.515 291.09 400.874L304.415 393.165C305.575 392.494 307.404 392.529 308.515 393.173L320.73 400.258Z" fill="#5B5E71"></path> <path d="M407.037 410.148C408.147 410.792 408.149 411.885 407.045 412.523L395.158 419.401C394.051 420.041 392.222 420.006 391.112 419.362L366.458 405.064C365.292 404.388 365.288 403.361 366.395 402.721L378.283 395.843C379.386 395.204 381.217 395.175 382.383 395.851L407.037 410.148Z" fill="#5B5E71"></path> <path d="M330.535 414.784C331.701 415.46 331.704 416.487 330.543 417.159L324.85 420.453C323.743 421.093 321.916 421.121 320.75 420.445L308.534 413.361C307.368 412.684 307.418 411.626 308.525 410.985L314.219 407.692C315.379 407.02 317.153 407.023 318.319 407.7L330.535 414.784Z" fill="#5B5E71"></path> <path d="M389.951 420.033C391.061 420.678 391.066 421.768 389.959 422.408L378.129 429.253C376.968 429.925 375.139 429.889 374.029 429.245L340.768 409.957C339.658 409.313 339.599 408.253 340.76 407.581L352.59 400.737C353.697 400.096 355.58 400.101 356.69 400.745L389.951 420.033Z" fill="#5B5E71"></path> <path d="M355.601 420.48C356.712 421.124 356.771 422.184 355.61 422.855L342.285 430.564C341.179 431.204 339.296 431.2 338.185 430.556L325.914 423.44C324.803 422.796 324.798 421.705 325.905 421.064L339.229 413.356C340.39 412.684 342.219 412.72 343.33 413.364L355.601 420.48Z" fill="#5B5E71"></path> <path d="M365.572 435.103C366.738 435.779 366.741 436.806 365.58 437.478L359.887 440.772C358.78 441.412 356.953 441.44 355.787 440.764L343.571 433.68C342.405 433.003 342.456 431.945 343.562 431.304L349.256 428.011C350.417 427.339 352.19 427.342 353.356 428.018L365.572 435.103Z" fill="#5B5E71"></path> <path d="M185.653 281.761C186.763 282.405 186.766 283.498 185.662 284.136L173.774 291.014C172.667 291.654 170.838 291.619 169.728 290.975L145.074 276.677C143.908 276.001 143.904 274.974 145.011 274.334L156.899 267.456C158.003 266.817 159.833 266.788 160.999 267.464L185.653 281.761Z" fill="#5B5E71"></path> <path d="M254.364 269.025C255.475 269.669 255.424 270.727 254.317 271.368L248.789 274.566C247.628 275.238 245.855 275.235 244.744 274.591L232.806 267.667C231.696 267.023 231.637 265.964 232.798 265.292L238.326 262.094C239.433 261.453 241.316 261.458 242.426 262.102L254.364 269.025Z" fill="#5B5E71"></path> <path d="M236.318 258.56C237.429 259.204 237.434 260.294 236.327 260.935L230.798 264.133C229.638 264.805 227.809 264.769 226.698 264.125L214.76 257.202C213.65 256.558 213.591 255.498 214.751 254.827L220.28 251.628C221.387 250.988 223.269 250.992 224.38 251.636L236.318 258.56Z" fill="#5B5E71"></path> <path d="M241.921 274.809C243.032 275.453 243.034 276.545 241.93 277.184L230.042 284.062C228.935 284.702 227.053 284.698 225.942 284.054L214.004 277.13C212.893 276.486 212.888 275.396 213.995 274.755L225.883 267.878C226.986 267.239 228.872 267.242 229.983 267.886L241.921 274.809Z" fill="#5B5E71"></path> <path d="M224.486 264.698C225.596 265.342 225.598 266.434 224.494 267.073L212.607 273.95C211.5 274.591 209.617 274.586 208.507 273.942L196.568 267.019C195.458 266.375 195.453 265.284 196.56 264.644L208.447 257.767C209.551 257.128 211.437 257.13 212.547 257.774L224.486 264.698Z" fill="#5B5E71"></path> <path d="M138.326 294.476C139.437 295.12 139.496 296.179 138.335 296.851L125.011 304.56C123.904 305.2 122.021 305.196 120.91 304.552L108.972 297.629C107.862 296.985 107.912 295.926 109.019 295.286L122.343 287.577C123.504 286.905 125.277 286.909 126.388 287.553L138.326 294.476Z" fill="#5B5E71"></path> <path d="M155.706 304.555C156.816 305.199 156.875 306.258 155.714 306.93L142.39 314.639C141.283 315.279 139.401 315.275 138.29 314.631L126.352 307.708C125.241 307.064 125.236 305.973 126.343 305.333L139.667 297.624C140.828 296.952 142.657 296.988 143.768 297.632L155.706 304.555Z" fill="#5B5E71"></path> <path d="M344.484 321.288C345.65 321.964 345.599 323.023 344.492 323.663L338.964 326.861C337.803 327.533 336.03 327.53 334.864 326.854L322.981 319.962C321.815 319.286 321.812 318.259 322.972 317.587L328.501 314.389C329.608 313.749 331.435 313.721 332.601 314.397L344.484 321.288Z" fill="#5B5E71"></path> <path d="M326.438 310.823C327.604 311.499 327.553 312.557 326.446 313.197L320.918 316.396C319.757 317.068 317.984 317.064 316.818 316.388L304.935 309.497C303.825 308.853 303.766 307.794 304.926 307.122L310.455 303.924C311.562 303.283 313.444 303.287 314.555 303.931L326.438 310.823Z" fill="#5B5E71"></path> <path d="M311.551 315.19C312.717 315.866 312.664 316.926 311.56 317.565L299.672 324.442C298.565 325.082 296.738 325.111 295.572 324.434L283.689 317.543C282.523 316.867 282.574 315.809 283.681 315.168L295.568 308.291C296.672 307.652 298.502 307.622 299.668 308.298L311.551 315.19Z" fill="#5B5E71"></path> <path d="M452.705 384.049C453.815 384.693 453.764 385.751 452.658 386.391L447.129 389.59C445.968 390.261 444.195 390.258 443.085 389.614L431.147 382.691C429.98 382.015 429.977 380.987 431.138 380.316L436.666 377.117C437.773 376.477 439.6 376.449 440.766 377.125L452.705 384.049Z" fill="#5B5E71"></path> <path d="M316.933 377.046C318.099 377.722 318.046 378.782 316.942 379.42L305.054 386.298C303.947 386.938 302.12 386.967 300.954 386.29L289.071 379.399C287.905 378.723 287.956 377.665 289.063 377.024L300.95 370.147C302.054 369.508 303.884 369.478 305.05 370.154L316.933 377.046Z" fill="#5B5E71"></path> <path d="M261.164 398.595C263.196 399.769 263.208 401.621 261.188 402.795L208.97 433.14C206.95 434.314 203.75 434.315 201.717 433.142L111.444 381.093C109.447 379.94 109.402 378.066 111.422 376.892L163.64 346.547C165.66 345.373 168.894 345.394 170.891 346.547L261.164 398.595Z" fill="#CAD0DD"></path> <path d="M452.68 407.825L452.699 414.387L467.347 405.929L467.329 399.368L452.68 407.825Z" fill="#5B5E71"></path> <path d="M435.494 417.748L435.513 424.309L450.161 415.852L450.143 409.29L435.494 417.748Z" fill="#5B5E71"></path> <path d="M234.09 76.5991L234.082 79.2892L225.473 74.3184L225.48 71.6282L234.09 76.5991Z" fill="#ED435C"></path> <path d="M290.508 123.859L290.5 126.548L233.221 93.4784L233.229 90.7893L290.508 123.859Z" fill="#E4E8F4"></path> <path d="M250.793 93.5967L250.786 96.2666L233.242 86.1375L233.249 83.4676L250.793 93.5967Z" fill="#E4E8F4"></path> <path d="M254.542 81.0734L254.534 83.7635L225.493 66.9967L225.501 64.3066L254.542 81.0734Z" fill="#E4E8F4"></path> <path d="M254.563 73.7517L254.555 76.4407L225.514 59.6739L225.522 56.9849L254.563 73.7517Z" fill="#EFAC41"></path> <path d="M333.249 148.536L333.241 151.225L294.156 128.659L294.163 125.97L333.249 148.536Z" fill="#ED435C"></path> <path d="M251.401 108.615L251.394 111.304L233.2 100.8L233.208 98.111L251.401 108.615Z" fill="#ED435C"></path> <path d="M232.424 127.014L232.417 129.703L225.327 125.61L225.335 122.921L232.424 127.014Z" fill="#ED435C"></path> <path d="M264.33 189.477L264.322 192.166L249.802 183.783L249.81 181.094L264.33 189.477Z" fill="#3C5DD6"></path> <path d="M239.991 168.091L239.983 170.78L225.223 162.259L225.231 159.569L239.991 168.091Z" fill="#ED435C"></path> <path d="M247.111 179.535L247.103 182.224L225.203 169.58L225.21 166.891L247.111 179.535Z" fill="#E4E8F4"></path> <path d="M262.164 180.893L262.157 183.582L242.255 172.092L242.263 169.403L262.164 180.893Z" fill="#EFAC41"></path> <path d="M248.718 143.775L248.71 146.444L225.307 132.932L225.314 130.262L248.718 143.775Z" fill="#E4E8F4"></path> <path d="M267.109 169.06L267.101 171.749L225.265 147.595L225.273 144.906L267.109 169.06Z" fill="#E4E8F4"></path> <path d="M272.032 164.569L272.024 167.258L225.286 140.273L225.293 137.584L272.032 164.569Z" fill="#E4E8F4"></path> <path d="M266.044 146.424L266.036 149.113L235.56 131.517L235.568 128.828L266.044 146.424Z" fill="#E4E8F4"></path> <path d="M266.064 139.102L266.057 141.791L225.348 118.288L225.356 115.599L266.064 139.102Z" fill="#E4E8F4"></path> <path d="M281.039 162.435L281.031 165.105L251.085 147.815L251.092 145.146L281.039 162.435Z" fill="#3C5DD6"></path> <path d="M262.224 129.551L262.217 132.24L233.158 115.464L233.166 112.775L262.224 129.551Z" fill="#E4E8F4"></path> <path d="M259.136 120.414L259.128 123.104L233.179 108.123L233.187 105.433L259.136 120.414Z" fill="#3C5DD6"></path> <path d="M305.093 139.614L305.085 142.303L254.058 112.843L254.066 110.154L305.093 139.614Z" fill="#E4E8F4"></path> <path d="M311.393 150.585L311.385 153.275L262.238 124.899L262.245 122.209L311.393 150.585Z" fill="#E4E8F4"></path> <path d="M333.228 155.858L333.221 158.547L310.962 145.696L310.969 143.007L333.228 155.858Z" fill="#E4E8F4"></path> <path d="M333.27 141.214L333.262 143.884L279.109 112.619L279.117 109.949L333.27 141.214Z" fill="#E4E8F4"></path> <path d="M276.913 108.677L276.906 111.347L257.09 99.906L257.097 97.2361L276.913 108.677Z" fill="#EFAC41"></path> <path d="M333.208 163.18L333.2 165.87L315.246 155.504L315.253 152.814L333.208 163.18Z" fill="#E4E8F4"></path> <path d="M261.954 224.794L261.947 227.483L232.889 210.706L232.896 208.017L261.954 224.794Z" fill="#3C5DD6"></path> <path d="M273.677 224.228L273.669 226.917L232.909 203.385L232.917 200.696L273.677 224.228Z" fill="#E4E8F4"></path> <path d="M253.506 205.249L253.498 207.938L232.93 196.063L232.938 193.374L253.506 205.249Z" fill="#E4E8F4"></path> <path d="M282.004 214.368L281.996 217.037L252.955 200.27L252.963 197.602L282.004 214.368Z" fill="#E4E8F4"></path> <path d="M300.73 217.826L300.722 220.515L277.319 207.003L277.326 204.314L300.73 217.826Z" fill="#E4E8F4"></path> <path d="M341.846 212.21L341.839 214.899L286.217 182.785L286.224 180.096L341.846 212.21Z" fill="#ED435C"></path> <path d="M274.747 202.825L274.739 205.514L262.986 198.728L262.994 196.039L274.747 202.825Z" fill="#E4E8F4"></path> <path d="M297.034 193.671L297.027 196.36L272.051 181.941L272.059 179.252L297.034 193.671Z" fill="#E4E8F4"></path> <path d="M410.093 251.612L410.085 254.301L383.606 239.014L383.614 236.324L410.093 251.612Z" fill="#EFAC41"></path> <path d="M315.066 218.77L315.059 221.459L284.771 203.972L284.778 201.283L315.066 218.77Z" fill="#E4E8F4"></path> <path d="M335.928 223.481L335.921 226.17L283.237 195.753L283.245 193.064L335.928 223.481Z" fill="#ED435C"></path> <path d="M353.537 240.981L353.529 243.67L319.107 223.796L319.115 221.107L353.537 240.981Z" fill="#E4E8F4"></path> <path d="M365.082 254.98L365.074 257.669L304.037 222.429L304.044 219.74L365.082 254.98Z" fill="#EFAC41"></path> <path d="M386.384 267.278L386.376 269.968L370.028 260.529L370.036 257.84L386.384 267.278Z" fill="#ED435C"></path> <path d="M373.6 237.876L373.592 240.565L301.434 198.905L301.442 196.216L373.6 237.876Z" fill="#E4E8F4"></path> <path d="M380.129 234.312L380.122 237.001L344.042 216.171L344.05 213.482L380.129 234.312Z" fill="#E4E8F4"></path> <path d="M396.709 258.573L396.702 261.262L339.047 227.975L339.054 225.285L396.709 258.573Z" fill="#E4E8F4"></path> <path d="M410.031 273.597L410.023 276.286L356.929 245.632L356.937 242.943L410.031 273.597Z" fill="#E4E8F4"></path> <path d="M410.051 266.275L410.044 268.964L399.726 263.007L399.733 260.318L410.051 266.275Z" fill="#E4E8F4"></path> <path d="M410.072 258.933L410.064 261.622L376.24 242.094L376.248 239.405L410.072 258.933Z" fill="#E4E8F4"></path> <path d="M322.324 193.605L322.317 196.294L275.919 169.507L275.927 166.818L322.324 193.605Z" fill="#E4E8F4"></path> <path d="M102.067 180.966L101.958 227.051C101.922 228.819 101.309 230.045 100.336 230.622L90.1664 236.537C91.1401 235.959 91.7892 234.734 91.7892 232.966L91.8975 186.88C91.9336 183.346 89.4093 179.018 86.3439 177.252L46.2439 154.1C44.6933 153.198 43.2869 153.126 42.2412 153.703L52.4105 147.789C53.4562 147.213 54.8626 147.285 56.4132 148.187L96.5132 171.338C99.5785 173.141 102.103 177.432 102.067 180.966V180.966Z" fill="#F9BB4A"></path> <path d="M86.3327 177.251C89.4179 179.032 91.9194 183.337 91.9094 186.883L91.7787 232.97C91.7687 236.515 89.2509 237.923 86.1657 236.141L46.0813 212.999C42.9961 211.217 40.4946 206.912 40.5047 203.367L40.6353 157.28C40.6454 153.734 43.163 152.327 46.2482 154.108L86.3327 177.251Z" fill="#EFAC41"></path> <path d="M62.7692 173.695L62.7536 179.195L62.006 178.764C61.1088 178.246 60.3604 178.07 59.9102 178.413C59.3852 178.623 59.1587 179.356 59.1558 180.386L59.1353 187.601C59.1309 189.149 58.9034 190.138 58.5275 190.607C58.0768 191.122 57.4025 191.251 56.5043 191.073C57.4005 191.936 58.072 192.842 58.5182 193.87C58.89 194.86 59.1112 196.108 59.1068 197.655L59.0866 204.787C59.0834 205.901 59.3054 206.804 59.8272 207.708C60.2742 208.484 61.0209 209.256 61.9181 209.774L62.6657 210.205L62.6504 215.622L60.3327 214.283C57.9402 212.902 56.0729 211.133 54.8807 209.067C53.6134 206.959 53.0209 204.637 53.0282 202.059L53.0511 193.986L52.607 192.096L51.3376 190.845L50.0664 190.111L50.082 184.611L51.3532 185.345L52.6255 185.566L53.0786 184.277L53.1018 176.116C53.1091 173.538 53.7128 171.907 54.9878 171.266C56.1879 170.582 58.059 170.976 60.4515 172.357L62.7692 173.695Z" fill="white"></path> <path d="M72.2646 179.177C74.7319 180.602 76.5244 182.323 77.7917 184.432C79.0587 186.541 79.6514 188.862 79.6441 191.44L79.621 199.602L80.065 201.408L81.3347 202.655L82.6056 203.388L82.5901 208.888L81.3192 208.155L80.0465 207.938L79.5934 209.311L79.5705 217.384C79.5632 219.961 78.9593 221.592 77.6845 222.233C76.4094 222.874 74.613 222.528 72.1457 221.104L69.9028 219.809L69.9182 214.393L70.6658 214.824C71.563 215.342 72.2369 215.39 72.7619 215.175C73.212 214.833 73.5134 214.232 73.5165 213.118L73.5367 205.987C73.5412 204.439 73.6939 203.407 74.1446 202.892C74.5952 202.382 75.195 202.21 76.168 202.426C75.197 201.525 74.6001 200.662 74.1538 199.629C73.7073 198.685 73.5609 197.48 73.5653 195.933L73.5857 188.717C73.5887 187.687 73.2919 186.652 72.8449 185.88C72.3231 184.977 71.651 184.332 70.7537 183.814L70.0061 183.382L70.0217 177.882L72.2646 179.177Z" fill="white"></path> <path d="M132.848 47.4458L132.74 93.5312C132.704 95.299 132.091 96.5246 131.117 97.1021L120.948 103.017C121.921 102.439 122.57 101.214 122.57 99.4457L122.679 53.3603C122.715 49.8264 120.191 45.4984 117.125 43.7323L77.0252 20.5796C75.4746 19.678 74.0682 19.6058 73.0225 20.1834L83.1917 14.2689C84.2374 13.6931 85.6439 13.7653 87.1945 14.6668L127.294 37.8178C130.36 39.6208 132.884 43.9119 132.848 47.4458V47.4458Z" fill="#75CA75"></path> <path d="M117.114 43.7308C120.199 45.5121 122.701 49.8173 122.691 53.3626L122.56 99.4498C122.55 102.995 120.032 104.402 116.947 102.621L76.8625 79.4785C73.7773 77.6972 71.2759 73.392 71.2859 69.8467L71.4166 23.7595C71.4266 20.2142 73.9443 18.8068 77.0295 20.588L117.114 43.7308Z" fill="#65AA65"></path> <path d="M99.7692 41.6951L99.7536 47.1952L99.006 46.7635C98.1088 46.2455 97.3604 46.0702 96.9102 46.4126C96.3852 46.623 96.1587 47.3559 96.1558 48.386L96.1353 55.6014C96.1309 57.1489 95.9034 58.138 95.5275 58.6073C95.0768 59.1221 94.4025 59.251 93.5043 59.0733C94.4005 59.9362 95.072 60.842 95.5182 61.8701C95.89 62.8597 96.1112 64.1079 96.1068 65.6554L96.0866 72.7868C96.0834 73.9008 96.3054 74.804 96.8272 75.7075C97.2742 76.4838 98.0209 77.2557 98.9181 77.7737L99.6657 78.2054L99.6504 83.6216L97.3327 82.2834C94.9402 80.9021 93.0729 79.1331 91.8807 77.0675C90.6134 74.9585 90.0209 72.637 90.0282 70.0594L90.0511 61.9864L89.607 60.0959L88.3376 58.8448L87.0664 58.1109L87.082 52.6108L88.3532 53.3447L89.6255 53.5657L90.0786 52.2773L90.1018 44.1158C90.1091 41.5382 90.7128 39.9072 91.9878 39.2661C93.1879 38.5816 95.059 38.9757 97.4515 40.357L99.7692 41.6951Z" fill="white"></path> <path d="M181.6 160.549L181.492 206.634C181.456 208.402 180.843 209.628 179.869 210.205L169.7 216.12C170.673 215.542 171.322 214.317 171.322 212.549L171.431 166.463C171.467 162.929 168.942 158.601 165.877 156.835L125.777 133.683C124.227 132.781 122.82 132.709 121.774 133.286L131.944 127.372C132.989 126.796 134.396 126.868 135.946 127.77L176.046 150.921C179.112 152.724 181.636 157.015 181.6 160.549Z" fill="#EBC5B2"></path> <path d="M165.866 156.834C168.951 158.615 171.453 162.92 171.443 166.466L171.312 212.553C171.302 216.098 168.784 217.505 165.699 215.724L125.614 192.581C122.529 190.8 120.028 186.495 120.038 182.95L120.169 136.862C120.179 133.317 122.696 131.91 125.781 133.691L165.866 156.834Z" fill="#DDAF9B"></path> <path d="M137.745 163.291L137.733 167.744L127.346 166.14L137.708 176.446L137.696 180.899L122.927 165.853L122.94 161.262L137.745 163.291Z" fill="white"></path> <path d="M153.213 163.438L142.862 191.157L138.569 188.678L148.92 160.96L153.213 163.438Z" fill="white"></path> <path d="M153.785 172.551L168.553 187.597L168.54 192.188L153.735 190.159L153.747 185.706L164.075 187.346L153.772 177.004L153.785 172.551Z" fill="white"></path> <path d="M495.733 267.601L495.625 313.687C495.589 315.455 494.976 316.68 494.002 317.258L483.833 323.172C484.807 322.595 485.456 321.369 485.456 319.601L485.564 273.516C485.6 269.982 483.076 265.654 480.01 263.888L439.91 240.735C438.36 239.833 436.953 239.761 435.908 240.339L446.077 234.424C447.123 233.849 448.529 233.921 450.08 234.822L490.18 257.973C493.245 259.776 495.769 264.067 495.733 267.601V267.601Z" fill="#F25574"></path> <path d="M479.999 263.886C483.084 265.668 485.586 269.973 485.576 273.518L485.445 319.605C485.435 323.151 482.917 324.558 479.832 322.777L439.748 299.634C436.663 297.853 434.161 293.548 434.171 290.002L434.302 243.915C434.312 240.37 436.83 238.962 439.915 240.744L479.999 263.886Z" fill="#ED435C"></path> <path d="M450.745 269.291L450.733 273.744L440.346 272.14L450.708 282.446L450.696 286.899L435.927 271.853L435.94 267.262L450.745 269.291Z" fill="white"></path> <path d="M466.213 269.438L455.862 297.157L451.569 294.678L461.92 266.959L466.213 269.438Z" fill="white"></path> <path d="M466.785 278.551L481.553 293.597L481.54 298.188L466.735 296.159L466.747 291.706L477.075 293.346L466.772 283.004L466.785 278.551Z" fill="white"></path> <path d="M441.196 107.581L441.088 153.666C441.051 155.434 440.439 156.66 439.465 157.237L429.296 163.152C430.269 162.574 430.918 161.349 430.918 159.581L431.027 113.496C431.063 109.962 428.538 105.634 425.473 103.868L385.373 80.7148C383.822 79.8133 382.416 79.7411 381.37 80.3186L391.54 74.4041C392.585 73.8283 393.992 73.9005 395.542 74.8021L435.642 97.953C438.708 99.7561 441.232 104.047 441.196 107.581V107.581Z" fill="#576CFB"></path> <path d="M425.462 103.866C428.547 105.647 431.049 109.953 431.039 113.498L430.908 159.585C430.898 163.13 428.38 164.538 425.295 162.757L385.21 139.614C382.125 137.832 379.624 133.527 379.634 129.982L379.764 83.8948C379.775 80.3495 382.292 78.9421 385.377 80.7233L425.462 103.866Z" fill="#4562EF"></path> <path d="M401.769 98.6951L401.754 104.195L401.006 103.764C400.109 103.246 399.36 103.07 398.91 103.413C398.385 103.623 398.159 104.356 398.156 105.386L398.135 112.601C398.131 114.149 397.903 115.138 397.527 115.607C397.077 116.122 396.402 116.251 395.504 116.073C396.401 116.936 397.072 117.842 397.518 118.87C397.89 119.86 398.111 121.108 398.107 122.655L398.087 129.787C398.083 130.901 398.305 131.804 398.827 132.708C399.274 133.484 400.021 134.256 400.918 134.774L401.666 135.205L401.65 140.622L399.333 139.283C396.94 137.902 395.073 136.133 393.881 134.067C392.613 131.959 392.021 129.637 392.028 127.059L392.051 118.986L391.607 117.096L390.338 115.845L389.066 115.111L389.082 109.611L390.353 110.345L391.626 110.566L392.079 109.277L392.102 101.116C392.109 98.5382 392.713 96.9072 393.988 96.2661C395.188 95.5816 397.059 95.9757 399.452 97.357L401.769 98.6951Z" fill="white"></path> <path d="M411.265 104.177C413.732 105.602 415.524 107.323 416.792 109.432C418.059 111.541 418.651 113.862 418.644 116.44L418.621 124.602L419.065 126.408L420.335 127.655L421.606 128.388L421.59 133.888L420.319 133.155L419.047 132.938L418.593 134.311L418.571 142.384C418.563 144.961 417.959 146.592 416.684 147.233C415.409 147.874 413.613 147.528 411.146 146.104L408.903 144.809L408.918 139.393L409.666 139.824C410.563 140.342 411.237 140.39 411.762 140.175C412.212 139.833 412.513 139.232 412.517 138.118L412.537 130.987C412.541 129.439 412.694 128.407 413.145 127.892C413.595 127.382 414.195 127.21 415.168 127.426C414.197 126.525 413.6 125.662 413.154 124.629C412.707 123.685 412.561 122.48 412.565 120.933L412.586 113.717C412.589 112.687 412.292 111.652 411.845 110.88C411.323 109.977 410.651 109.332 409.754 108.814L409.006 108.382L409.022 102.882L411.265 104.177Z" fill="white"></path> <path d="M122.113 101.694C122.398 101.089 122.558 100.334 122.56 99.4487L122.622 77.7037L122.571 99.4437C122.571 100.339 122.402 101.089 122.113 101.694V101.694Z" fill="#E4E8F4"></path> </svg> 