<?xml version="1.0" encoding="UTF-8"?> <svg xmlns="http://www.w3.org/2000/svg" width="512" height="512" viewBox="0 0 512 512" fill="none"> <path d="M477.811 327.408L461.209 336.818L459.584 254.406L478.053 243.937L477.811 327.408Z" fill="#C4C2C0"></path> <path d="M468.314 182.739C473.796 185.906 478.182 193.541 478.182 199.836L478.053 243.937L459.584 254.405L458.719 210.525C458.719 204.23 454.333 196.595 448.851 193.428L404.298 167.707L423.462 156.845L468.314 182.739Z" fill="#D6D4D2"></path> <path d="M477.654 381.201L462.256 389.927L461.209 336.817L477.811 327.408L477.654 381.201Z" fill="#E9E8E6"></path> <path d="M423.462 156.845L404.298 167.707L329.019 124.248L348.183 113.387L423.462 156.845Z" fill="#C4C2C0"></path> <path d="M348.183 113.387L329.019 124.248L261.363 85.1901L280.527 74.3285L348.183 113.387Z" fill="#D6D4D2"></path> <path d="M213.566 39.0597C215.352 38.0046 217.87 38.1668 220.632 39.7499L280.527 74.3285L261.363 85.1901L201.169 50.4387C198.408 48.815 199.954 46.7312 198.167 47.7872L213.566 39.0597Z" fill="#E9E8E6"></path> <path d="M194.78 235.495L462.266 389.936L462.804 208.565C462.804 202.261 458.405 194.637 452.931 191.46L205.239 48.4551C199.765 45.2788 195.318 47.8203 195.269 54.1246L194.78 235.495Z" fill="#494846"></path> <path d="M462.256 389.922L462.175 407.142L305.379 498.162C299.937 501.329 291.125 501.329 285.642 498.162L37.9606 355.173C35.1992 353.589 33.8183 351.477 33.8183 349.406L33.8996 332.337C33.8996 334.408 35.2805 336.479 38.0419 338.062L462.256 389.922Z" fill="#B2B0AF"></path> <path d="M33.8994 332.337C33.8994 334.407 35.2803 336.478 38.0419 338.063L402.774 382.65V441.624L305.379 498.161C299.937 501.328 291.125 501.328 285.642 498.161L37.9604 355.172C35.1992 353.589 33.8183 351.477 33.8183 349.406L33.8994 332.337Z" fill="#C4C2C0"></path> <path d="M33.8994 332.337C33.8994 334.407 35.2803 336.478 38.042 338.063L335.816 374.464V480.493L305.379 498.161C299.937 501.328 291.125 501.328 285.642 498.161L37.9604 355.172C35.1992 353.589 33.8184 351.477 33.8184 349.406L33.8994 332.337Z" fill="#D6D4D2"></path> <path d="M33.8994 332.337C33.8994 334.407 35.2802 336.478 38.0419 338.063L234.994 362.14V468.922L37.9604 355.172C35.1992 353.589 33.8183 351.477 33.8183 349.406L33.8994 332.337Z" fill="#C4C2C0"></path> <path d="M33.8994 332.337C33.8994 334.407 35.2803 336.478 38.0419 338.063L93.382 344.827V387.168L37.9604 355.172C35.1992 353.589 33.8183 351.477 33.8183 349.406L33.8994 332.337Z" fill="#B2B0AF"></path> <path d="M462.238 389.912L305.439 481.034C300.003 484.193 291.165 484.193 285.694 481.034L38.027 338.044C32.5303 334.87 32.5015 329.751 37.9368 326.592L194.736 235.47L462.238 389.912Z" fill="#E9E8E6"></path> <path d="M220.409 276.852C220.853 277.108 220.855 277.547 220.414 277.803L209.02 284.425C208.579 284.681 207.821 284.681 207.378 284.425L195.94 277.821C195.465 277.547 195.494 277.126 195.935 276.87L207.33 270.249C207.77 269.992 208.496 269.974 208.972 270.249L220.409 276.852Z" fill="#494846"></path> <path d="M240.432 288.412C240.907 288.687 240.878 289.107 240.438 289.364L229.043 295.985C228.602 296.241 227.876 296.26 227.401 295.985L215.964 289.382C215.52 289.126 215.518 288.687 215.958 288.431L227.353 281.809C227.793 281.553 228.551 281.553 228.995 281.809L240.432 288.412Z" fill="#494846"></path> <path d="M260.487 299.991C260.931 300.247 260.933 300.686 260.492 300.942L249.098 307.564C248.657 307.82 247.899 307.82 247.456 307.564L235.987 300.942C235.543 300.686 235.572 300.265 236.013 300.009L247.408 293.388C247.848 293.132 248.574 293.113 249.018 293.369L260.487 299.991Z" fill="#494846"></path> <path d="M208.915 293.882C209.39 294.156 209.393 294.558 208.921 294.833L197.558 301.436C197.117 301.692 196.391 301.711 195.915 301.436L175.544 289.675C175.069 289.4 175.098 288.98 175.538 288.724L186.901 282.12C187.374 281.846 188.068 281.846 188.544 282.12L208.915 293.882Z" fill="#494846"></path> <path d="M229.255 305.625C229.699 305.881 229.733 306.302 229.261 306.576L217.898 313.18C217.457 313.436 216.699 313.436 216.256 313.18L204.818 306.576C204.343 306.302 204.372 305.881 204.813 305.625L216.176 299.022C216.648 298.747 217.343 298.747 217.818 299.022L229.255 305.625Z" fill="#494846"></path> <path d="M249.722 317.441C250.166 317.698 250.199 318.118 249.727 318.393L238.364 324.996C237.924 325.252 237.166 325.252 236.722 324.996L225.253 318.374C224.81 318.118 224.839 317.698 225.28 317.442L236.643 310.838C237.115 310.564 237.809 310.564 238.253 310.82L249.722 317.441Z" fill="#494846"></path> <path d="M270.189 329.258C270.632 329.514 270.666 329.935 270.194 330.209L258.831 336.812C258.39 337.069 257.632 337.068 257.189 336.812L245.72 330.191C245.277 329.935 245.274 329.496 245.715 329.24L257.078 322.636C257.55 322.362 258.276 322.38 258.72 322.636L270.189 329.258Z" fill="#494846"></path> <path d="M290.655 341.074C291.099 341.33 291.133 341.751 290.661 342.025L279.298 348.629C278.857 348.885 278.099 348.885 277.656 348.629L266.187 342.007C265.743 341.751 265.741 341.312 266.181 341.056L277.544 334.453C278.016 334.178 278.743 334.197 279.186 334.453L290.655 341.074Z" fill="#494846"></path> <path d="M311.09 352.873C311.566 353.147 311.568 353.549 311.096 353.824L299.733 360.427C299.292 360.683 298.566 360.702 298.091 360.427L286.653 353.824C286.21 353.568 286.207 353.129 286.648 352.873L298.011 346.269C298.483 345.995 299.21 346.013 299.653 346.269L311.09 352.873Z" fill="#494846"></path> <path d="M331.557 364.689C332.032 364.963 332.035 365.366 331.562 365.64L320.199 372.244C319.759 372.5 319.033 372.518 318.557 372.244L307.12 365.64C306.677 365.384 306.674 364.945 307.115 364.689L318.478 358.086C318.95 357.811 319.676 357.83 320.12 358.086L331.557 364.689Z" fill="#494846"></path> <path d="M352.024 376.505C352.499 376.78 352.501 377.182 352.029 377.457L340.666 384.06C340.226 384.316 339.499 384.334 339.024 384.06L327.587 377.457C327.112 377.182 327.141 376.762 327.581 376.506L338.944 369.902C339.416 369.628 340.111 369.628 340.586 369.902L352.024 376.505Z" fill="#494846"></path> <path d="M280.51 311.551C280.985 311.826 280.956 312.246 280.515 312.502L269.121 319.124C268.68 319.38 267.954 319.399 267.479 319.124L256.042 312.521C255.566 312.247 255.596 311.826 256.036 311.57L267.431 304.948C267.871 304.692 268.598 304.674 269.073 304.948L280.51 311.551Z" fill="#494846"></path> <path d="M300.565 323.13C301.009 323.386 301.011 323.825 300.57 324.081L289.176 330.703C288.735 330.959 287.977 330.959 287.534 330.703L276.065 324.081C275.621 323.825 275.619 323.386 276.059 323.13L287.454 316.508C287.894 316.252 288.652 316.252 289.096 316.508L300.565 323.13Z" fill="#494846"></path> <path d="M320.588 334.69C321.032 334.946 321.034 335.385 320.593 335.641L309.199 342.263C308.758 342.519 308.001 342.519 307.557 342.263L296.12 335.66C295.644 335.386 295.674 334.965 296.114 334.709L307.509 328.087C307.949 327.831 308.676 327.813 309.151 328.087L320.588 334.69Z" fill="#494846"></path> <path d="M340.611 346.251C341.086 346.525 341.057 346.946 340.617 347.202L329.222 353.824C328.781 354.08 328.055 354.098 327.58 353.824L316.143 347.22C315.699 346.964 315.697 346.525 316.137 346.269L327.532 339.647C327.973 339.391 328.731 339.391 329.174 339.647L340.611 346.251Z" fill="#494846"></path> <path d="M360.666 357.829C361.11 358.086 361.112 358.524 360.671 358.781L349.277 365.402C348.836 365.658 348.079 365.658 347.635 365.402L336.166 358.781C335.722 358.525 335.752 358.104 336.192 357.848L347.587 351.226C348.027 350.97 348.754 350.952 349.197 351.208L360.666 357.829Z" fill="#494846"></path> <path d="M380.689 369.39C381.164 369.664 381.135 370.085 380.695 370.341L369.3 376.963C368.859 377.219 368.133 377.237 367.658 376.963L356.221 370.359C355.746 370.085 355.775 369.664 356.215 369.408L367.61 362.786C368.051 362.53 368.777 362.512 369.252 362.787L380.689 369.39Z" fill="#494846"></path> <path d="M400.744 380.968C401.188 381.224 401.19 381.664 400.75 381.92L389.355 388.541C388.914 388.797 388.156 388.797 387.713 388.541L376.244 381.92C375.801 381.664 375.798 381.225 376.239 380.969L387.633 374.347C388.074 374.091 388.832 374.091 389.275 374.347L400.744 380.968Z" fill="#494846"></path> <path d="M380.316 392.84C380.759 393.096 380.794 393.517 380.321 393.791L368.958 400.395C368.518 400.651 367.76 400.651 367.316 400.395L346.913 388.615C346.438 388.34 346.467 387.92 346.908 387.664L358.271 381.06C358.743 380.786 359.438 380.786 359.913 381.06L380.316 392.84Z" fill="#494846"></path> <path d="M197.58 310.966C198.023 311.222 198.057 311.643 197.585 311.918L186.222 318.521C185.75 318.795 185.024 318.777 184.58 318.521L155.147 301.528C154.672 301.254 154.67 300.851 155.142 300.577L166.505 293.973C166.977 293.699 167.672 293.699 168.147 293.973L197.58 310.966Z" fill="#494846"></path> <path d="M219.662 323.716C220.106 323.972 220.14 324.393 219.667 324.667L208.305 331.27C207.832 331.545 207.106 331.526 206.662 331.27L195.193 324.649C194.75 324.393 194.748 323.99 195.22 323.716L206.583 317.112C207.055 316.838 207.75 316.838 208.193 317.094L219.662 323.716Z" fill="#494846"></path> <path d="M239.685 335.276C240.161 335.55 240.163 335.953 239.691 336.227L228.328 342.831C227.856 343.105 227.161 343.105 226.686 342.831L215.248 336.227C214.773 335.953 214.771 335.551 215.243 335.276L226.606 328.673C227.078 328.398 227.773 328.398 228.248 328.673L239.685 335.276Z" fill="#494846"></path> <path d="M259.74 346.855C260.184 347.111 260.218 347.532 259.746 347.806L248.383 354.409C247.91 354.684 247.184 354.666 246.74 354.409L235.271 347.788C234.828 347.532 234.794 347.111 235.266 346.837L246.629 340.233C247.101 339.959 247.828 339.977 248.271 340.233L259.74 346.855Z" fill="#494846"></path> <path d="M279.763 358.415C280.207 358.671 280.241 359.092 279.769 359.366L268.406 365.97C267.934 366.244 267.207 366.226 266.764 365.97L255.326 359.366C254.851 359.092 254.849 358.69 255.321 358.415L266.684 351.812C267.156 351.537 267.851 351.537 268.326 351.812L279.763 358.415Z" fill="#494846"></path> <path d="M299.787 369.976C300.262 370.25 300.264 370.652 299.792 370.927L288.429 377.53C287.957 377.804 287.262 377.804 286.787 377.53L275.35 370.927C274.906 370.671 274.872 370.25 275.344 369.976L286.707 363.372C287.179 363.098 287.906 363.116 288.349 363.372L299.787 369.976Z" fill="#494846"></path> <path d="M319.841 381.554C320.285 381.81 320.319 382.231 319.847 382.505L308.484 389.109C308.012 389.383 307.285 389.365 306.842 389.109L295.373 382.487C294.929 382.231 294.927 381.829 295.399 381.554L306.762 374.951C307.234 374.677 307.929 374.677 308.372 374.933L319.841 381.554Z" fill="#494846"></path> <path d="M359.919 404.693C360.363 404.949 360.397 405.37 359.925 405.644L348.562 412.248C348.09 412.522 347.363 412.504 346.92 412.248L315.016 393.828C314.54 393.554 314.538 393.151 315.01 392.877L326.373 386.273C326.845 385.999 327.54 385.999 328.015 386.273L359.919 404.693Z" fill="#494846"></path> <path d="M177.907 322.399C178.351 322.655 178.384 323.076 177.912 323.35L166.549 329.953C166.077 330.228 165.351 330.21 164.907 329.953L135.475 312.96C134.999 312.686 134.997 312.284 135.469 312.009L146.832 305.406C147.304 305.131 147.999 305.131 148.474 305.406L177.907 322.399Z" fill="#494846"></path> <path d="M173.784 335.081L286.268 400.028C286.725 400.277 287.431 400.319 287.93 400.028L299.274 393.421C299.772 393.172 299.731 392.715 299.274 392.466L186.791 327.519C186.333 327.27 185.627 327.228 185.128 327.519L173.784 334.125C173.286 334.417 173.327 334.832 173.784 335.081V335.081Z" fill="#494846"></path> <path d="M376.257 383.954L387.718 390.554C388.128 390.81 388.895 390.81 389.356 390.554L400.765 383.954C400.97 383.8 401.072 383.647 401.072 383.493V381.447C401.072 381.6 400.97 381.805 400.765 381.907L389.356 388.559C388.895 388.814 388.179 388.814 387.718 388.559L376.257 381.907C376.001 381.805 375.899 381.6 375.899 381.447V383.442C375.899 383.647 376.001 383.8 376.257 383.954V383.954Z" fill="#21201F"></path> <path d="M380.708 372.339C380.913 372.237 381.015 372.083 381.015 371.879V369.883C381.015 370.037 380.913 370.19 380.708 370.344L369.299 376.944C368.838 377.2 368.122 377.251 367.661 376.944L356.2 370.344C355.995 370.241 355.893 370.037 355.893 369.883V371.93C355.893 372.083 355.995 372.237 356.2 372.39L367.661 378.991C368.122 379.246 368.838 379.246 369.299 378.991L380.708 372.339Z" fill="#21201F"></path> <path d="M340.594 349.212C340.85 349.11 340.953 348.905 340.953 348.752V346.705C340.953 346.91 340.85 347.063 340.594 347.217L329.236 353.817C328.775 354.073 328.059 354.073 327.598 353.817L316.137 347.217C315.932 347.114 315.83 346.91 315.83 346.756L315.779 348.752C315.779 348.956 315.932 349.11 316.137 349.263L327.598 355.864C328.059 356.119 328.775 356.119 329.236 355.864L340.594 349.212Z" fill="#21201F"></path> <path d="M298.076 360.417L286.666 353.817C286.41 353.715 286.307 353.51 286.307 353.357V355.352C286.307 355.557 286.41 355.71 286.666 355.864L298.076 362.464C298.536 362.72 299.303 362.72 299.713 362.464L311.072 355.864C311.328 355.71 311.43 355.557 311.43 355.352V353.357C311.43 353.51 311.328 353.664 311.072 353.817L299.713 360.417C299.303 360.673 298.587 360.724 298.076 360.417Z" fill="#21201F"></path> <path d="M297.462 406.262L297.41 408.206C297.41 408.411 297.564 408.564 297.769 408.667L327.24 425.705C327.701 425.961 328.417 425.961 328.877 425.705L340.236 419.105C340.492 418.951 340.594 418.798 340.594 418.644V416.597C340.594 416.751 340.492 416.956 340.236 417.058L328.877 423.658C328.417 423.965 327.701 423.914 327.24 423.658L297.769 406.671C297.615 406.518 297.462 406.415 297.462 406.262V406.262Z" fill="#21201F"></path> <path d="M300.583 326.085C300.787 325.983 300.89 325.829 300.89 325.624V323.629C300.89 323.783 300.787 323.936 300.583 324.09L289.173 330.69C288.712 330.946 287.996 330.946 287.535 330.69L276.074 324.09C275.819 323.936 275.716 323.783 275.716 323.578V325.624C275.716 325.778 275.819 325.983 276.074 326.085L287.535 332.737C287.996 332.992 288.712 332.992 289.173 332.737L300.583 326.085Z" fill="#21201F"></path> <path d="M360.652 360.827C360.907 360.673 361.01 360.52 361.01 360.315V358.319C361.01 358.473 360.907 358.678 360.652 358.78L349.293 365.38C348.832 365.636 348.065 365.636 347.655 365.38L336.143 358.78C335.938 358.678 335.836 358.473 335.836 358.319V360.366C335.836 360.52 335.938 360.673 336.143 360.827L347.604 367.427C348.065 367.683 348.832 367.683 349.293 367.427L360.652 360.827Z" fill="#21201F"></path> <path d="M319.821 384.516C320.077 384.414 320.179 384.209 320.179 384.056V382.06C320.179 382.214 320.077 382.367 319.872 382.521L308.462 389.121C308.002 389.377 307.286 389.377 306.825 389.121L295.364 382.47C295.159 382.367 295.057 382.214 295.057 382.009V384.056C295.057 384.209 295.159 384.363 295.364 384.516L306.825 391.117C307.286 391.373 308.002 391.424 308.462 391.117L319.821 384.516Z" fill="#21201F"></path> <path d="M320.896 337.188L320.947 335.193C320.947 335.346 320.793 335.5 320.589 335.653L309.179 342.253C308.769 342.509 308.002 342.509 307.541 342.253L296.131 335.653C295.875 335.5 295.773 335.346 295.773 335.193V337.188C295.773 337.393 295.875 337.546 296.131 337.7L307.541 344.3C308.002 344.556 308.769 344.556 309.179 344.3L320.589 337.649C320.793 337.546 320.896 337.342 320.896 337.188V337.188Z" fill="#21201F"></path> <path d="M339.008 384.056L327.598 377.455C327.343 377.302 327.24 377.148 327.24 376.995V378.991C327.24 379.195 327.343 379.349 327.598 379.502L339.008 386.102C339.469 386.359 340.236 386.359 340.646 386.102L352.005 379.502C352.26 379.349 352.363 379.195 352.363 378.991V376.995C352.363 377.148 352.26 377.302 352.005 377.455L340.646 384.056C340.236 384.312 339.52 384.312 339.008 384.056Z" fill="#21201F"></path> <path d="M346.888 390.656L367.303 402.424C367.763 402.68 368.531 402.68 368.94 402.424L380.299 395.824C380.555 395.671 380.657 395.517 380.657 395.364V393.317C380.657 393.47 380.555 393.675 380.299 393.777L368.94 400.378C368.531 400.634 367.763 400.634 367.303 400.378L346.888 388.61C346.683 388.456 346.581 388.303 346.581 388.149V390.145C346.581 390.349 346.683 390.503 346.888 390.656Z" fill="#21201F"></path> <path d="M320.179 374.283L331.538 367.683C331.794 367.529 331.896 367.376 331.896 367.171V365.176C331.896 365.329 331.794 365.483 331.538 365.636L320.179 372.237C319.77 372.492 319.054 372.492 318.542 372.237L307.132 365.636C306.876 365.534 306.774 365.329 306.774 365.176V367.171C306.774 367.376 306.876 367.529 307.132 367.683L318.542 374.283C319.002 374.539 319.77 374.539 320.179 374.283Z" fill="#21201F"></path> <path d="M315.011 395.875L346.939 414.295C347.348 414.551 348.065 414.551 348.576 414.295L359.935 407.643C360.14 407.541 360.242 407.388 360.242 407.183V405.188C360.242 405.341 360.14 405.495 359.935 405.648L348.576 412.248C348.065 412.504 347.348 412.504 346.939 412.248L315.011 393.829C314.756 393.675 314.653 393.522 314.653 393.368V395.364C314.653 395.517 314.756 395.722 315.011 395.875V395.875Z" fill="#21201F"></path> <path d="M288.405 379.553L299.764 372.953C300.02 372.8 300.122 372.646 300.122 372.493V370.446C300.122 370.599 300.02 370.804 299.815 370.906L288.405 377.507C287.945 377.814 287.28 377.814 286.768 377.507L275.358 370.906C275.102 370.804 275 370.599 275 370.446V372.493C275 372.646 275.102 372.8 275.358 372.953L286.768 379.553C287.28 379.809 287.945 379.809 288.405 379.553Z" fill="#21201F"></path> <path d="M260.469 302.958C260.724 302.856 260.827 302.651 260.827 302.498V300.451C260.827 300.656 260.724 300.809 260.469 300.963L249.11 307.563C248.649 307.819 247.882 307.819 247.473 307.563L236.011 300.963C235.756 300.809 235.653 300.656 235.653 300.502V302.498C235.653 302.702 235.756 302.856 235.96 302.958L247.473 309.61C247.882 309.866 248.649 309.866 249.11 309.61L260.469 302.958Z" fill="#21201F"></path> <path d="M228.336 344.863L239.695 338.263C239.9 338.109 240.054 337.956 240.054 337.802V335.755C240.054 335.909 239.9 336.114 239.695 336.216L228.336 342.816C227.876 343.123 227.16 343.123 226.699 342.816L215.238 336.216C215.033 336.114 214.88 335.909 214.88 335.755V337.751C214.88 337.956 214.982 338.109 215.238 338.263L226.699 344.863C227.16 345.119 227.825 345.119 228.336 344.863V344.863Z" fill="#21201F"></path> <path d="M268.399 367.99L279.758 361.39C280.014 361.236 280.116 361.083 280.116 360.929V358.882C280.116 359.087 280.014 359.24 279.758 359.343L268.399 365.994C267.939 366.25 267.223 366.25 266.762 365.994L255.301 359.343C255.148 359.24 254.994 359.087 254.994 358.933L254.943 360.929C254.943 361.083 255.096 361.236 255.301 361.39L266.762 367.99C267.223 368.246 267.939 368.246 268.399 367.99V367.99Z" fill="#21201F"></path> <path d="M257.194 336.83L245.733 330.178C245.477 330.076 245.375 329.871 245.375 329.718V331.713C245.375 331.918 245.477 332.071 245.733 332.225L257.194 338.825C257.603 339.081 258.371 339.081 258.831 338.825L270.19 332.225C270.395 332.123 270.548 331.918 270.548 331.764V329.718C270.548 329.922 270.446 330.076 270.19 330.229L258.831 336.83C258.371 337.086 257.655 337.086 257.194 336.83V336.83Z" fill="#21201F"></path> <path d="M277.66 348.649L266.199 341.998C265.944 341.895 265.841 341.691 265.841 341.537V343.532C265.841 343.737 265.944 343.891 266.199 344.044L277.66 350.645C278.07 350.9 278.837 350.9 279.298 350.645L290.657 344.044C290.861 343.891 291.015 343.737 291.015 343.584V341.537C291.015 341.742 290.912 341.895 290.657 342.049L279.298 348.649C278.837 348.905 278.121 348.905 277.66 348.649V348.649Z" fill="#21201F"></path> <path d="M248.394 356.426L259.752 349.826C259.957 349.672 260.059 349.519 260.059 349.365L260.111 347.319C260.111 347.524 259.957 347.677 259.752 347.831L248.394 354.431C247.933 354.687 247.166 354.687 246.756 354.431L235.295 347.779C235.039 347.677 234.937 347.472 234.937 347.319V349.314C234.937 349.519 235.039 349.672 235.244 349.826L246.756 356.426C247.166 356.682 247.882 356.682 248.394 356.426V356.426Z" fill="#21201F"></path> <path d="M240.412 291.395C240.668 291.241 240.77 291.088 240.77 290.934V288.887C240.77 289.041 240.668 289.246 240.463 289.348L229.053 296C228.592 296.255 227.876 296.255 227.415 296L215.954 289.399C215.75 289.246 215.647 289.092 215.647 288.887V290.934C215.647 291.088 215.75 291.292 215.954 291.395L227.415 297.995C227.876 298.302 228.592 298.251 229.053 297.995L240.412 291.395Z" fill="#21201F"></path> <path d="M280.526 314.521C280.731 314.419 280.833 314.214 280.833 314.061V312.014C280.833 312.219 280.731 312.373 280.526 312.526L269.116 319.127C268.655 319.382 267.939 319.382 267.478 319.127L256.017 312.526C255.812 312.373 255.71 312.219 255.71 312.066V314.061C255.71 314.214 255.812 314.419 256.017 314.521L267.478 321.122C267.939 321.429 268.655 321.378 269.116 321.122L280.526 314.521Z" fill="#21201F"></path> <path d="M236.728 325.011L225.267 318.359C225.113 318.257 224.96 318.154 224.96 318.001L224.908 319.945C224.908 320.099 225.011 320.252 225.267 320.406L236.728 327.006C237.137 327.262 237.904 327.262 238.365 327.006L249.724 320.406C249.929 320.303 250.082 320.099 250.082 319.945V317.899C250.082 318.103 249.98 318.257 249.724 318.41L238.365 325.011C237.904 325.267 237.188 325.267 236.728 325.011V325.011Z" fill="#21201F"></path> <path d="M220.713 279.371L220.764 277.324C220.764 277.529 220.611 277.682 220.406 277.784L208.996 284.436C208.586 284.692 207.819 284.692 207.359 284.436L195.949 277.836C195.693 277.682 195.59 277.529 195.59 277.324V279.371C195.59 279.524 195.693 279.729 195.949 279.831L207.359 286.432C207.819 286.687 208.586 286.687 208.996 286.432L220.406 279.831C220.611 279.678 220.713 279.524 220.713 279.371V279.371Z" fill="#21201F"></path> <path d="M217.899 315.187L229.258 308.586C229.462 308.484 229.616 308.279 229.616 308.126V306.13C229.616 306.284 229.513 306.437 229.258 306.591L217.899 313.191C217.438 313.447 216.722 313.447 216.261 313.191L204.8 306.591C204.596 306.437 204.493 306.284 204.493 306.079L204.442 308.126C204.442 308.279 204.596 308.484 204.8 308.586L216.261 315.187C216.671 315.442 217.438 315.442 217.899 315.187V315.187Z" fill="#21201F"></path> <path d="M173.794 335.09C173.538 334.937 173.436 334.783 173.436 334.578V336.625C173.436 336.779 173.538 336.983 173.794 337.086L286.256 402.066C286.717 402.322 287.433 402.322 287.894 402.066L299.303 395.466C299.508 395.313 299.611 395.159 299.611 394.954V392.959C299.611 393.112 299.508 393.317 299.303 393.419L287.945 400.02C287.433 400.327 286.717 400.275 286.256 400.02L173.794 335.09Z" fill="#21201F"></path> <path d="M208.28 333.299L219.639 326.699C219.894 326.546 219.996 326.392 219.996 326.239V324.192C219.996 324.345 219.894 324.55 219.689 324.652L208.28 331.253C207.819 331.56 207.103 331.509 206.642 331.253L195.181 324.652C194.977 324.499 194.874 324.345 194.874 324.192V326.239C194.874 326.392 194.977 326.546 195.181 326.648L206.642 333.299C207.103 333.555 207.819 333.555 208.28 333.299Z" fill="#21201F"></path> <path d="M195.897 301.423L175.534 289.655C175.329 289.553 175.175 289.348 175.175 289.194V291.241C175.175 291.394 175.277 291.548 175.534 291.702L195.897 303.47C196.409 303.726 197.125 303.726 197.535 303.47L208.893 296.869C209.149 296.716 209.252 296.562 209.252 296.358V294.362C209.252 294.516 209.149 294.72 208.945 294.823L197.535 301.423C197.125 301.679 196.409 301.73 195.897 301.423V301.423Z" fill="#21201F"></path> <path d="M184.59 318.513L155.169 301.526C154.914 301.372 154.811 301.219 154.811 301.065L154.76 303.06C154.76 303.265 154.914 303.419 155.118 303.572L184.59 320.559C184.999 320.815 185.767 320.815 186.227 320.559L197.586 313.959C197.791 313.805 197.944 313.652 197.944 313.447V311.452C197.944 311.605 197.791 311.759 197.586 311.912L186.227 318.513C185.767 318.82 184.999 318.768 184.59 318.513Z" fill="#21201F"></path> <path d="M135.112 312.475V314.522C135.112 314.675 135.215 314.829 135.471 314.982L164.891 331.969C165.351 332.225 166.068 332.225 166.528 331.969L177.887 325.369C178.143 325.215 178.245 325.062 178.245 324.908V322.862C178.245 323.066 178.143 323.22 177.887 323.373L166.528 329.974C166.068 330.23 165.351 330.23 164.891 329.974L135.471 312.935C135.215 312.833 135.112 312.628 135.112 312.475V312.475Z" fill="#21201F"></path> <path d="M340.247 416.126C340.69 416.382 340.724 416.803 340.252 417.077L328.889 423.68C328.417 423.955 327.69 423.936 327.247 423.68L297.783 406.669C297.339 406.413 297.305 405.992 297.777 405.718L309.14 399.114C309.612 398.84 310.339 398.858 310.782 399.114L340.247 416.126Z" fill="#494846"></path> <path d="M216.766 258.653C212.533 256.209 205.646 256.209 201.44 258.653L113.622 309.687C109.417 312.131 109.439 316.12 113.672 318.564L319.403 437.343C323.636 439.787 330.523 439.787 334.728 437.343L422.546 386.308C426.752 383.864 426.729 379.875 422.497 377.431L216.766 258.653ZM331.274 435.348C328.954 436.696 325.17 436.696 322.835 435.348L117.104 316.569C114.77 315.222 114.758 313.029 117.077 311.682L204.895 260.647C207.214 259.299 210.999 259.299 213.333 260.647L419.064 379.426C421.399 380.774 421.411 382.966 419.092 384.314L331.274 435.348Z" fill="#A0A8AA"></path> <path d="M170.068 403.203L212.962 428.111C215.311 429.478 218.131 429.478 220.438 428.154L247.781 412.346C250.301 410.936 250.301 407.348 247.866 405.895L204.93 380.988C202.623 379.621 199.76 379.621 197.453 380.945L170.068 396.753C167.59 398.162 167.59 401.751 170.068 403.203Z" fill="#A0A8AA"></path> <path d="M414.683 361.161C414.232 360.894 413.616 360.935 412.918 361.325C411.461 362.166 410.353 364.219 410.353 365.86L207.806 248.721C207.806 247.079 208.914 245.027 210.35 244.206C211.048 243.795 211.684 243.775 212.136 244.041L414.683 361.161Z" fill="#21201F"></path> <path d="M412.911 361.329C414.339 360.504 415.47 361.254 415.475 362.895L410.351 365.853C410.347 364.212 411.47 362.161 412.911 361.329V361.329Z" fill="#383736"></path> <path d="M207.409 63.7867L207.444 63.8336V63.8101L207.409 63.7867Z" fill="white"></path> <path d="M203.143 63.8037V56.369L454.899 201.646L454.853 219.237L203.114 73.9698L203.143 63.8037Z" fill="#3F9AE0"></path> <path d="M454.852 219.237L454.461 368.873L454.42 376.473L447.589 372.33L202.664 230.947L203.114 73.9697L454.852 219.237Z" fill="white"></path> <path d="M363.7 298.18L311.971 364.892L260.255 298.18H363.7Z" fill="#FFD651"></path> <path d="M248.327 192.076L235.952 198.854C239.371 196.981 243.798 195.876 249.525 196.242C251.008 196.372 254.792 195.511 254.992 195.466L267.367 188.687C267.167 188.733 263.382 189.593 261.9 189.464C256.173 189.098 251.746 190.203 248.327 192.076V192.076Z" fill="white"></path> <path d="M259.197 276.972L271.572 270.193L267.367 188.687L254.992 195.465L259.197 276.972Z" fill="white"></path> <path d="M254.992 198.854C254.792 198.9 251.008 199.76 249.525 199.631C227.02 198.194 224.579 219.473 224.551 220.788L227.489 284.648L259.197 287.103L254.992 198.854Z" fill="#C44141"></path> <path d="M374.57 192.076L386.945 198.854C383.526 196.981 379.098 195.876 373.372 196.242C371.889 196.372 368.104 195.511 367.905 195.466L355.53 188.687C355.729 188.733 359.514 189.593 360.997 189.464C366.723 189.098 371.151 190.203 374.57 192.076V192.076Z" fill="white"></path> <path d="M363.7 276.972L351.325 270.193L355.53 188.687L367.905 195.465L363.7 276.972Z" fill="white"></path> <path d="M367.905 198.854C368.104 198.9 371.889 199.76 373.372 199.631C395.877 198.194 398.318 219.473 398.345 220.788L395.408 284.648L363.7 287.103L367.905 198.854Z" fill="#C44141"></path> <path d="M267.895 292.515L267.93 301.15C267.948 307.822 271.922 320.51 280.679 325.599C298.345 335.865 327.034 335.865 344.815 325.599C353.747 320.442 358.208 313.672 358.189 306.908L358.566 292.245C358.585 299.009 354.124 305.779 345.192 310.936C327.411 321.202 298.722 321.202 281.056 310.936C272.299 305.847 267.914 299.187 267.895 292.515V292.515Z" fill="#B5E5F4"></path> <path d="M267.893 292.512L267.928 301.147C267.946 307.825 271.919 320.508 280.678 325.6C298.343 335.862 327.036 335.862 344.813 325.6L345.19 310.937C327.413 321.199 298.719 321.199 281.054 310.937C272.301 305.845 267.916 299.19 267.893 292.512V292.512Z" fill="#82C6E0"></path> <path d="M267.893 292.512L267.516 307.175C267.534 313.853 271.919 320.508 280.678 325.6L281.054 310.937C272.301 305.845 267.916 299.19 267.893 292.512Z" fill="#3F9AE0"></path> <path d="M281.016 310.973C298.74 321.172 327.455 321.172 345.178 310.973C362.903 300.675 363.002 284.041 345.377 273.743C327.752 263.544 299.037 263.544 281.314 273.842C263.491 284.041 263.392 300.675 281.016 310.973V310.973Z" fill="#0074D1"></path> <path d="M261.974 270.468C267.891 280.308 271.688 289.219 279.36 298.416L279.509 298.494C280.98 299.267 282.242 300.362 283.331 301.617C284.953 303.487 287.601 304.971 290.907 306.604C303.576 313.057 324.187 313.057 336.67 306.604C340.921 304.504 343.788 301.924 345.081 299.181C346.075 297.91 347.046 296.634 348.006 295.353C401.914 223.368 405.889 130.889 357.75 56.7134C357.101 55.7423 356.547 54.856 355.898 53.885V53.806C348.226 58.9716 339.261 62.9234 329.647 65.0969C323.82 66.3897 317.718 67.118 311.434 67.118C301.572 67.118 292.166 65.4017 283.625 62.2685C282.716 61.9411 281.813 61.591 280.926 61.2298C275.01 58.8078 269.551 55.6633 264.56 51.9486H264.47C263.82 52.9196 263.267 53.806 262.714 54.777C221.293 121.806 221.389 203.112 261.974 270.468V270.468Z" fill="#C4C2C0"></path> <path d="M295.497 254.384C301.414 264.224 308.16 273.821 315.832 283.018L316.018 283.097C317.311 285.84 320.179 288.42 324.43 290.521C330.922 293.829 339.504 295.438 348.006 295.353C362.289 276.277 373.071 255.761 380.303 234.529C400.362 175.641 393.13 111.232 357.75 56.7135C357.1 55.7424 356.547 54.8561 355.898 53.8851V53.806C349.677 57.995 342.603 61.3879 335.021 63.6799C333.254 64.2106 331.464 64.6849 329.647 65.097C323.82 66.3898 317.718 67.118 311.434 67.118C301.572 67.118 292.166 65.4018 283.625 62.2686C255.369 124.182 259.564 194.751 295.497 254.384V254.384Z" fill="#D6D4D2"></path> <path d="M361.961 208.322C367.358 217.299 373.45 226.077 380.303 234.529C400.362 175.641 393.13 111.232 357.75 56.7135C357.1 55.7424 356.547 54.8561 355.898 53.8851V53.806C349.677 57.995 342.603 61.3879 335.021 63.6799C325.881 112.525 334.959 163.514 361.961 208.322Z" fill="#E9E8E6"></path> <path d="M264.56 51.9486C269.551 55.6633 275.01 58.8079 280.926 61.2298C290.168 65.0179 300.522 67.118 311.434 67.118C317.718 67.118 323.82 66.3897 329.647 65.0969C339.261 62.9234 348.226 59.0506 355.898 53.885V53.806C353.555 50.3397 350.975 46.8056 348.209 43.249C345.313 39.5173 342.213 35.7687 338.967 32.054C334.445 26.8602 329.641 21.7397 324.746 16.8621C320.772 12.9102 315.132 11.0529 309.583 11.5384C305.422 11.7021 301.261 13.3167 298.026 16.1395C292.386 21.0962 286.854 26.0529 281.7 31.2016C278.29 34.6058 275.049 38.089 272.052 41.7134C269.336 44.9991 266.818 48.3976 264.56 51.9486V51.9486Z" fill="#2D2C2B"></path> <path d="M272.051 41.7134C274.886 43.345 277.844 44.8015 280.926 46.066C290.168 49.8542 300.522 51.9486 311.434 51.9486C317.718 51.9486 323.82 51.226 329.647 49.9332C336.201 48.4484 342.456 46.1733 348.209 43.249C345.313 39.5173 342.213 35.7687 338.967 32.054C334.445 26.8602 329.641 21.7397 324.746 16.8621C320.772 12.9102 315.132 11.0529 309.583 11.5384C305.422 11.7021 301.261 13.3167 298.026 16.1395C292.386 21.0962 286.854 26.0529 281.7 31.2016C278.29 34.6058 275.049 38.089 272.051 41.7134V41.7134Z" fill="#434240"></path> <path d="M346.454 218.387C349.594 221.135 352.98 224.079 354.06 225.109C386.691 257.398 386.053 283.797 386.25 285.515L386.299 338.482L392.25 335L392.201 282.034C392.054 280.316 392.643 253.917 360.011 221.628C358.932 220.598 355.546 217.653 352.454 214.906L346.454 218.387Z" fill="#FC7E7E"></path> <path d="M354.061 225.11C386.691 257.399 386.054 283.799 386.249 285.514L386.296 338.48L392.249 335.002L392.202 282.037C392.055 280.316 392.644 253.915 360.014 221.627L354.061 225.11Z" fill="#F25A5A"></path> <path d="M386.249 285.514L386.296 338.48L392.249 335.002L392.202 282.037L386.249 285.514Z" fill="#DD4A4A"></path> <path d="M346.208 299.323L386.299 338.482L386.25 285.515C386.053 283.797 386.691 257.398 354.06 225.109C352.98 224.079 349.594 221.135 346.454 218.387L346.208 299.323Z" fill="#C44141"></path> <path d="M277.767 216.954C274.627 219.702 271.241 222.646 270.161 223.676C237.53 255.965 238.168 282.364 237.971 284.082L237.922 337.049L231.971 333.567L232.02 280.601C232.167 278.883 231.578 252.484 264.21 220.195C265.289 219.165 268.675 216.22 271.767 213.473L277.767 216.954Z" fill="#FC7E7E"></path> <path d="M231.973 333.569L237.92 337.047L237.973 284.081C238.168 282.366 237.531 255.966 270.162 223.677L264.209 220.194C231.578 252.482 232.168 278.883 232.02 280.604L231.973 333.569Z" fill="#F25A5A"></path> <path d="M231.973 333.569L237.92 337.047L237.974 284.081L232.02 280.604L231.973 333.569Z" fill="#DD4A4A"></path> <path d="M231.973 333.569L237.92 337.047L237.945 312.403L231.992 308.925L231.973 333.569Z" fill="#F25A5A"></path> <path d="M278.013 297.891L237.922 337.049L237.971 284.082C238.168 282.364 237.53 255.965 270.161 223.676C271.241 222.646 274.627 219.702 277.767 216.954L278.013 297.891Z" fill="#C44141"></path> <path d="M279.866 115.17C279.866 131.905 293.437 145.476 310.172 145.476C326.913 145.476 340.484 131.905 340.484 115.17C340.484 98.4292 326.913 84.8579 310.172 84.8579C293.437 84.8579 279.866 98.4292 279.866 115.17Z" fill="#434240"></path> <path d="M286.606 115.17C286.606 128.179 297.158 138.737 310.172 138.737C323.187 138.737 333.744 128.179 333.744 115.17C333.744 102.15 323.187 91.5979 310.172 91.5979C297.158 91.5979 286.606 102.15 286.606 115.17V115.17Z" fill="#3F9AE0"></path> <path d="M445.869 199.876C443.202 198.337 441.004 199.548 440.995 202.653C440.986 205.759 443.171 209.543 445.837 211.082C448.54 212.642 450.775 211.411 450.784 208.305C450.793 205.199 448.571 201.437 445.869 199.876V199.876Z" fill="white"></path> <path d="M429.834 190.619C427.131 189.058 424.933 190.269 424.924 193.375C424.915 196.481 427.1 200.264 429.802 201.824C432.505 203.385 434.704 202.132 434.713 199.026C434.722 195.921 432.537 192.179 429.834 190.619Z" fill="white"></path> <path d="M413.763 181.34C411.06 179.78 408.862 180.99 408.853 184.096C408.844 187.202 411.029 190.985 413.731 192.546C416.434 194.106 418.633 192.853 418.642 189.748C418.651 186.642 416.466 182.901 413.763 181.34Z" fill="white"></path> </svg> 