<?xml version="1.0" encoding="UTF-8"?> <svg xmlns="http://www.w3.org/2000/svg" xmlns:xlink="http://www.w3.org/1999/xlink" xmlns:svgjs="http://svgjs.com/svgjs" width="512" height="512" x="0" y="0" viewBox="0 0 50 50" style="enable-background:new 0 0 512 512" xml:space="preserve" class=""> <g> <g xmlns="http://www.w3.org/2000/svg"> <g> <g> <g> <g> <g> <path d="m41.2226 34.1354v.8857c0 .1846-.1412.3695-.4183.4942l-6.8067 3.053c-.4346.1958-1.0484.1684-1.4341-.0541l-8.6646-4.9978c-.2119-.1249-.3205-.2881-.3205-.4509l.0054-.8854c0 .1629.1032.3257.3205.4509l8.6645 4.9976c.3803.2228.9996.2499 1.4287.0544l6.8067-3.053c.2771-.1251.4184-.3097.4184-.4946z" fill="#373f51" data-original="#373f51" class=""></path> </g> <g> <path d="m40.9033 33.6894c.4648.2683.4188.7089-.0984.9412l-6.8072 3.0518c-.431.1942-1.0464.1701-1.4314-.0521l-8.6639-5.0021c-.3885-.2243-.4286-.5786-.0947-.8289l5.243-3.9549c.3992-.3003 1.1632-.3264 1.628-.0581z" fill="#4c5671" data-original="#4c5671"></path> </g> </g> </g> <g> <g> <g> <path d="m36.073 28.4695-.017 5.9722-.8365.4862.0169-5.9723z" fill="#373f51" data-original="#373f51" class=""></path> </g> <g> <path d="m35.2364 28.9556-.0169 5.9723-6.0529-3.4947.0169-5.9722z" fill="#272e3a" data-original="#272e3a"></path> </g> <g> <path d="m36.073 28.4695-.8366.4861-6.0529-3.4946.8366-.4862z" fill="#414a61" data-original="#414a61"></path> </g> </g> </g> <g> <g> <g> <path d="m48.1734 19.6009-.0535 19.0184c0 .6661-.4757.9397-1.0586.6008l-27.9745-16.1521c-.5828-.3331-1.0526-1.1537-1.0526-1.8198l.0535-19.0126c.006-.6719.4757-.9455 1.0645-.6063l27.9686 16.146c.5828.3388 1.0526 1.1536 1.0526 1.8256z" fill="#373f51" data-original="#373f51" class=""></path> </g> <path d="m19.1423 2.8213-.0503 17.4552 27.9758 16.1519.0504-17.4552z" fill="#77cb77" data-original="#77cb77"></path> <g> <g> <path d="m32.2397 13.2741c-1.2968-.7487-2.3521-.1472-2.3564 1.3428-.0042 1.4902 1.0443 3.3064 2.3411 4.0551s2.3521.1472 2.3564-1.343c.0042-1.4901-1.0443-3.3062-2.3411-4.0549z" fill="#ffffff" data-original="#ffffff"></path> </g> <g> <path d="m29.7635 17.7133c-2.0917-.1289-3.5521 1.4404-3.56 4.2406l11.9961 6.9259c.0079-2.8001-1.435-6.0458-3.5167-8.3263l-1.6519 1.5207-.2562-1.5305.6343-.7257-2.3793-1.3737.6357 1.4589-.264 1.2301z" fill="#ffffff" data-original="#ffffff"></path> </g> </g> <g> <path d="m48.9999 19.1179-.0535 19.0184c0 .3331-.113.5651-.3033.678l-.8324.4769c.1903-.1069.3093-.3447.3093-.6719l.0535-19.0184c0-.6719-.4698-1.4867-1.0526-1.8256l-27.9687-16.146c-.2973-.1725-.559-.1905-.7553-.0775l.8324-.483c.1903-.1069.4579-.0952.7493.0772l27.9746 16.1462c.5829.339 1.0527 1.1596 1.0467 1.8257z" fill="#4c5671" data-original="#4c5671"></path> </g> </g> <g> <path d="m31.7964 28.2113c.3346.1932.606.6635.6049 1.0509-.0011.3845-.2743.5402-.6089.347-.3372-.1947-.6086-.6648-.6075-1.0493.0011-.3874.2743-.5433.6115-.3486z" fill="#4c5671" data-original="#4c5671"></path> </g> </g> </g> <g> <g> <g> <g> <path d="m28.6496 41.9317-.0101 1.1676c0 .2346-.153.4696-.459.6529l-8.5776 4.98c-.6222.3571-1.6319.3571-2.254 0l-15.8797-9.1685c-.3162-.1838-.4692-.4184-.4692-.6529v-1.1676c0 .2346.1632.4691.4794.6529l15.8695 9.1685c.6221.3571 1.642.3571 2.2641 0l8.5675-4.9905c.3161-.1733.4691-.4078.4691-.6424z" fill="#373f51" data-original="#373f51" class=""></path> </g> <g> <g> <g> <path d="m5.2438 41.0392c-.1149-.0664-.2093-.015-.2097.1171s.0934.2944.2083.3608l1.5319.8844c.1149.0664.2093.0126.2097-.1195.0003-.132-.0934-.292-.2084-.3583z" fill="#4c5671" data-original="#4c5671"></path> </g> </g> <g> <g fill="#9da9c1"> <path d="m5.2106 40.9569-.0916.0556c.036-.0064.0786 0 .1244.0262l1.5319.8839c.1146.0687.2095.2258.2095.3601 0 .0654-.0229.1112-.0622.1341l.1146-.0687c.0393-.0197.0622-.0687.0622-.1343 0-.1309-.0949-.2912-.2095-.3567l-1.5319-.8837c-.0557-.0362-.1114-.0394-.1474-.0165z" fill="#9da9c1" data-original="#9da9c1"></path> <path d="m2.7164 39.6509c.0393-.023.0917-.0197.1506.0163l1.5319.8838c.1146.0654.2062.2258.2062.3567-.0033.0655-.0262.1146-.0622.1343l.1146-.0655c.0393-.0229.0622-.0687.0622-.1341 0-.1343-.0916-.2914-.2062-.3601l-1.5319-.8839c-.0589-.0328-.1113-.036-.1506-.0131z" fill="#9da9c1" data-original="#9da9c1"></path> </g> <g> <path d="m2.8655 39.6661c-.1149-.0664-.2093-.015-.2097.1171s.0934.2944.2083.3608l1.5319.8844c.1149.0664.2072.0114.2076-.1207s-.0913-.2909-.2062-.3572z" fill="#4c5671" data-original="#4c5671"></path> </g> </g> </g> <g> <path d="m28.1779 41.2708c.6251.3609.6283.9475.0071 1.3085l-8.5766 4.9842c-.6209.3608-1.6335.3609-2.2586 0l-15.8754-9.1658c-.6251-.3609-.6283-.9475-.0011-1.312l8.5703-4.9805c.6212-.361 1.6339-.3611 2.259-.0002z" fill="#4c5671" data-original="#4c5671"></path> </g> </g> </g> <g> <g> <path d="m8.3066 33.7847c.0716.0414.072.109.0007.1505l-2.7815 1.6165c-.0712.0414-.1881.0414-.2597.0001-.0716-.0414-.072-.109-.0007-.1505l2.7815-1.6165c.0712-.0414.188-.0414.2597-.0001z" fill="#373f51" data-original="#373f51" class=""></path> </g> <g> <path d="m23.928 43.9504c.2995.1729.3009.4437.0033.6167-.2973.1728-.7648.1729-1.0643-.0001-.293-.1692-.3009-.4437-.0036-.6165.2976-.1729.7716-.1693 1.0646-.0001z" fill="#373f51" data-original="#373f51" class=""></path> </g> <g> <path d="m27.0383 41.0491-10.0774 5.8563-15.0614-8.6957 10.0774-5.8564z" fill="#7bb1ff" data-original="#7bb1ff" class=""></path> </g> <g> <g> <g> <path d="m13.6443 37.1578c.7142.4123.7181 1.0813.0084 1.4937-.7095.4123-1.8645.4123-2.5787 0s-.718-1.0814-.0084-1.4937c.7096-.4124 1.8645-.4124 2.5787 0z" fill="#ffffff" data-original="#ffffff"></path> </g> <g> <path d="m20.1709 38.6125-6.562 3.8134c-1.3441-.776-1.7054-1.9036-1.0787-2.8633l2.082.1593-.5191-.4647-.8679-.0985 1.304-.7578.1708.5036.8038.2993-.2819-1.2054c1.6548-.3663 3.6048-.162 4.949.6141z" fill="#ffffff" data-original="#ffffff"></path> </g> </g> </g> </g> </g> <g> <g> <g> <g> <path d="m16.0799 16.2845c-.0885-.0523-.2093-.0442-.3422.0322l-8.5824 4.9555c-.2657.1529-.479.5274-.479.8332l.0161 6.0302c0 .1531.0523.2577.1409.31l-.7439-.4363c-.0885-.0482-.1409-.157-.1409-.31l-.0201-6.0302c0-.3058.2174-.6803.483-.8332l8.5784-4.9554c.1369-.0765.2576-.0845.3462-.0322z" fill="#fe91ab" data-original="#fe91ab"></path> </g> <g> <path d="m15.7359 16.3173c.2673-.1543.4839-.0309.4848.2762l.0171 6.0306c.0009.3072-.2143.68-.4816.8343l-.476.2748.0052 2.7772-3.1351-.9701-4.9733 2.8714c-.2673.1543-.4839.0308-.4848-.2764l-.0171-6.0306c-.0009-.3072.2143-.6798.4816-.8342z" fill="#ed5d71" data-original="#ed5d71"></path> </g> </g> </g> <g> <g> <g fill="#ffdd94"> <path d="m3.0798 27.662.0039 1.9325-.8228-.4797-.0039-1.9324z" fill="#ffdd94" data-original="#ffdd94"></path> <path d="m10.9921 16.3259c-.0858-.0506-.2067-.0428-.3354.0312l-8.31 4.8004c-.2613.1481-.468.5069-.468.8073l.0156 5.8414c0 .1483.0546.2496.1365.3005l-.8228-.4799c-.0858-.0466-.1365-.1519-.1365-.3001l-.0155-5.8417c-.0039-.3001.2067-.659.464-.8071l8.3139-4.8004c.1287-.0741.2457-.0819.3315-.0312z" fill="#ffdd94" data-original="#ffdd94"></path> </g> <g> <path d="m10.6565 16.3577c.2589-.1495.4687-.0328.4696.2676l.0166 5.8421c.0008.2975-.2076.6586-.4665.8081l-4.8176 2.7815-2.7736 3.5381-.005-1.934-.7146.4125c-.2589.1495-.4688.03-.4696-.2676l-.0166-5.842c-.0009-.3003.2076-.6586.4665-.8081z" fill="#febb61" data-original="#febb61"></path> </g> <g> <g> <path d="m3.884 23.0078c.4482-.2588.8179-.054.8193.467.0015.5206-.3658 1.1512-.814 1.41-.4532.2616-.8179.0536-.8193-.467-.0015-.521.3609-1.1484.814-1.41z" fill="#ffffff" data-original="#ffffff"></path> </g> <g> <path d="m6.5083 21.4926c.4482-.2588.8179-.054.8193.467.0015.5206-.3658 1.1512-.814 1.41-.4532.2616-.8179.0536-.8193-.467-.0015-.5209.3609-1.1483.814-1.41z" fill="#ffffff" data-original="#ffffff"></path> </g> <g> <path d="m9.1326 19.9775c.4532-.2616.8179-.054.8193.467.0015.5206-.3609 1.1483-.814 1.41s-.8179.0536-.8193-.467c-.0015-.5209.3609-1.1484.814-1.41z" fill="#ffffff" data-original="#ffffff"></path> </g> </g> </g> </g> </g> </g> </g> </g> </svg> 