<?xml version="1.0" encoding="UTF-8"?> <svg xmlns="http://www.w3.org/2000/svg" xmlns:xlink="http://www.w3.org/1999/xlink" xmlns:svgjs="http://svgjs.com/svgjs" width="512" height="512" x="0" y="0" viewBox="0 0 50 50" style="enable-background:new 0 0 512 512" xml:space="preserve" class=""> <g> <g xmlns="http://www.w3.org/2000/svg"> <g> <g fill="#e4e8f4"> <path d="m47.1007233 16.8167381-.0499878 17.6415405v.0094337l-.0100098 2.0869637c0 .4056931-.1500244.6958122-.3800049.8212929l-1.8099976 1.0236702c.039978-.0287743.0800171-.0575523.1199951-.1061401-.2399902.2320938-.6300049.2608719-1.0599976.0099068l-8.9500122-4.9853134v.3094597l3.5300293 1.96101-.0100098 1.2269859-5.1199951 2.8790092-10.2399902-5.7099037v-1.2364197l4.0799561-2.2898121v-1.4685154l-6.3299561-3.5361385-1.3800049 6.4538307-.1500244.038681-.2999878-.1740704-.9400024.2802124-.0499878.2320938-.1400146.038681-.6799927-.3769169-.1699829.811388-.1400146.0292473-.3099976-.1641655-.9299927.2703056-.0500488.2316246-.1499634.038681-4.9700317-2.7723961c-.0999756-.0485897-.1399536-.1160469-.1300049-.1646366l1.9800415-9.255003c.0100098-.0485897.0499878-.0773659.1199951-.0967064l.9899902-.26087c.1599731-.0386829.4299927 0 .5999756.0967045l.5300293.2990818.1900024-.8788452c0-.0386829.039978-.0773659.1199951-.0967064l.9799805-.26087c.1700439-.0481186.4400024 0 .6100464.0967064l1.289978.7151527v-.4155998l.0200195-4.5022564-2.3200073-1.294446.0100098-4.2800684 2.3199463 1.294446v-2.0577151l-2.3299561-1.3038807.0100098-4.2800679 2.3399658 1.3043523v-2.521905c.0100098-.2415292.1000366-.4056935.25-.4731519l1.789978-1.0047994c.1300049-.0773649.3200073-.0674584.5200195.0481172l25.960022 14.4724131c.4099733.2320944.7500001.7925183.7399904 1.246328z" fill="#e4e8f4" data-original="#e4e8f4" class=""></path> <path d="m29.8007355 41.9070015v.5311775c0 .1259537-.0900269.2608681-.2700195.3674812l-8.1400146 4.5692444c-.3699951.2028465-.9599609.2028465-1.3200073 0l-19.1999512-10.7140884c-.1900024-.1061401-.2800293-.2415276-.2800293-.3670082v-.5311775c0 .0481186.0200195.0867996.0499878.1349182-.0899658-.1735992-.0199585-.367012.2200317-.5023994l8.1400146-4.5697155c.3699951-.2028465.9599609-.2028465 1.3299561 0l19.2000122 10.7140865c.1799926.0967064.2700195.2320938.2700195.3674812z" fill="#e4e8f4" data-original="#e4e8f4" class=""></path> <path d="m49.4107208 42.592907-5.0999756 2.8695755-3.6300048 3.5356674-1.6900025-.5505181-.9299927.511837-3.6199951-2.0190353-.5800171-.1934128-2.3099975 1.2949181-.8900147.1349182-.5200195.0679283.3000488-.376915.5799561-.7146835 1.5-.8406334-2.4899903-.8212929.6600342-.6377907-1.3800049-.772705 5.0999756-2.8596688 3.6300049-3.5460434 1.6900024.560421.919983-.5217399 3.6300048 2.0195045 4.4000245 1.4491768-.6500245.6373177z" fill="#e4e8f4" data-original="#e4e8f4" class=""></path> </g> <g> <g> <g> <g> <path d="m38.4886818 35.5910835-.004776 1.2291565-5.1229477 2.8762551.004776-1.2291565z" fill="#474b59" data-original="#474b59"></path> </g> <g> <path d="m33.3657341 38.4673386-.004776 1.2291565-10.2442875-5.7141381.004776-1.2291565z" fill="#474b59" data-original="#474b59"></path> </g> <g> <path d="m38.4886818 35.5910835-5.1229477 2.8762551-10.2442875-5.7141381 5.1229477-2.8762588z" fill="#5b5e71" data-original="#5b5e71"></path> </g> </g> <g> <g> <g> <path d="m34.96521 29.9753628-.0003319 5.3162327-1.5805283.8873825.0003281-5.3162327z" fill="#cad0dd" data-original="#cad0dd"></path> </g> <g> <path d="m33.3846779 30.8627453-.0003281 5.3162327-6.1809482-3.4476586.0003299-5.3162307z" fill="#cad0dd" data-original="#cad0dd"></path> </g> <g> <path d="m34.96521 29.9753628-1.5805321.8873825-6.1809464-3.4476566 1.5805302-.8873826z" fill="#e7effb" data-original="#e7effb"></path> </g> </g> </g> <g> <g> <g> <g> <g> <g> <path d="m32.1726112 27.9420872c-.0014839.5051613.3645859 1.1177597.8195801 1.3715515-.3025856.169878-.6051903.3397484-.9077682.5096169-.1183147.0664234-.2366943.1329117-.3550091.1993351-.051899.0291424-.1210995.0679989-.1729965.0971432-.0502892.0282383-.1173401.0658894-.1676273.0941296l-.2119713.1190147c-.4549923-.2537994-.8210602-.8663979-.8195782-1.3715591.6050892-.3397179 1.2101936-.6795197 1.8152981-1.0192471-.6051044.3397274-1.2101955.6794662-1.8153 1.0191917.000742-.2470341.0914764-.4214802.2381496-.503828l1.8153629-1.0192261c-.1466751.0823478-.2374153.2568149-.2381401.5038776z" fill="#e7effb" data-original="#e7effb"></path> </g> <g> <path d="m32.9921913 29.3136387c.2254944.1257763.4305992.1373997.5792122.0539703l-1.815382 1.0192375c-.1486015.0834236-.3537064.0718002-.5792007-.0539761.5446071-.3057613 1.2707538-.7134551 1.8153705-1.0192317z" fill="#e7effb" data-original="#e7effb"></path> </g> <g> <path d="m30.5953903 28.4574337 1.815361-1.0192242c.1495132-.0839443.3571281-.0721951.5867844.0559044l-1.8153706 1.0192318c-.2296562-.1280994-.437273-.1398487-.5867748-.055912z" fill="#d9def3" data-original="#d9def3"></path> </g> <g> <path d="m33.5714302 29.3675919-1.815382 1.0192413c.1476269-.0828876.2394981-.2595539.2402363-.5112782.0014648-.4988708-.3646164-1.1114807-.8141193-1.3622093l1.8153706-1.0192318c.4495049.2507267.8155823.8633385.8141212 1.3622093-.0007401.2517243-.0926095.4283905-.2402268.5112687z" fill="#d9def3" data-original="#d9def3"></path> </g> <g> <path d="m17.7928143 20.1732235 27.4415836 15.3065853-.0061607 2.099472c-.0023727.8095589-.5963058 1.1304016-1.3199005.7267914l-24.8103524-13.8389148c-.7235947-.4036121-1.3137054-1.384901-1.3113308-2.1944618zm13.3840065 10.159647c.4494915.250721.8179779.0478458.8194599-.4573154.0014629-.498867-.3646297-1.1114788-.8141193-1.3621998-.4549961-.2537899-.8234577-.0509033-.8249207.4479637-.001482.5051613.3645859 1.1177597.8195801 1.3715515" fill="#e4e8f4" data-original="#e4e8f4" class=""></path> </g> <g> <path d="m31.1821651 28.5133457c.4495029.2507286.8155842.8633385.8141193 1.3622093-.001482.505146-.3699551.7080307-.819458.457304-.4549847-.2537861-.8210659-.866396-.8195839-1.3715401.0014649-.4988727.369938-.7017574.8249226-.4479732z" fill="#cad0dd" data-original="#cad0dd"></path> </g> <g> <path d="m17.7928143 20.1732235 1.8153705-1.0192318 27.4415856 15.3065834-1.8153725 1.0192337z" fill="#e7effb" data-original="#e7effb"></path> </g> <g> <path d="m47.0500793 34.4644279-.0096741 2.0913467c0 .4016762-.1449356.6911888-.3769455.8220444l-1.8169479 1.0176315c.2319489-.1308517.3768845-.4107895.3768845-.8124657l.0096741-2.1009216z" fill="#cad0dd" data-original="#cad0dd"></path> </g> </g> <g> <g> <path d="m18.8463974 3.5472629 1.8153706-1.0192323-.0470372 16.0292795-1.8153705 1.0192318z" fill="#000000" data-original="#000000"></path> </g> <g> <path d="m44.2488022 17.716404 1.8153686-1.0192318-.0470352 16.0292759-1.8153724 1.0192337z" fill="#ffffff" data-original="#ffffff"></path> </g> <g> <path d="m18.7993603 19.5765419 1.8153705-1.0192318 25.4023972 14.1691494-1.8153687 1.0192337z" fill="#000000" data-original="#000000"></path> </g> <g> <path d="m44.5430832 16.5944748c.411129.2293243.7444229.7869473.743084 1.2435455l-.0517693 17.6417885-27.4415836-15.3065853.0517693-17.6417866c.001339-.4565978.336813-.6411905.747942-.4118671zm-.3413239 17.1512184.0470352-16.0292797-25.4023971-14.1691506-.0470371 16.0292797z" fill="#000000" data-original="#000000"></path> </g> <g> <path d="m44.5430832 16.5944748c.411129.2293243.7444229.7869473.743084 1.2435455l-.0517693 17.6417885-27.4415836-15.3065853.0517693-17.6417866c.001339-.4565978.336813-.6411905.747942-.4118671zm-.3413239 17.1512184.0470352-16.0292797-25.4023971-14.1691506-.0470371 16.0292797z" fill="#000000" data-original="#000000"></path> </g> <g> <path d="m18.8464146 3.5472617 1.8153724-1.0192323 25.4023838 14.1691428-1.8153686 1.0192318z" fill="#ffffff" data-original="#ffffff"></path> </g> <g> <path d="m47.097435 16.8168144-.0515099 17.6432419-1.8115921 1.020256.0515099-17.6432438c0-.4560566-.3348579-1.0117493-.7469597-1.2442322l-25.9463177-14.4743365c-.2060509-.1162419-.3949127-.1247474-.5323162-.049818l1.8201866-1.020255c.1288071-.0745244.3176708-.0664239.5237217.0498179l25.9549122 14.4743366c.4121018.2324839.7469597.7881765.7383652 1.2442331z" fill="#5b5e71" data-original="#5b5e71"></path> </g> </g> </g> <g> <path d="m44.2488022 17.716404-.047039 16.0292778-25.4023839-14.1691437.0470353-16.0292764z" fill="#e4e8f4" data-original="#e4e8f4" class=""></path> </g> <g> <path d="m44.2488022 17.716404-.0042191 1.4375877-25.4023857-14.1691432.0042172-1.4375868z" fill="#748bfd" data-original="#748bfd"></path> </g> <g> <path d="m33.3846779 14.384407-13.4922409-7.5260558-.0046196 12.1495452 13.4968605 7.5280972z" fill="#cad0dd" data-original="#cad0dd"></path> </g> <g> <path d="m44.5430832 16.5944748c.411129.2293243.7444229.7869473.743084 1.2435455l-.0517693 17.6417885-27.4415836-15.3065853.0517693-17.6417866c.001339-.4565978.336813-.6411905.747942-.4118671zm-.2973213 2.155941.0030327-1.0340023-25.4023972-14.1691506-.0470371 16.0292797 25.4023991 14.1691513" fill="#474b59" data-original="#474b59"></path> </g> </g> </g> </g> </g> <g> <g> <g> <g> <g> <path d="m21.3281288 22.6768112-1.9834499 9.2686691-4.9685974-2.7749386c-.0880728-.0477238-.2276821-.0705223-.3136053-.0477238l-.9859037.25737c-.0365248.0103359-.0558491.0269527-.0601482.0455971l1.9825687-9.2697849c.0042877-.0186443.025775-.0352631.0622864-.0455971l.9859028-.25737c.0837727-.0227985.2233963 0 .3114567.0477238z" fill="#efac41" data-original="#efac41"></path> </g> <g> <path d="m21.1182766 22.7698212-1.9186268 8.9603786-1.2576313.365572 1.907959-8.9939461z" fill="#d1d1d1" data-original="#d1d1d1"></path> </g> <g> <path d="m19.8499775 23.1018257-4.9261208-2.4932175c-.1757545-.0953445-.1812525-.2067509-.0164928-.2492428l.9886217-.2601223c.1647596-.04249.4393682 0 .6096258.095602l4.6126652 2.5753345z" fill="#ededed" data-original="#ededed"></path> </g> <g> <path d="m21.4736462 22.6403065-1.9847794 9.2693252-.1441879.0358486 1.9834499-9.2686691z" fill="#e5a03c" data-original="#e5a03c"></path> </g> <g> <path d="m19.8920231 23.0509071-1.9825554 9.2697868-4.972517-2.7724056c-.0966606-.0540066-.1396093-.1141949-.1310225-.1639462l1.9825563-9.2552948c0 .0477238.0451117.1016312.133172.149456z" fill="#efac41" data-original="#efac41"></path> </g> <g> <path d="m20.0381184 23.0126896-1.9830628 9.2697391-.1459579.0382805 1.9830646-9.2697391z" fill="#e5a03c" data-original="#e5a03c"></path> </g> </g> </g> <g> <path d="m21.4736462 22.6403065-.1455173.0365047-4.9700279-2.7707443c-.0877724-.0489578-.2274952-.0707912-.3116035-.0487328l-.9861746.2586422c-.0841789.0220776-.0812817.0797958.0064907.1287537l4.9713049 2.772934-.145956.0382805-4.9713058-2.772934c-.1714249-.0956173-.1771202-.2088356-.0127573-.2519436l.9861746-.2586422c.164362-.0431061.4383602-.0002556.6097832.0953617z" fill="#f9bb4a" data-original="#f9bb4a"></path> </g> </g> <g> <g> <g> <g> <path d="m18.8997173 23.5223637-1.983448 9.2686672-4.9685974-2.7749367c-.0880737-.0477238-.2276831-.0705223-.3136063-.0477238l-.9859028.25737c-.0365248.0103359-.0558491.0269527-.0601492.0455971l1.9825697-9.2697849c.0042868-.0186443.025774-.0352612.0622854-.0455971l.9859037-.25737c.0837727-.0227985.2233953 0 .3114557.0477238z" fill="#ed435c" data-original="#ed435c"></path> </g> <g> <path d="m18.6898651 23.6153736-1.9186249 8.9603787-1.2576313.3655738 1.907959-8.9939479z" fill="#d1d1d1" data-original="#d1d1d1"></path> </g> <g> <path d="m17.4215679 23.9473782-4.9261217-2.4932175c-.1757545-.0953445-.1812515-.2067509-.0164928-.2492428l.9886217-.2601223c.1647596-.04249.4393692 0 .6096258.095602l4.6126642 2.5753345z" fill="#ededed" data-original="#ededed"></path> </g> <g> <path d="m19.0452366 23.4858589-1.9847794 9.2693253-.1441879.0358467 1.983448-9.2686672z" fill="#e63044" data-original="#e63044"></path> </g> <g> <path d="m17.4636135 23.8964596-1.9825563 9.2697849-4.972517-2.7724037c-.0966606-.0540066-.1396093-.1141949-.1310215-.1639462l1.9825563-9.2552948c0 .0477238.0451117.1016312.133172.149456z" fill="#ed435c" data-original="#ed435c"></path> </g> <g> <path d="m17.6097088 23.858242-1.9830628 9.2697411-.1459579.0382805 1.9830627-9.2697411z" fill="#e63044" data-original="#e63044"></path> </g> </g> </g> <g> <path d="m19.0452366 23.4858589-.1455193.0365047-4.970027-2.7707443c-.0877724-.0489578-.2274961-.0707912-.3116026-.0487328l-.9861755.2586422c-.084178.0220776-.0812807.0797958.0064917.1287537l4.9713049 2.772934-.1459579.0382805-4.9713049-2.772934c-.1714239-.0956173-.1771193-.2088356-.0127573-.2519436l.9861746-.2586422c.1643629-.0431061.4383602-.0002556.6097841.0953617z" fill="#f25574" data-original="#f25574"></path> </g> </g> </g> <g> <g> <g> <g> <g> <path d="m29.8053532 41.9076042v.5272331c0 .1284332-.0931606.2637749-.2729034.3664589l-8.1412277 4.5692902c-.366106.2056808-.9585552.2056808-1.3246613 0l-19.197715-10.7142716c-.1863643-.1029968-.2795667-.2380257-.2795667-.3664589v-.5275497c0 .1350288.0932024.2700577.2795667.3730545l19.1977158 10.7076759c.366106.2059975.9585552.2059975 1.3246613 0l8.1412277-4.5689735c.1797419-.096405.2729026-.2314339.2729026-.3664589z" fill="#cad0dd" data-original="#cad0dd"></path> </g> </g> <g> <g> <path d="m29.5287437 41.5363884c.365509.2038765.3675003.5357361.0044098.7395935l-8.1424904 4.5694351c-.3630924.2038574-.95611.2038269-1.321619-.0000496l-19.2016102-10.7104263c-.3655032-.2038727-.3674868-.5357285-.004395-.7395821l8.1424894-4.569437c.3630924-.2038574.9561024-.2038326 1.3216057.000042z" fill="#e4e8f4" data-original="#e4e8f4" class=""></path> </g> </g> </g> </g> <g> <g> <path d="m23.2402592 38.7796173c.0849972.0474091.0853233.1281013.0010223.1754303l-.4265461.2394829c-.0843029.0473328-.2284908.0474129-.313488.0000038l-.9137535-.5096817c-.0850048-.0474167-.0853252-.1281013-.0010223-.1754303l.4265461-.2394867c.084301-.0473289.2284832-.0474129.313488 0z" fill="#5b5e71" data-original="#5b5e71"></path> </g> <g> <path d="m21.8589993 38.0091667c.0892487.0497818.0853233.1281013.0010223.1754303l-.4265461.2394829c-.0843029.0473328-.2242393.0497856-.313488.0000038l-.909502-.5073128c-.0892563-.0497856-.0853252-.1280975-.0010223-.1754303l.4265461-.2394829c.084301-.0473289.2242317-.0497856.313488 0z" fill="#5b5e71" data-original="#5b5e71"></path> </g> <g> <path d="m20.4777393 37.2387161c.0892563.0497856.0853252.1281013.0010223.1754303l-.4265461.2394829c-.084301.0473328-.2242317.0497894-.313488.0000038l-.909502-.507309c-.0850048-.0474167-.0853233-.1281013-.0010223-.1754341l.4265461-.2394829c.0843029-.0473289.2284832-.0474129.313488 0z" fill="#5b5e71" data-original="#5b5e71"></path> </g> <g> <path d="m19.1007309 36.4706383c.0850048.0474129.0853252.1281013.0010223.1754303l-.4265461.2394829c-.084301.0473328-.2284832.0474167-.313488.0000038l-.9137535-.5096817c-.0849972-.0474129-.0853176-.1280975-.0010147-.1754265l.4265461-.2394829c.084301-.0473328.2284832-.0474167.3134804-.0000076z" fill="#5b5e71" data-original="#5b5e71"></path> </g> <g> <path d="m17.7194729 35.7001877c.0850029.0474167.0853233.1281013.0010204.1754303l-.4265461.2394829c-.084301.0473328-.2284832.0474167-.313488.0000038l-.909502-.507309c-.0892487-.0497818-.0853167-.1280975-.0010147-.1754303l.4265461-.2394829c.084301-.0473289.2242317-.0497856.3134804-.0000038z" fill="#5b5e71" data-original="#5b5e71"></path> </g> <g> <path d="m11.6155605 35.0696831c.0892487.0497818.0896692.1256523.0010147.1754303l-.903491.5072594c-.0886545.0497742-.2242317.0497894-.3134804.0000076l-.9095106-.5073166c-.0849972-.0474091-.0896683-.1256523-.0010147-.1754265l.903492-.5072594c.0886536-.0497742.2284832-.0474167.3134794-.0000076z" fill="#5b5e71" data-original="#5b5e71"></path> </g> <g> <path d="m26.282402 43.2506714c.0849972.0474091.0896606.1256485.0010071.1754227l-.903492.5072632c-.0886536.0497742-.2284756.0474167-.3134727.0000076l-.9137535-.5096817c-.0850124-.0474167-.0896759-.1256561-.0010223-.1754303l.903492-.5072632c.0886536-.0497742.2284756-.0474167.3134861 0z" fill="#5b5e71" data-original="#5b5e71"></path> </g> <g> <path d="m19.0848331 42.458828c.0849972.0474091.0853233.1281013.0010223.1754303l-.9078445.5097046c-.0845299.0474625-.2243652.0450974-.3093624-.0023117l-.9095039-.507309c-.0892487-.0497818-.0896759-.1256561-.005146-.1731186l.9078445-.5097046c.084301-.0473289.2242393-.0497818.313488 0z" fill="#5b5e71" data-original="#5b5e71"></path> </g> <g> <g> <path d="m10.481966 36.072403c.0892487.0497818.0896759.1256599.0010223.1754341l-.9037209.5073891c-.0886545.0497742-.2242393.0497818-.3134871 0l-.909503-.507309c-.0892563-.0497856-.0896769-.1256561-.0010223-.1754303l.9037209-.5073891c.0886536-.0497742.2242317-.0497894.3134871-.0000038z" fill="#5b5e71" data-original="#5b5e71"></path> </g> <g> <path d="m16.4681492 36.1411171c.0850048.0474167.0896759.1256561.0010223.1754341l-.9037209.5073891c-.0886536.0497742-.2284832.0474167-.3134871 0l-.9137545-.5096817c-.0849972-.0474091-.0896692-.1256523-.0010147-.1754265l.9037209-.5073891c.0886536-.0497742.2284822-.0474167.3134794-.0000038z" fill="#5b5e71" data-original="#5b5e71"></path> </g> <g> <path d="m14.2845736 36.5584259c.0850039.0474167.0896759.1256599.0010214.1754341l-.903491.5072594c-.0886545.0497742-.2284832.0474167-.3134871.0000038l-.9137545-.5096817c-.0850048-.0474167-.0896759-.1256561-.0010223-.1754303l.903492-.5072632c.0886536-.0497742.2284822-.0474167.3134871 0z" fill="#5b5e71" data-original="#5b5e71"></path> </g> <g> <path d="m11.8164759 36.8167763c.0849972.0474129.0896692.1256523.0010147.1754303l-.9037209.5073891c-.0886536.0497742-.2284822.0474167-.3134794.0000038l-.9137545-.5096817c-.0850048-.0474129-.0896759-.1256561-.0010223-.1754303l.9037209-.5073891c.0886536-.0497742.2284832-.0474167.3134871 0z" fill="#5b5e71" data-original="#5b5e71"></path> </g> <g> <path d="m17.80266 36.8854904c.0849972.0474129.0896683.1256523.0010147.1754303l-.9037209.5073891c-.0886536.0497742-.2284832.0474167-.3134804.0000038l-.9137545-.5096817c-.0892553-.0497856-.0896759-.1256561-.0010223-.1754303l.9037218-.5073891c.0886536-.0497742.2242317-.0497856.3134861 0z" fill="#5b5e71" data-original="#5b5e71"></path> </g> <g> <path d="m9.7560253 37.2553329c.0850039.0474129.0810719.1257286-.0032291.1730576l-.9078445.5097084c-.0845299.0474586-.220108.0474701-.3051119.0000572l-.9137545-.5096817c-.0892487-.0497818-.0896692-.1256523-.0051384-.173111l.9078436-.5097084c.0843019-.0473289.2242317-.0497856.3134804-.0000038z" fill="#5b5e71" data-original="#5b5e71"></path> </g> <g> <path d="m15.6148319 37.3004303c.0892487.0497818.0896683.1256523.0010147.1754265l-.903492.5072632c-.0886536.0497742-.2242317.0497856-.3134794.0000038l-.909503-.507309c-.0892563-.0497856-.0896759-.1256561-.0010223-.1754303l.903492-.5072632c.0886536-.0497742.2242317-.0497856.3134871 0z" fill="#5b5e71" data-original="#5b5e71"></path> </g> <g> <path d="m13.1467342 37.5587807c.0892487.0497818.0896692.1256523.0010147.1754265l-.9037199.5073891c-.0886545.0497742-.2242317.0497894-.3134804.0000076l-.9095106-.5073166c-.0849972-.0474091-.0896683-.1256523-.0010147-.1754265l.9037209-.5073891c.0886536-.0497742.2284832-.0474167.3134804-.0000038z" fill="#5b5e71" data-original="#5b5e71"></path> </g> <g> <path d="m19.1329174 37.6274948c.0849972.0474091.0896702.1256523.0010147.1754265l-.9037209.5073891c-.0886536.0497742-.2284813.0474167-.3134785.0000076l-.9095116-.5073166c-.0892487-.0497818-.0896683-.1256523-.0010147-.1754265l.9037209-.5073891c.0886536-.0497742.2242317-.0497856.3134804-.0000038z" fill="#5b5e71" data-original="#5b5e71"></path> </g> <g> <path d="m11.0862837 37.9973335c.0892553.0497856.0853233.1281013.0010223.1754303l-.9078445.5097084c-.0845299.0474586-.220108.0474701-.3093634-.0023155l-.909503-.507309c-.0892487-.0497818-.0896759-.1256561-.005146-.1731148l.9078445-.5097084c.084301-.0473289.2242384-.0497818.3134871 0z" fill="#5b5e71" data-original="#5b5e71"></path> </g> <g> <path d="m16.9493408 38.0448036c.0849972.0474091.0896702.1256523.0010166.1754265l-.903492.5072632c-.0886545.0497742-.2284832.0474129-.3134804.0000038l-.9095106-.5073128c-.0892477-.0497818-.0896683-.1256523-.0010147-.1754265l.903492-.5072632c.0886536-.0497742.2242317-.0497856.3134794-.0000038z" fill="#5b5e71" data-original="#5b5e71"></path> </g> <g> <path d="m8.206152 38.1112366c.0849972.0474091.0855446.1279678.0010147.1754265l-1.021697.5736275c-.0845308.0474586-.2284832.0474167-.3134799.0000038l-1.2027559-.6708832c-.0850043-.0474129-.0855527-.1279716-.0010223-.1754303l1.021697-.5736275c.0845304-.0474586.2284832-.0474129.3134871 0z" fill="#5b5e71" data-original="#5b5e71"></path> </g> <g> <path d="m14.4812374 38.3031502c.0892553.0497856.0896759.1256561.0010223.1754303l-.9037209.5073891c-.0886545.0497742-.2242317.0497894-.313488.0000038l-.909503-.5073128c-.0892477-.0497818-.0896683-.1256523-.0010147-.1754265l.9037209-.5073891c.0886545-.0497742.2242317-.0497856.3134804-.0000038z" fill="#5b5e71" data-original="#5b5e71"></path> </g> <g> <path d="m20.4674282 38.3718681c.0849972.0474091.0896683.1256523.0010147.1754265l-.9037209.5073891c-.0886536.0497742-.2284832.0474167-.3134804.0000076l-.9137611-.5096855c-.0849972-.0474129-.0896683-.1256523-.0010147-.1754265l.9037209-.5073929c.0886536-.0497742.2284832-.0474129.3134804-.0000038z" fill="#5b5e71" data-original="#5b5e71"></path> </g> <g> <path d="m12.4207935 38.7417068c.0849972.0474129.0853167.1280975.0010147.1754265l-.9078436.5097084c-.0845308.0474586-.2243595.0450974-.3093567-.0023117l-.9137545-.5096817c-.0850039-.0474129-.0896759-.1256561-.0051451-.1731148l.9078436-.5097046c.0843019-.0473328.2284832-.0474167.3134871-.0000038z" fill="#5b5e71" data-original="#5b5e71"></path> </g> <g> <path d="m18.283844 38.7891731c.0850048.0474129.0896759.1256561.0010223.1754303l-.903492.5072632c-.0886536.0497742-.2284832.0474129-.3134861 0l-.9137554-.5096817c-.0849972-.0474091-.0896683-.1256523-.0010147-.1754265l.903492-.5072632c.0886536-.0497742.2284832-.0474129.3134804-.0000038z" fill="#5b5e71" data-original="#5b5e71"></path> </g> <g> <path d="m15.8157473 39.0475235c.0850039.0474129.0896759.1256561.0010223.1754303l-.9037209.5073891c-.0886545.0497742-.2284832.0474167-.3134871.0000038l-.9137545-.5096817c-.0849972-.0474091-.0896692-.1256523-.0010147-.1754265l.9037199-.5073929c.0886545-.0497742.2284832-.0474129.3134804-.0000038z" fill="#5b5e71" data-original="#5b5e71"></path> </g> <g> <path d="m21.7976799 39.1138649c.0892544.0497856.0896759.1256561.0010223.1754303l-.9037209.5073929c-.0886555.0497742-.2242317.0497856-.313488 0l-.9095039-.507309c-.0849953-.0474091-.0896683-.1256523-.0010147-.1754265l.9037209-.5073929c.0886555-.0497742.2284832-.0474129.3134804-.0000038z" fill="#5b5e71" data-original="#5b5e71"></path> </g> <g> <path d="m24.6215115 39.5500641c.0850124.0474167.0853233.1280975.0010223.1754303l-.4265461.2394829c-.0843029.0473289-.2284756.0474205-.313488 0l-.9137535-.5096817c-.0849972-.0474091-.0853233-.1280975-.0010223-.1754303l.4265461-.2394829c.0843029-.0473289.2284908-.0474091.313488 0z" fill="#5b5e71" data-original="#5b5e71"></path> </g> <g> <path d="m13.7510529 39.4837112c.0892477.0497818.0853157.1280937.0010147.1754265l-.9078445.5097046c-.0845308.0474586-.220108.0474701-.3093567-.0023117l-.909503-.507309c-.0850039-.0474129-.0896759-.1256561-.0051451-.1731148l.9078436-.5097046c.0843019-.0473328.2284832-.0474167.3134871-.0000038z" fill="#5b5e71" data-original="#5b5e71"></path> </g> <g> <path d="m19.6141033 39.5311737c.0892544.0497856.0896759.1256561.0010223.1754303l-.903492.5072632c-.0886536.0497742-.2242317.0497856-.313488 0l-.909502-.507309c-.0849972-.0474091-.0896683-.1256523-.0010147-.1754265l.903492-.5072594c.0886536-.049778.2284813-.0474167.3134785-.0000076z" fill="#5b5e71" data-original="#5b5e71"></path> </g> <g> <path d="m17.1502571 39.7918968c.0849972.0474091.0854244.1232834-.0032291.1730576l-.9037209.5073929c-.0886536.0497742-.2242393.0497818-.3092356.0023727l-.9137545-.5096817c-.0850048-.0474129-.0896759-.1256561-.0010223-.1754303l.9037209-.5073929c.0886536-.0497742.2284832-.0474129.313488 0z" fill="#5b5e71" data-original="#5b5e71"></path> </g> <g> <path d="m23.1321888 39.8582382c.0892487.0497818.0896759.1256561.0010223.1754303l-.9037209.5073929c-.0886536.0497742-.2242393.0497818-.3134861 0l-.9095039-.507309c-.0892487-.0497818-.0896759-.1256561-.0010223-.1754303l.9037209-.5073929c.0886536-.0497742.2242393-.0497818.313488 0z" fill="#5b5e71" data-original="#5b5e71"></path> </g> <g> <path d="m25.9985275 40.3181458c.0892487.0497818.0853233.1281013.0010223.1754303l-.4265461.2394829c-.0843029.0473328-.2242393.0497856-.313488.0000038l-.9095039-.5073128c-.089262-.0497894-.0853233-.1280975-.0010204-.1754303l.4265461-.2394829c.084301-.0473289.2242241-.0497894.313488 0z" fill="#5b5e71" data-original="#5b5e71"></path> </g> <g> <path d="m15.0855627 40.2280846c.0892477.0497818.0853157.1280937.0010147.1754265l-.9078445.5097046c-.0845299.0474586-.220108.0474701-.3093567-.0023079l-.9137611-.5096855c-.0849972-.0474129-.0854177-.1232834-.0008869-.170742l.9078436-.5097046c.0843019-.0473328.2242317-.0497894.3092289-.0023766z" fill="#5b5e71" data-original="#5b5e71"></path> </g> <g> <path d="m20.9486122 40.275547c.0892487.0497818.0896759.1256561.0010223.1754341l-.903492.5072594c-.0886536.0497742-.2242374.0497818-.3134861 0l-.9095039-.507309c-.0892544-.0497856-.0896759-.1256561-.0010223-.1754303l.903492-.5072594c.0886555-.049778.2242317-.0497894.313488-.0000038z" fill="#5b5e71" data-original="#5b5e71"></path> </g> <g> <path d="m18.4805164 40.5338974c.0892467.0497818.0896683.1256523.0010147.1754265l-.9037209.5073929c-.0886536.0497742-.2242317.0497856-.3134804.0000038l-.9095097-.5073128c-.0892487-.0497818-.0896702-.1256523-.0010147-.1754265l.9037189-.5073929c.0886555-.0497742.2242317-.0497856.3134804-.0000038z" fill="#5b5e71" data-original="#5b5e71"></path> </g> <g> <path d="m24.466692 40.6026077c.0850105.0474205.0896759.1256561.0010223.1754303l-.9037209.5073929c-.0886536.0497742-.2284756.0474205-.313488 0l-.9137535-.5096817c-.0849972-.0474091-.0896626-.1256485-.0010071-.1754227l.9037189-.5073891c.0886555-.0497742.2284775-.0474205.3134747-.0000114z" fill="#5b5e71" data-original="#5b5e71"></path> </g> <g> <path d="m27.3797798 41.0885925c.0849972.0474091.0853233.1280975.0010223.1754303l-.4265461.2394829c-.0843029.0473289-.2284908.0474129-.313488 0l-.9137535-.5096817c-.0849972-.0474091-.0853233-.1280975-.0010223-.1754303l.4265461-.2394829c.084301-.0473289.2284908-.0474091.313488 0z" fill="#5b5e71" data-original="#5b5e71"></path> </g> <g> <path d="m16.4200649 40.9724541c.0850048.0474129.0853233.1280975.0010223.1754303l-.9078445.5097046c-.0845299.0474586-.2243595.0451012-.3093634-.0023117l-.9137545-.5096817c-.0849972-.0474129-.0896692-.1256523-.0051384-.1731148l.9078445-.5097046c.084301-.0473289.2284822-.0474129.3134794-.0000038z" fill="#5b5e71" data-original="#5b5e71"></path> </g> <g> <path d="m22.2831154 41.0199165c.0850124.0474205.0896759.1256561.0010223.1754303l-.903492.5072632c-.0886536.0497742-.2284756.0474205-.3134861 0l-.9137554-.5096779c-.0849972-.0474129-.0896606-.1256485-.0010071-.1754227l.903492-.5072632c.0886536-.0497742.2284756-.0474205.3134727-.0000076z" fill="#5b5e71" data-original="#5b5e71"></path> </g> <g> <path d="m19.8150177 41.2782669c.0850124.0474205.0896759.1256561.0010223.1754303l-.9037209.5073929c-.0886536.0497742-.2284756.0474205-.3134861 0l-.9137554-.5096817c-.0849972-.0474091-.0896683-.1256523-.0010147-.1754265l.9037209-.5073891c.0886536-.0497742.2284832-.0474167.3134804-.0000076z" fill="#5b5e71" data-original="#5b5e71"></path> </g> <g> <path d="m25.77145 41.3303871c.089262.0497894.0896759.1256561.0010223.1754303l-.9037209.5073891c-.0886536.0497742-.2242241.0497932-.313488.0000038l-.909502-.507309c-.0892487-.0497818-.0896626-.1256485-.001009-.1754227l.9037209-.5073929c.0886555-.0497742.224226-.0497894.3134727-.0000076z" fill="#5b5e71" data-original="#5b5e71"></path> </g> <g> <path d="m28.7610474 41.8590469c.0849972.0474091.0853081.1280899.0010071.1754227l-.4265461.2394829c-.084301.0473289-.2284756.0474205-.3134727.0000076l-.9137554-.5096817c-.0850105-.0474167-.0853233-.1280975-.0010223-.1754303l.426548-.2394829c.084301-.0473289.2284756-.0474205.313488 0z" fill="#5b5e71" data-original="#5b5e71"></path> </g> <g> <path d="m17.7503242 41.7144547c.0892544.0497856.0853157.1280975.0010147.1754265l-.9078445.5097046c-.0845299.0474625-.2201004.0474777-.3093567-.0023079l-.909503-.507309c-.0892487-.0497818-.0896759-.1256561-.0051451-.1731186l.9078445-.5097046c.084301-.0473289.2242374-.0497818.3134861 0z" fill="#5b5e71" data-original="#5b5e71"></path> </g> <g> <path d="m23.6176319 41.7642937c.0849972.0474129.0854263.1232872-.0032291.1730614l-.9034901.5072632c-.0886555.0497742-.2242393.0497818-.3092365.0023727l-.9137554-.5096817c-.0892467-.0497818-.0896759-.1256561-.0010204-.1754303l.9034901-.5072632c.0886555-.0497742.2242393-.0497818.313488 0z" fill="#5b5e71" data-original="#5b5e71"></path> </g> <g> <path d="m14.8616886 41.8236122c.0892553.0497856.0855532.1279716.0010223.1754341l-1.021697.5736275c-.0845308.0474586-.2242317.0497856-.3134871 0l-6.2092886-3.4634666c-.0849967-.0474091-.0855451-.1279678-.0010147-.1754265l1.021697-.5736275c.0845308-.0474586.2284832-.0474167.3134804-.0000038z" fill="#5b5e71" data-original="#5b5e71"></path> </g> <g> <path d="m27.7434731 42.4303589c.0849972.0474091.0896626.1256485.001009.1754227l-.9037209.5073891c-.0886536.0497742-.2284756.0474205-.3134727.0000114l-1.5725174-.8771324c-.0892487-.0497818-.0896759-.1256561-.0010223-.1754303l.9037209-.5073929c.0886536-.0497742.2242374-.0497818.3134861 0z" fill="#5b5e71" data-original="#5b5e71"></path> </g> <g> <path d="m24.9478836 42.5062943c.0849972.0474091.0896759.1256561.0010223.1754303l-.903492.5072632c-.0886536.0497742-.2284889.0474091-.3134861 0l-.9095039-.507309c-.0892487-.0497818-.0896759-.1256561-.0010223-.1754303l.903492-.5072632c.0886536-.0497742.2242393-.0497818.313488 0z" fill="#5b5e71" data-original="#5b5e71"></path> </g> <g> <path d="m22.4797878 42.7646446c.0892467.0497818.0896759.1256561.0010204.1754303l-.9037209.5073891c-.0886536.0497742-.2242374.0497856-.3134861.0000038l-.9095039-.5073128c-.0892467-.0497818-.0896759-.1256561-.0010223-.1754303l.9037209-.5073891c.0886555-.0497742.2242393-.0497818.313488 0z" fill="#5b5e71" data-original="#5b5e71"></path> </g> <g> <path d="m16.4937019 42.7339325c.0892487.0497818.0855541.1279716.0010223.1754303l-1.0216961.5736275c-.0845308.0474586-.2242393.0497818-.3134871 0l-1.1985121-.6685143c-.0849972-.0474091-.0855455-.1279678-.0010147-.1754265l1.021697-.5736275c.0845299-.0474586.2284822-.0474167.3134794-.0000076z" fill="#5b5e71" data-original="#5b5e71"></path> </g> <g> <path d="m20.4193363 43.2031975c.0850105.0474205.0853233.1281013.0010223.1754303l-.9078445.5097046c-.0845299.0474625-.2243519.045105-.3093643-.0023117l-.9137535-.5096817c-.0849972-.0474091-.0896626-.1256485-.0051308-.1731071l.9078445-.5097046c.084301-.0473328.2284756-.0474205.3134727-.0000114z" fill="#5b5e71" data-original="#5b5e71"></path> </g> <g> <path d="m17.8962116 43.5162354c.0849972.0474091.0855522.1279716.0010223.1754303l-1.0216961.5736275c-.0845318.0474586-.2284908.0474091-.313488 0l-.9392624-.5239067c-.0849972-.0474129-.0855522-.1279716-.0010223-.1754341l1.021698-.5736275c.0845299-.0474586.2284889-.0474091.3134861 0z" fill="#5b5e71" data-original="#5b5e71"></path> </g> <g> <path d="m18.6438122 44.5901184c.0849972.0474091.0896759.1256561.005373.1729851l-.439146.2465591c-.0845299.0474586-.2284889.0474091-.3134861 0l-.939249-.5238991c-.0850105-.0474205-.0855522-.1279716-.0010204-.1754341l.439146-.2465553c.084301-.0473289.224123-.0449753.3091335.0024414z" fill="#5b5e71" data-original="#5b5e71"></path> </g> <g> <g> <path d="m23.3392296 44.8793106c.0892487.0497818.0896759.1256561.0010223.1754303l-.903492.5072632c-.0845318.0474586-.2242393.0497818-.313488 0l-2.5415096-1.4176216c-.0892487-.0497818-.0855522-.1279716-.0010223-.1754303l.903492-.5072632c.0886536-.0497742.2242393-.0497818.313488 0z" fill="#5b5e71" data-original="#5b5e71"></path> </g> </g> <g> <path d="m20.5609798 45.0026093c.0892487.0497818.0855389.127964.001009.1754227l-1.021698.5736275c-.0845299.0474586-.2242241.0497932-.3134727.0000114l-.9350109-.5215378c-.0892487-.0497818-.0855522-.1279716-.0010223-.1754341l1.021698-.5736275c.0845299-.0474586.2242374-.0497818.3134861 0z" fill="#5b5e71" data-original="#5b5e71"></path> </g> <g> <path d="m21.3255844 46.0859795c.0849972.0474091.0896626.1256485.0053616.1729774l-.4391479.2465591c-.0845299.0474586-.2284756.0474167-.3134727.0000076l-.9392605-.5239067c-.0849972-.0474129-.0855541-.1279716-.0010223-.1754341l.439146-.2465553c.084301-.0473328.2241383-.0449677.3091354.0024414z" fill="#5b5e71" data-original="#5b5e71"></path> </g> </g> <g> <path d="m6.5911427 37.2104034c.0849972.0474091.0812941.1255951-.0032363.1730537l-1.021697.5736275c-.0845304.0474625-.2242317.0497894-.3092284.0023766l-.9137545-.5096779c-.0892558-.0497856-.0855527-.1279716-.0010223-.1754303l1.021697-.5736275c.0845308-.0474625.2242317-.0497894.3134875-.0000038z" fill="#5b5e71" data-original="#5b5e71"></path> </g> <g> <path d="m14.9612112 34.1616631c.0849972.0474129.0853157.1280975.0010147.1754265l-.4265471.2394829c-.0843019.0473328-.2284832.0474167-.3134804.0000076l-.9137545-.5096817c-.0850039-.0474129-.0853233-.1281013-.0010214-.1754303l.4265471-.2394829c.084301-.0473328.2284822-.0474167.3134871-.0000038z" fill="#5b5e71" data-original="#5b5e71"></path> </g> <g> <path d="m12.9500637 35.8140526c.0892553.0497856.0896759.1256599.0010214.1754341l-.903491.5072594c-.0886545.0497742-.2242317.0497894-.313488.0000038l-.9137535-.5096817c-.0849972-.0474129-.0854177-.1232834.0032358-.1730576l.903492-.5072594c.0886536-.0497742.2242317-.0497894.3092289-.0023766z" fill="#5b5e71" data-original="#5b5e71"></path> </g> <g> <path d="m13.7991371 34.6523743c.0892477.0497818.0896683.1256523.0010147.1754265l-.9037209.5073929c-.0886545.0497742-.2242317.0497856-.3134804.0000038l-.9095097-.5073128c-.0849972-.0474091-.0896692-.1256523-.0010147-.1754265l.9037199-.5073891c.0886545-.049778.2284832-.0474167.3134804-.0000076z" fill="#5b5e71" data-original="#5b5e71"></path> </g> <g> <g> <path d="m10.8216829 31.8526859c.0850048.0474148.0853233.1280994.0010223.1754322l-.4265471.2394829c-.0843019.0473289-.2284832.0474129-.3134871 0l-.9137545-.5096817c-.084997-.047409-.0853165-.1280956-.0010145-.1754265l.4265471-.2394829c.084301-.0473309.2284822-.0474167.3134794-.0000057z" fill="#5b5e71" data-original="#5b5e71"></path> </g> <g> <path d="m12.1986914 32.6207657c.0892487.0497818.0853233.1280975.0010223.1754303l-.4265471.2394829c-.0843019.0473289-.2242393.0497818-.3134871 0l-.909503-.507309c-.0892563-.0497856-.0853243-.1281013-.0010223-.1754303l.4265471-.2394829c.084301-.0473328.2242317-.0497894.3134871-.0000038z" fill="#5b5e71" data-original="#5b5e71"></path> </g> <g> <path d="m9.8041096 32.423996c.0850039.0474167.0896759.1256599.0010223.1754341l-.9037209.5073891c-.0886545.0497742-.2284832.0474167-.3134871 0l-.9137545-.5096817c-.0849972-.0474091-.0896688-.1256523-.0010152-.1754265l.9037213-.5073891c.0886536-.0497742.2284822-.0474148.3134794-.0000057z" fill="#5b5e71" data-original="#5b5e71"></path> </g> <g> <path d="m13.5799513 33.3912125c.0849972.0474129.0853167.1280975.0010147.1754303l-.4265471.2394829c-.084301.0473289-.2284832.0474129-.3134794.0000038l-.9137545-.5096817c-.0850048-.0474129-.0853243-.1281013-.0010223-.1754303l.4265471-.2394829c.084301-.0473328.2284832-.0474167.3134871 0z" fill="#5b5e71" data-original="#5b5e71"></path> </g> <g> <path d="m11.1343679 33.1660004c.0892487.0497818.0896759.1256561.0010223.1754303l-.9037209.5073891c-.0886536.0497742-.2242384.0497856-.3134871.0000038l-.909503-.507309c-.0892553-.0497894-.0896759-.1256599-.0010223-.1754341l.9037209-.5073891c.0886536-.0497742.2242317-.0497856.3134871 0z" fill="#5b5e71" data-original="#5b5e71"></path> </g> <g> <path d="m9.0017929 33.6117554c.0849972.0474129.0896692.1256523.0010147.1754303l-.903491.5072594c-.0886545.0497742-.2284832.0474167-.3134804.0000076l-1.5725102-.8771286c-.0849972-.0474091-.0896688-.1256523-.0010147-.1754265l.9034915-.5072632c.088654-.0497742.2284832-.0474167.3134799-.0000038z" fill="#5b5e71" data-original="#5b5e71"></path> </g> <g> <path d="m12.4688778 33.9103737c.0849972.0474091.0896692.1256523.0010147.1754265l-.9037199.5073891c-.0886545.0497742-.2284832.0474167-.3134804.0000076l-.9137545-.5096817c-.0850039-.0474129-.0896759-.1256561-.0010223-.1754303l.9037209-.5073929c.0886545-.0497742.2284832-.0474129.3134871 0z" fill="#5b5e71" data-original="#5b5e71"></path> </g> <g> <path d="m10.3108025 34.3419075c.0849972.0474091.0896692.1256523.0010147.1754265l-.903491.5072594c-.0886546.0497741-.2284833.0474166-.3134804.0000076l-.9137611-.5096855c-.0849972-.0474091-.0854177-.1232796.0032358-.1730576l.903492-.5072594c.0886536-.0497742.2242317-.0497856.3092289-.0023766z" fill="#5b5e71" data-original="#5b5e71"></path> </g> <g> <path d="m7.8554521 34.6073685c.0892482.0497818.0896688.1256523.0010147.1754265l-.9037209.507389c-.088654.0497742-.2242317.0497856-.3134799.0000038l-1.8870125-1.0525513c-.0849972-.0474091-.0896688-.1256523-.0010147-.1754265l.9037209-.5073891c.0886536-.0497742.2284827-.0474167.3134799-.0000076z" fill="#5b5e71" data-original="#5b5e71"></path> </g> <g> <path d="m9.1772079 35.3446274c.0850039.0474129.0896759.1256561.0010223.1754303l-.9037209.5073891c-.0886545.0497742-.2284832.0474167-.3134875.0000038l-.913754-.5096817c-.0850043-.0474167-.0896764-.1256561-.0010223-.1754303l.9037209-.5073929c.0886536-.0497742.2284832-.0474167.3134871 0z" fill="#5b5e71" data-original="#5b5e71"></path> </g> <g> <path d="m6.9978828 35.7643051c.0849972.0474129.0896693.1256523.0010152.1754303l-.903492.5072594c-.0845304.0474586-.2284827.0474167-.3134799.0000076l-2.4395146-1.360733c-.0850043-.0474167-.0855527-.1279716-.0010221-.1754303l.9034917-.5072632c.0886536-.0497742.2284827-.0474167.3134871 0z" fill="#5b5e71" data-original="#5b5e71"></path> </g> <g> <path d="m3.9306254 35.7263985c.0892487.0497818.0855455.1279678.0010149.1754265l-1.021697.5736275c-.0845304.0474586-.2242315.0497894-.3134799.0000076l-.909503-.5073128c-.0892556-.0497856-.0855526-.1279716-.0010221-.1754303l1.0216968-.5736275c.0845306-.0474586.2242317-.0497856.3134873 0z" fill="#5b5e71" data-original="#5b5e71"></path> </g> <g> <path d="m8.4215221 36.5109634c.0849972.0474091.0853167.1280937.0010157.1754265l-.9078445.5097046c-.0845304.0474586-.2243595.0451012-.3093567-.0023079l-.9137616-.5096855c-.0849967-.0474129-.0896688-.1256523-.0051379-.173111l.9078441-.5097084c.0843015-.0473289.2284827-.0474129.3134799-.0000038z" fill="#5b5e71" data-original="#5b5e71"></path> </g> <g> <path d="m5.2608843 36.4684029c.0849967.0474091.0855451.127964.0010147.1754265l-1.021697.5736275c-.0845304.0474586-.2284827.0474129-.3134799.0000038l-.9137542-.5096817c-.0850043-.0474129-.0855527-.1279716-.0010221-.1754303l1.021697-.5736275c.0845304-.0474586.2284827-.0474167.3134871 0z" fill="#5b5e71" data-original="#5b5e71"></path> </g> </g> <g> <path d="m16.3382187 34.9297409c.0892487.0497818.0853176.1280975.0010147.1754303l-.4265461.2394829c-.0843019.0473289-.2242317.0497856-.3134804.0000038l-.9095097-.5073128c-.0892487-.0497818-.0853167-.1280975-.0010147-.1754265l.4265471-.2394829c.084301-.0473328.2242308-.0497894.3134794-.0000076z" fill="#5b5e71" data-original="#5b5e71"></path> </g> <g> <path d="m15.1336393 35.3967438c.0892553.0497856.0896759.1256561.0010223.1754303l-.9037209.5073929c-.0886536.0497742-.2242317.0497856-.3134871 0l-.909503-.507309c-.0892487-.0497818-.0896692-.1256523-.0010147-.1754265l.9037199-.5073891c.0886545-.049778.2242317-.0497894.3134804-.0000076z" fill="#5b5e71" data-original="#5b5e71"></path> </g> <g> <path d="m24.8003025 44.0589981c.0892467.0497818.0896759.1256561.0010204.1754303l-.9037209.5073929c-.0886536.0497742-.2242374.0497818-.3134861 0l-1.8870124-1.0525513c-.0892487-.0497818-.0896759-.1256561-.0010223-.1754341l.9037209-.5073891c.0886536-.0497742.2242393-.0497818.313488 0z" fill="#5b5e71" data-original="#5b5e71"></path> </g> <g> <path d="m21.1452847 42.0202751c.0892487.0497818.0896606.1256485.0010071.1754227l-.9037209.5073891c-.0886536.0497742-.2242241.0497932-.3134727.0000114l-.909502-.5073128c-.0850124-.0474167-.0896759-.1256561-.0010223-.1754303l.9037209-.5073891c.0886536-.0497742.2284756-.0474205.3134861 0z" fill="#5b5e71" data-original="#5b5e71"></path> </g> </g> </g> <g> <g> <g> <path d="m48.6825104 41.1848679-8.0012856 7.8150749-10.6456451-3.5104637 8.0012855-7.815075z" fill="#ddaf9b" data-original="#ddaf9b"></path> </g> <g> <path d="m49.4089737 42.5940132-11.3453407 6.3697968-8.7544995-4.8831559 11.3453427-6.3697929z" fill="#ebc5b2" data-original="#ebc5b2"></path> </g> <g> <g> <path d="m43.5101852 41.2353249-.182167.1022758-3.4569054-1.9282188.1821671-.1022759z" fill="#ddaf9b" data-original="#ddaf9b"></path> </g> <g> <path d="m42.4269218 41.8435173-.182167.1022797-3.4569054-1.9282227.1821671-.1022758z" fill="#ddaf9b" data-original="#ddaf9b"></path> </g> <g> <path d="m42.9686203 41.5393829-.1821709.1022797-3.4569053-1.9282188.1821708-.1022797z" fill="#ddaf9b" data-original="#ddaf9b"></path> </g> <g> <path d="m44.0518837 40.9311905-.1821709.1022797-3.4569053-1.9282227.1821708-.1022759z" fill="#ddaf9b" data-original="#ddaf9b"></path> </g> </g> </g> <g> <g> <g> <g> <g> <path d="m31.5497303 47.6986732 7.8224163-4.392765-.0010185.3475723-7.8224182 4.3923722z" fill="#65aa65" data-original="#65aa65"></path> </g> <g> <path d="m31.3290539 47.3294029 7.8224163-4.3927688.2206764.3692741-7.8224163 4.392765z" fill="#6eba6e" data-original="#6eba6e"></path> </g> <g> <path d="m31.0159664 47.1547661 7.8224163-4.3927689.3130875.1746369-7.8224163 4.3927688z" fill="#75ca75" data-original="#75ca75"></path> </g> </g> </g> <g> <g> <g> <path d="m31.5492344 47.6976891v.3482017l-.8912602.1281471-.5214691.0733528.3081303-.3801841.5736389-.7145233.3129044.178688z" fill="#ebc5b2" data-original="#ebc5b2"></path> </g> </g> </g> </g> <path d="m30.6579742 48.1740379-.5214691.0733528.3081303-.3801842c.1138019.0594865.199131.1739884.2133388.3068314z" fill="#474b59" data-original="#474b59"></path> </g> </g> <g> <g> <g> <g> <path d="m20.9794483 6.8064857-.0125561 4.2788338-5.4792404-3.0562534.0125561-4.2788336z" fill="#f9bb4a" data-original="#f9bb4a"></path> </g> </g> </g> <g> <path d="m18.651329 4.5465097-.0044517 1.8523756-.6791821-.3788391.0044537-1.8523755z" fill="#cad0dd" data-original="#cad0dd"></path> </g> </g> <g> <g> <g> <g> <path d="m20.9794483 13.1514044-.0125561 4.2788343-5.4792404-3.0562534.0125561-4.2788344z" fill="#576cfb" data-original="#576cfb"></path> </g> </g> </g> <g> <path d="m18.651329 10.8914289-.0044517 1.8523751-.6791821-.3788386.0044537-1.8523759z" fill="#cad0dd" data-original="#cad0dd"></path> </g> </g> <g> <path d="m34.0425682 15.0824633v4.2128915l4.5175743 2.5199147.0039673-4.2111397z" fill="#75ca75" data-original="#75ca75"></path> <g fill="#cad0dd"> <path d="m39.3590546 18.5198689v.3589763l4.5175781 2.5199127.0039673-.3572216z" fill="#cad0dd" data-original="#cad0dd"></path> <path d="m39.3590546 19.552002v.3589744l4.5175781 2.5199146.0039673-.3572235z" fill="#cad0dd" data-original="#cad0dd"></path> <path d="m39.3590546 20.5841331v.3589745l4.5175781 2.5199146.0039673-.3572216z" fill="#cad0dd" data-original="#cad0dd"></path> <path d="m39.3590546 21.6162663v.3589744l2.3469619 1.3093605.0039673-.3572216z" fill="#cad0dd" data-original="#cad0dd"></path> </g> </g> <g> <path d="m34.0425682 20.3146667v4.2128926l4.5175743 2.5199127.0039673-4.2111397z" fill="#f9bb4a" data-original="#f9bb4a"></path> <g fill="#cad0dd"> <path d="m39.3590546 23.7520733v.3589744l4.5175781 2.5199147.0039673-.3572235z" fill="#cad0dd" data-original="#cad0dd"></path> <path d="m39.3590546 24.7842045v.3589744l4.5175781 2.5199147.0039673-.3572216z" fill="#cad0dd" data-original="#cad0dd"></path> <path d="m39.3590546 25.8163376v.3589744l4.5175781 2.5199147.0039673-.3572235z" fill="#cad0dd" data-original="#cad0dd"></path> <path d="m39.3590546 26.8484688v.3589744l2.3469619 1.3093624.0039673-.3572235z" fill="#cad0dd" data-original="#cad0dd"></path> </g> </g> <g> <g> <g> <path d="m26.3386917 13.5609131c1.3886642.774579 2.5115719 2.6512985 2.5070496 4.1929359-.0045242 1.5415115-1.1347656 2.1638737-2.5234299 1.3892937-1.3886662-.7745819-2.5094566-2.6525421-2.5049343-4.1940527.0045242-1.5416374 1.1326485-2.1627588 2.5213146-1.3881769z" fill="#e63044" data-original="#e63044"></path> </g> </g> <g> <g> <g> <path d="m25.5035305 14.1485538 2.5156555 3.1891289-2.5261154.3755493z" fill="#ffffff" data-original="#ffffff"></path> </g> </g> </g> </g> </g> <path d="m29.7370758 42.1032448c-.0179443.0245323-.0542603.0438728-.0792236.0669861.024414-.0231133.0617065-.0429268.0792236-.0669861z" fill="#e4e8f4" data-original="#e4e8f4" class=""></path> </g> </g> </g> </svg> 